<svg width="141" height="39" viewBox="0 0 141 39" fill="none" xmlns="http://www.w3.org/2000/svg">
<path d="M6.53547 25.3758C6.53547 17.9948 10.2445 11.4669 17.9594 6.68218H0.192993V0.0429688H26.5273V6.34836C20.5557 10.4283 16.3274 16.1774 16.3274 24.3002V26.0435H6.53547V25.3758Z" fill="white"/>
<path d="M50.1539 21.0362V26.0805H41.178V21.0362H23.3745V15.5468L40.1765 0.0800781H50.1539V15.213H55.7917V21.0362H50.1539ZM41.3634 6.08872H41.178C40.7329 6.9418 39.8427 7.86908 38.3591 9.38979L35.1322 12.8021C34.0195 13.9519 33.3518 14.4341 32.202 15.213H41.178V9.35271C41.178 7.64654 41.2151 6.75635 41.3634 6.08872Z" fill="white"/>
<path d="M8.27773 38.4318H7.12793V35.9097C6.68285 36.0581 6.31195 36.1322 5.97814 36.2064C5.64432 36.2806 5.31049 36.2806 4.93958 36.2806C4.27195 36.2806 3.7527 36.1322 3.3818 35.8726C3.01089 35.613 2.82544 35.205 2.82544 34.6857V32.0894H3.97524V34.4261C3.97524 34.7599 4.04945 35.0195 4.2349 35.1679C4.42035 35.3162 4.71704 35.4275 5.12504 35.4275C5.42176 35.4275 5.71849 35.3904 6.01522 35.3533C6.31194 35.3162 6.64577 35.2049 7.05377 35.0937V32.1264H8.20357V38.4318H8.27773Z" fill="white"/>
<path d="M14.4345 38.4318H10.4287V32.0894H14.4345V32.9795H11.5785V34.7228H14.2491V35.5759H11.5785V37.5788H14.4345V38.4318Z" fill="white"/>
<path d="M21.5931 38.4318H20.4433V32.9795H18.4404C18.1807 34.8341 17.9953 36.0951 17.8469 36.7628C17.6986 37.4304 17.476 37.9126 17.2164 38.1722C16.9568 38.4318 16.5859 38.5431 16.1037 38.5431C15.8811 38.5431 15.6586 38.506 15.436 38.4318V37.5788C15.6215 37.653 15.8069 37.69 15.9553 37.69C16.1779 37.69 16.3633 37.5787 16.5117 37.3191C16.66 37.0595 16.7713 36.5031 16.9567 35.65C17.1051 34.797 17.2906 33.6101 17.5131 32.0894H21.6301V38.4318H21.5931Z" fill="white"/>
<path d="M25.97 35.8726L24.2267 38.4318H22.8915L24.8944 35.65C24.0042 35.3533 23.5591 34.7599 23.5591 33.8697C23.5591 33.2763 23.7816 32.8312 24.2267 32.5345C24.6718 32.2377 25.3395 32.0894 26.1925 32.0894H28.3067V38.4318H27.1569V35.8726H25.97ZM27.1569 32.9425H26.2296C25.7475 32.9425 25.3765 33.0166 25.1169 33.165C24.8573 33.3134 24.746 33.573 24.746 33.9068C24.746 34.2406 24.8573 34.5002 25.1169 34.7228C25.3765 34.9453 25.7475 35.0195 26.3038 35.0195H27.194V32.9425H27.1569Z" fill="white"/>
<path d="M35.2427 36.5031C35.2427 37.7642 34.3154 38.4318 32.498 38.4318H30.458V32.0894H34.7605V32.9795H31.6078V34.6857H32.4609C34.3154 34.6486 35.2427 35.2791 35.2427 36.5031ZM31.6449 37.5417H32.4609C33.0173 37.5417 33.4252 37.4675 33.6849 37.282C33.9445 37.1337 34.0558 36.837 34.0558 36.5031C34.0558 36.1693 33.9074 35.9097 33.6849 35.7613C33.4252 35.613 32.9802 35.5388 32.3125 35.5388H31.6078V37.5417H31.6449Z" fill="white"/>
<path d="M36.9491 32.0522H38.0247V35.3533C38.0247 35.6871 38.0247 36.058 37.9876 36.3918C37.9505 36.7256 37.9505 36.9852 37.9505 37.0965H37.9876L41.5854 32.0151H42.9206V38.3576H41.845V35.0936C41.845 34.5744 41.8821 33.9809 41.9192 33.2762H41.8821L38.2472 38.3947H36.912V32.0522H36.9491Z" fill="white"/>
<path d="M50.6719 38.4318H49.5221V35.5759H46.2581V38.4318H45.1083V32.0894H46.2581V34.6857H49.5221V32.0894H50.6719V38.4318Z" fill="white"/>
<path d="M55.828 32.8682C55.1604 32.8682 54.6411 33.0908 54.2702 33.4987C53.8993 33.9067 53.7139 34.5002 53.7139 35.242C53.7139 36.0209 53.8993 36.6143 54.2702 37.0223C54.6411 37.4303 55.1604 37.6158 55.8651 37.6158C56.1619 37.6158 56.4586 37.5787 56.7182 37.5416C57.015 37.5045 57.2745 37.4303 57.6084 37.319V38.2092C57.052 38.3947 56.4215 38.506 55.7168 38.506C54.6782 38.506 53.8993 38.2092 53.343 37.6529C52.7866 37.0965 52.527 36.2805 52.527 35.242C52.527 34.5744 52.6753 34.018 52.935 33.4987C53.1946 32.9795 53.6026 32.6086 54.0848 32.3489C54.604 32.0893 55.1975 31.9409 55.8651 31.9409C56.5698 31.9409 57.2375 32.0893 57.868 32.3489L57.46 33.202C57.2375 33.0907 56.9779 33.0166 56.7182 32.9424C56.4215 32.9053 56.1248 32.8682 55.828 32.8682Z" fill="white"/>
<path d="M64.8405 38.4318H63.4682L60.5751 35.205V38.4318H59.4253V32.0894H60.5751V35.1679L63.4311 32.0894H64.6922L61.8362 35.1679L64.8405 38.4318Z" fill="white"/>
<path d="M75.1892 35.242C75.1892 36.2805 74.8926 37.0965 74.3362 37.6528C73.7798 38.2092 72.9638 38.5059 71.8882 38.5059C70.8126 38.5059 69.9966 38.2092 69.4402 37.6528C68.8839 37.0965 68.5872 36.2805 68.5872 35.242C68.5872 34.2034 68.8839 33.3874 69.4402 32.8311C70.0337 32.2747 70.8496 31.978 71.8882 31.978C72.9267 31.978 73.7427 32.2747 74.3362 32.8311C74.9296 33.3874 75.1892 34.2034 75.1892 35.242ZM69.8111 35.242C69.8111 36.0209 69.9966 36.6143 70.3304 37.0223C70.6642 37.4303 71.2206 37.6158 71.8882 37.6158C72.5929 37.6158 73.0751 37.4303 73.446 37.0223C73.8169 36.6143 73.9653 36.0209 73.9653 35.242C73.9653 34.4631 73.7798 33.8696 73.446 33.4616C73.1122 33.0537 72.5929 32.8682 71.8882 32.8682C71.1835 32.8682 70.6642 33.0537 70.3304 33.4616C69.9966 33.8696 69.8111 34.4631 69.8111 35.242Z" fill="white"/>
<path d="M82.6068 38.4318H81.457V35.5759H78.193V38.4318H77.0432V32.0894H78.193V34.6857H81.457V32.0894H82.6068V38.4318Z" fill="white"/>
<path d="M90.0627 38.4318H88.9129V32.9795H86.91C86.6503 34.8341 86.4649 36.0951 86.3165 36.7628C86.1682 37.4304 85.9456 37.9126 85.686 38.1722C85.4264 38.4318 85.0555 38.5431 84.5733 38.5431C84.3507 38.5431 84.1282 38.506 83.9056 38.4318V37.5788C84.0911 37.653 84.2766 37.69 84.4249 37.69C84.6475 37.69 84.8329 37.5787 84.9813 37.3191C85.1296 37.0595 85.2409 36.5031 85.4263 35.65C85.5747 34.797 85.7602 33.6101 85.9827 32.0894H90.0998V38.4318H90.0627Z" fill="white"/>
<path d="M96.5902 38.4318L95.8855 36.6515H93.1778L92.4731 38.4318H91.2491L93.8826 32.0522H95.1437L97.7771 38.4318H96.5902ZM95.5887 35.7613L94.9211 34.0181C94.884 33.9068 94.8098 33.7213 94.7357 33.4617C94.6615 33.2021 94.5873 33.0166 94.5502 32.9053C94.476 33.2763 94.3277 33.6471 94.1793 34.0922L93.5487 35.7613H95.5887Z" fill="white"/>
<path d="M99.0758 32.0522H100.151V35.3533C100.151 35.6871 100.151 36.058 100.114 36.3918C100.077 36.7256 100.077 36.9853 100.077 37.0965H100.114L103.712 32.0151H105.047V38.3576H103.972V35.0936C103.972 34.5744 104.009 33.9809 104.046 33.2762H104.009L100.374 38.3947H99.0387V32.0522H99.0758ZM102.08 31.57C101.412 31.57 100.893 31.4588 100.596 31.2363C100.3 31.0137 100.114 30.6428 100.077 30.1235H101.116C101.153 30.3461 101.19 30.4944 101.264 30.6057C101.338 30.717 101.45 30.7912 101.561 30.8653C101.709 30.9024 101.895 30.9395 102.154 30.9395C102.488 30.9395 102.711 30.8653 102.859 30.7541C103.007 30.6428 103.119 30.4203 103.156 30.1235H104.194C104.157 30.6057 103.935 30.9766 103.601 31.2363C103.267 31.4588 102.748 31.57 102.08 31.57Z" fill="white"/>
<path d="M112.762 38.4318H111.612V35.5759H108.348V38.4318H107.198V32.0894H108.348V34.6857H111.612V32.0894H112.762V38.4318Z" fill="white"/>
<path d="M102.891 15.2648H95.057V25.8829H91.4929V0.0429688H104.116C110.984 0.0429688 112.915 3.97836 112.915 7.61673C112.915 10.5126 111.318 13.854 106.752 14.7821L113.806 25.8829H109.648L102.891 15.2648ZM95.0942 12.2946H103.596C107.866 12.2946 109.202 10.0299 109.202 7.61673C109.202 5.20352 107.866 3.0502 103.633 3.0502H95.0942V12.2946Z" fill="white"/>
<path d="M120.357 0.0429688V15.4504C120.357 20.054 123.364 23.5068 128.636 23.5068C133.908 23.5068 136.878 20.0912 136.878 15.4504V0.0429688H140.48V15.636C140.48 22.0217 136.21 26.5883 128.636 26.5883C120.988 26.5883 116.793 22.0589 116.793 15.636V0.0429688H120.357V0.0429688Z" fill="white"/>
<path d="M87.0929 0.0429688H73.8929V13.243H87.0929V0.0429688Z" fill="#FF8E78"/>
<path d="M73.893 0.0429688H60.693V13.243H73.893V0.0429688Z" fill="#FF0013"/>
<path d="M60.6934 26.4429L73.8934 26.4429L73.8934 13.2429L60.6934 13.2429L60.6934 26.4429Z" fill="#CC0019"/>
<path d="M73.8934 26.4429L87.0934 26.4429L87.0934 13.2429L73.8934 13.2429L73.8934 26.4429Z" fill="#FF0013"/>
</svg>
