<svg width="148" height="39" viewBox="0 0 148 39" fill="none" xmlns="http://www.w3.org/2000/svg">
<path d="M27.459 21.0958V26.1401H18.4831V21.0958H0.679611V15.6064L17.4816 0.139648H27.459V15.2726H33.0968V21.0958H27.459ZM18.6685 6.14832H18.4831C18.038 7.0014 17.1478 7.92866 15.6642 9.44937L12.4373 12.8617C11.3246 14.0115 10.6569 14.4937 9.50714 15.2726H18.4831V9.41228C18.4831 7.66903 18.5202 6.81595 18.6685 6.14832Z" fill="white"/>
<path d="M33.8758 18.7964L42.8146 17.8692C43.1484 19.7608 45.1142 20.9848 47.8218 20.9848C50.9004 20.9848 52.6436 19.6495 52.6436 17.2757C52.6436 15.0503 50.9374 13.8263 47.8218 13.8263C45.4109 13.8263 43.7048 14.8277 42.963 16.3484L34.9143 15.6437L36.5463 0.102783H59.9504V6.2969H43.7048L43.1484 10.9703C44.5579 9.22706 47.4138 8.22561 50.9745 8.22561C57.9105 8.22561 62.1388 11.6008 62.1388 17.1644C62.1388 23.2102 56.5381 26.9934 47.6735 26.9934C39.9215 27.0305 34.5063 23.8036 33.8758 18.7964Z" fill="white"/>
<path d="M7.02199 38.4914H5.64966L2.75658 35.2645V38.4914H1.60678V32.1489H2.75658V35.2274L5.61253 32.1489H6.87362L4.01767 35.2274L7.02199 38.4914Z" fill="white"/>
<path d="M13.6243 32.1118L11.3988 36.6369C11.1392 37.1932 10.8796 37.6012 10.657 37.8238C10.4345 38.0834 10.1748 38.2688 9.8781 38.3801C9.58137 38.4914 9.21047 38.5656 8.76538 38.5656C8.39448 38.5656 8.06069 38.5285 7.72687 38.4172V37.4899C8.06069 37.6012 8.35739 37.6754 8.7283 37.6754C9.02502 37.6754 9.28466 37.6012 9.47011 37.4899C9.65556 37.3787 9.84102 37.119 10.0265 36.7852L7.43013 32.1118H8.69122L10.4345 35.3016C10.5828 35.5983 10.6941 35.8209 10.7312 35.895H10.7683C10.8054 35.8209 10.8425 35.7096 10.9167 35.5241L12.5116 32.1118H13.6243V32.1118Z" fill="white"/>
<path d="M19.5585 34.0405C19.5585 34.7081 19.2989 35.2274 18.8167 35.5612C18.3345 35.9321 17.6298 36.0805 16.7396 36.0805H15.9978V38.4543H14.848V32.1118H16.888C17.7782 32.1118 18.4458 32.2602 18.8909 32.594C19.336 32.9278 19.5585 33.41 19.5585 34.0405ZM16.0349 35.2274H16.6655C17.2589 35.2274 17.704 35.1532 17.9636 34.9307C18.2233 34.7452 18.3716 34.4485 18.3716 34.0776C18.3716 33.7067 18.2603 33.4471 18.0007 33.2616C17.7411 33.0762 17.3702 33.002 16.8509 33.002H16.0349V35.2274Z" fill="white"/>
<path d="M25.4556 32.1118V33.002H22.4142V38.4543H21.2644V32.1118H25.4556V32.1118Z" fill="white"/>
<path d="M31.2795 38.4914L30.5748 36.711H27.8671L27.1625 38.4914H25.9384L28.5719 32.1118H29.833L32.4664 38.4914H31.2795ZM30.278 35.8209L29.6104 34.0776C29.5733 33.9663 29.4991 33.7809 29.425 33.5213C29.3508 33.2616 29.2766 33.0762 29.2395 32.9649C29.1653 33.3358 29.017 33.7067 28.8686 34.1518L28.238 35.8209H30.278Z" fill="white"/>
<path d="M39.3283 38.4914H38.1785V35.6354H34.9145V38.4914H33.7647V32.1489H34.9145V34.7453H38.1785V32.1489H39.3283V38.4914Z" fill="white"/>
<path d="M50.6037 35.3021C50.6037 36.3406 50.307 37.1566 49.7506 37.7129C49.1571 38.2693 48.3783 38.566 47.3026 38.566C46.227 38.566 45.411 38.2693 44.8547 37.7129C44.2983 37.1566 44.0016 36.3406 44.0016 35.3021C44.0016 34.2635 44.2983 33.4475 44.8547 32.8912C45.4481 32.3348 46.2641 32.0381 47.3026 32.0381C48.3412 32.0381 49.1571 32.3348 49.7506 32.8912C50.344 33.4475 50.6037 34.2635 50.6037 35.3021ZM45.2256 35.3021C45.2256 36.081 45.411 36.6744 45.7448 37.0824C46.0787 37.4904 46.635 37.6759 47.3026 37.6759C48.0073 37.6759 48.4896 37.4904 48.8605 37.0824C49.1943 36.6744 49.3797 36.081 49.3797 35.3021C49.3797 34.5232 49.1943 33.9297 48.8605 33.5217C48.5266 33.1137 48.0073 32.9283 47.3026 32.9283C46.5979 32.9283 46.0787 33.1137 45.7448 33.5217C45.411 33.9297 45.2256 34.5232 45.2256 35.3021Z" fill="white"/>
<path d="M58.0212 38.4914H56.8714V35.6354H53.6074V38.4914H52.4576V32.1489H53.6074V34.7453H56.8714V32.1489H58.0212V38.4914Z" fill="white"/>
<path d="M65.4762 38.4914H64.3264V33.0391H62.3235C62.0639 34.8936 61.8784 36.1547 61.7301 36.8223C61.5817 37.49 61.3592 37.9721 61.0995 38.2318C60.8399 38.4914 60.469 38.6027 59.9868 38.6027C59.7643 38.6027 59.5417 38.5656 59.3192 38.4914V37.6383C59.5046 37.7125 59.6901 37.7496 59.8385 37.7496C60.061 37.7496 60.2465 37.6383 60.3948 37.3787C60.5432 37.119 60.6544 36.5627 60.8399 35.7096C60.9882 34.8565 61.1737 33.6696 61.3962 32.1489H65.5133V38.4914H65.4762Z" fill="white"/>
<path d="M72.0045 38.4914L71.2999 36.711H68.5922L67.8875 38.4914H66.6635L69.297 32.1118H70.5581L73.1915 38.4914H72.0045ZM71.0031 35.8209L70.3355 34.0776C70.2984 33.9663 70.2242 33.7809 70.15 33.5213C70.0758 33.2616 70.0017 33.0762 69.9646 32.9649C69.8904 33.3358 69.742 33.7067 69.5937 34.1518L68.9631 35.8209H71.0031Z" fill="white"/>
<path d="M74.4902 32.1118H75.5658V35.4129C75.5658 35.7467 75.5658 36.1176 75.5287 36.4514C75.4916 36.7852 75.4916 37.0449 75.4916 37.1561H75.5287L79.1265 32.0747H80.4618V38.4172H79.3861V35.1532C79.3861 34.634 79.4233 34.0405 79.4604 33.3358H79.4232L75.7884 38.4543H74.4531V32.1118H74.4902ZM77.4945 31.6296C76.8269 31.6296 76.3076 31.5184 76.0109 31.2958C75.6771 31.0733 75.5287 30.7024 75.4916 30.1831H76.5302C76.5673 30.4056 76.6044 30.554 76.6786 30.6653C76.7527 30.7766 76.864 30.8507 76.9753 30.9249C77.1236 30.962 77.3091 30.9991 77.5687 30.9991C77.9025 30.9991 78.1251 30.9249 78.2734 30.8136C78.4218 30.7024 78.5331 30.4798 78.5702 30.1831H79.6087C79.5716 30.6653 79.3491 31.0362 79.0152 31.2958C78.6814 31.5184 78.1622 31.6296 77.4945 31.6296Z" fill="white"/>
<path d="M88.1763 38.4914H87.0264V35.6354H83.7625V38.4914H82.6127V32.1489H83.7625V34.7453H87.0264V32.1489H88.1763V38.4914Z" fill="white"/>
<path d="M109.977 15.3246H102.144V25.9427H98.5796V0.102783H111.203C118.071 0.102783 120.002 4.03817 120.002 7.67655C120.002 10.5724 118.405 13.9138 113.839 14.8419L120.893 25.9427H116.734L109.977 15.3246ZM102.181 12.3545H110.683C114.952 12.3545 116.289 10.0898 116.289 7.67655C116.289 5.26334 114.952 3.11001 110.72 3.11001H102.181V12.3545Z" fill="white"/>
<path d="M127.444 0.102783V15.5102C127.444 20.1139 130.451 23.5666 135.723 23.5666C140.995 23.5666 143.965 20.151 143.965 15.5102V0.102783H147.566V15.6958C147.566 22.0816 143.297 26.6481 135.723 26.6481C128.075 26.6481 123.88 22.1187 123.88 15.6958V0.102783H127.444V0.102783Z" fill="white"/>
<path d="M94.1796 0.102783H67.7796V26.5028H94.1796V0.102783Z" fill="#FF0013"/>
<path d="M94.1796 0.102783H80.9796V13.3028H94.1796V0.102783Z" fill="#FF8E78"/>
<path d="M67.7796 26.5027L80.9796 26.5027L80.9796 13.3027L67.7796 13.3027L67.7796 26.5027Z" fill="#CC0019"/>
</svg>
