<svg width="145" height="40" viewBox="0 0 145 40" fill="none" xmlns="http://www.w3.org/2000/svg">
<path d="M0.664612 19.545L9.61209 18.6168C9.94623 20.3989 11.9139 21.5869 14.6241 21.5869C17.7056 21.5869 19.4506 20.2875 19.4506 18.0599C19.4506 15.9808 17.7428 14.7928 14.6241 14.7928C12.2109 14.7928 10.5031 15.7581 9.76056 17.1689L1.70417 16.4635L3.33773 1.2417H26.7644V7.44178H10.5031L9.94619 11.8598C11.357 10.1891 14.2158 9.22385 17.7799 9.22385C24.7225 9.22385 28.9549 12.5652 28.9549 17.9856C28.9549 23.8887 23.3488 27.6385 14.4756 27.6385C6.71623 27.6385 1.29576 24.4456 0.664612 19.545Z" fill="white"/>
<path d="M59.3616 13.4191C59.3616 22.8492 53.9411 27.6385 44.214 27.6385C36.9373 27.6385 31.7767 24.7426 30.2917 19.8791L39.6846 18.8396C40.3529 20.2132 41.9493 21.4384 44.2883 21.4384C48.1123 21.4384 50.1543 19.8048 50.4884 16.0922C48.5578 17.4288 45.8847 18.0228 42.1721 18.0228C34.4127 18.0228 30.0318 14.9413 30.0318 9.40948C30.0318 3.95192 35.675 0.721924 44.1398 0.721924C53.9783 0.721924 59.3616 5.17708 59.3616 13.4191ZM50.2656 10.3005C49.7087 7.92443 47.741 6.36512 44.3997 6.36512C41.3553 6.36512 39.499 7.47892 39.499 9.37236C39.499 11.1544 41.3182 12.4538 44.1769 12.4538C47.1099 12.4538 49.0776 11.5628 50.2656 10.3005Z" fill="white"/>
<path d="M6.34463 39.1108H5.19372V33.6532H2.0751V39.1108H0.924194V32.7622H6.38174V39.1108H6.34463Z" fill="white"/>
<path d="M12.508 39.1108H8.49841V32.7622H12.508V33.6532H9.64932V35.3982H12.3224V36.2521H9.64932V38.2569H12.508V39.1108Z" fill="white"/>
<path d="M19.0419 34.6557C19.0419 35.3239 18.782 35.8437 18.2994 36.1778C17.8168 36.5491 17.1114 36.6976 16.2203 36.6976H15.4778V39.0737H14.3269V32.7251H16.3689C17.2599 32.7251 17.9282 32.8736 18.3737 33.2077C18.8192 33.5419 19.0419 34.0245 19.0419 34.6557ZM15.5149 35.8437H16.1461C16.7401 35.8437 17.1856 35.7323 17.4455 35.5467C17.7054 35.3611 17.8539 35.064 17.8539 34.6928C17.8539 34.3215 17.7425 34.0616 17.4826 33.876C17.2228 33.6904 16.8515 33.6161 16.3317 33.6161H15.5149V35.8437Z" fill="white"/>
<path d="M23.7945 39.1108L21.7525 33.8018H21.7154C21.7525 34.5814 21.7896 35.3239 21.7896 36.0293V39.1108H20.7501V32.7622H22.3836L24.3514 37.8114H24.3885L26.3933 32.7622H28.0269V39.1108H26.9131V35.9551C26.9131 35.6209 26.9131 35.2126 26.9502 34.7299C26.9502 34.2102 26.9873 33.9131 26.9873 33.8018H26.9502L24.834 39.1108H23.7945Z" fill="white"/>
<path d="M35.1173 37.1803C35.1173 37.8114 34.8945 38.294 34.4119 38.591C33.9292 38.8881 33.2609 39.0737 32.3699 39.0737H30.1794V32.7251H31.3304V35.3239H32.3328C33.2238 35.3239 33.9292 35.4724 34.3747 35.8066C34.8945 36.1407 35.1173 36.5862 35.1173 37.1803ZM31.3304 38.2198H32.2957C32.8154 38.2198 33.2238 38.1455 33.4837 37.9599C33.7807 37.8114 33.8921 37.5144 33.8921 37.1803C33.8921 36.8461 33.7436 36.5862 33.4837 36.4377C33.2238 36.2892 32.7783 36.215 32.1472 36.215H31.2932V38.2198H31.3304Z" fill="white"/>
<path d="M45.9951 35.9177C45.9951 36.9573 45.6981 37.7741 45.1412 38.331C44.5843 38.8878 43.7675 39.1849 42.6908 39.1849C41.6142 39.1849 40.7974 38.8878 40.2405 38.331C39.6836 37.7741 39.3866 36.9573 39.3866 35.9177C39.3866 34.8782 39.6836 34.0614 40.2405 33.5045C40.8345 32.9476 41.6513 32.6506 42.6908 32.6506C43.7304 32.6506 44.5472 32.9476 45.1412 33.5045C45.6981 34.0614 45.9951 34.8782 45.9951 35.9177ZM40.5746 35.9177C40.5746 36.6974 40.7603 37.2914 41.0944 37.6998C41.4285 38.1082 41.9855 38.2938 42.6537 38.2938C43.3591 38.2938 43.8418 38.1082 44.213 37.6998C44.5843 37.2914 44.7328 36.6974 44.7328 35.9177C44.7328 35.1381 44.5472 34.5441 44.213 34.1357C43.8789 33.7273 43.3591 33.5417 42.6537 33.5417C41.9483 33.5417 41.4285 33.7273 41.0944 34.1357C40.7603 34.5441 40.5746 35.1381 40.5746 35.9177Z" fill="white"/>
<path d="M53.3834 39.1108H52.2325V36.2521H48.9654V39.1108H47.8145V32.7622H48.9654V35.361H52.2325V32.7622H53.3834V39.1108Z" fill="white"/>
<path d="M60.8459 39.1108H59.6949V33.6532H57.6901C57.4302 35.5096 57.2446 36.7719 57.0961 37.4401C56.9476 38.1084 56.7248 38.591 56.4649 38.8509C56.2051 39.1108 55.8338 39.2222 55.3512 39.2222C55.1284 39.2222 54.9056 39.1851 54.6829 39.1108V38.2569C54.8685 38.3312 55.0541 38.3683 55.2026 38.3683C55.4254 38.3683 55.611 38.2569 55.7595 37.997C55.908 37.7371 56.0194 37.1802 56.2051 36.3263C56.3907 35.4724 56.5392 34.2844 56.762 32.7622H60.883V39.1108H60.8459Z" fill="white"/>
<path d="M67.4179 39.1108L66.7124 37.3288H64.0023L63.2968 39.1108H62.0717L64.7076 32.7251H65.9699L68.6059 39.1108H67.4179ZM66.3783 36.4377L65.7101 34.6928C65.6729 34.5814 65.5987 34.3958 65.5244 34.1359C65.4502 33.876 65.3759 33.6904 65.3388 33.579C65.2645 33.9503 65.116 34.3215 64.9675 34.767L64.3364 36.4377H66.3783Z" fill="white"/>
<path d="M69.8676 32.725H70.9442V36.0293C70.9442 36.3634 70.9442 36.7346 70.9071 37.0688C70.87 37.4029 70.87 37.6628 70.87 37.7742H70.9071L74.5084 32.6879H75.8449V39.0365H74.7683V35.7694C74.7683 35.2496 74.8054 34.6556 74.8425 33.9502H74.8054L71.167 39.0736H69.8304V32.725H69.8676ZM72.9119 32.2424C72.2437 32.2424 71.7239 32.131 71.4269 31.9082C71.1299 31.6855 70.9442 31.3142 70.9071 30.7944H71.9466C71.9838 31.0172 72.0209 31.1657 72.0951 31.2771C72.1694 31.3884 72.2808 31.4627 72.3922 31.537C72.5035 31.6112 72.7263 31.6112 72.9862 31.6112C73.3203 31.6112 73.5431 31.537 73.6916 31.4256C73.8401 31.3142 73.9514 31.0914 73.9886 30.7944H75.0281C74.991 31.2771 74.7683 31.6483 74.4341 31.9082C74.0629 32.131 73.5802 32.2424 72.9119 32.2424Z" fill="white"/>
<path d="M83.6042 39.1108H82.4533V36.2521H79.1862V39.1108H78.0353V32.7622H79.1862V35.361H82.4533V32.7622H83.6042V39.1108Z" fill="white"/>
<path d="M106.662 15.9437H98.8287V26.5618H95.2646V0.721924H107.888C114.756 0.721924 116.686 4.65731 116.686 8.29569C116.686 11.1915 115.09 14.5329 110.524 15.4611L117.578 26.5618H113.419L106.662 15.9437ZM98.8658 12.9736H107.368C111.637 12.9736 112.974 10.7089 112.974 8.29569C112.974 5.88248 111.637 3.72915 107.405 3.72915H98.8658V12.9736Z" fill="white"/>
<path d="M124.129 0.721924V16.1293C124.129 20.733 127.136 24.1857 132.408 24.1857C137.68 24.1857 140.65 20.7701 140.65 16.1293V0.721924H144.251V16.315C144.251 22.7007 139.982 27.2672 132.408 27.2672C124.76 27.2672 120.565 22.7378 120.565 16.315V0.721924H124.129V0.721924Z" fill="white"/>
<path d="M90.8646 0.721924H77.6646V13.9219H90.8646V0.721924Z" fill="#FF8E78"/>
<path d="M77.6646 0.721924H64.4646V13.9219H77.6646V0.721924Z" fill="#FF0013"/>
<path d="M64.465 27.1218L77.665 27.1218L77.665 13.9218L64.465 13.9218L64.465 27.1218Z" fill="#CC0019"/>
<path d="M77.6651 27.1218L90.8651 27.1218L90.8651 13.9218L77.6651 13.9218L77.6651 27.1218Z" fill="#FF0013"/>
</svg>
