<svg width="145" height="40" viewBox="0 0 145 40" fill="none" xmlns="http://www.w3.org/2000/svg">
<path d="M29.6513 18.2316C29.6513 24.0233 24.008 27.6988 15.0977 27.6988C5.55625 27.6988 0.358582 23.0951 0.358582 14.6303C0.358582 5.79427 5.92751 0.782227 15.8402 0.782227C22.9685 0.782227 27.9805 3.26968 29.3913 7.68771L19.9984 8.72726C19.3673 7.46497 17.7708 6.79669 15.4319 6.79669C11.8306 6.79669 9.78866 8.50449 9.30602 11.7716C11.4222 10.138 14.2067 9.32127 17.6223 9.32127C25.3446 9.28415 29.6513 12.5141 29.6513 18.2316ZM20.2212 18.2687C20.2212 16.1154 18.5133 14.8531 15.5061 14.8531C13.0186 14.8531 10.9767 15.7813 9.60304 17.4519C10.3084 20.3107 12.0534 21.7215 15.0606 21.7215C18.105 21.7215 20.2212 20.3478 20.2212 18.2687Z" fill="white"/>
<path d="M30.6542 18.2687L40.0472 17.5633C40.01 20.5334 42.2005 21.6472 45.2448 21.6472C48.2149 21.6472 50.1826 20.7933 50.1826 18.8998C50.1826 17.3777 49.0688 16.4495 45.5418 16.4495H42.646V11.6231H45.5047C48.6604 11.6231 49.9227 10.7692 49.9227 9.28415C49.9227 7.7991 48.1778 6.8338 45.2077 6.8338C42.2004 6.8338 40.1214 7.7991 40.1214 10.5836L30.8027 9.8039C30.8027 4.53197 36.0004 0.819336 45.0592 0.819336C53.8953 0.819336 59.4271 3.45531 59.4271 8.39311C59.4271 12.0686 56.3827 13.4794 53.0042 13.8135C57.6079 14.3704 59.9097 16.4124 59.9097 19.7909C59.9097 24.7287 53.9324 27.6988 45.1706 27.6988C36.2231 27.6988 30.7284 24.3203 30.6542 18.2687Z" fill="white"/>
<path d="M3.55175 33.6017C2.88348 33.6017 2.36373 33.8245 1.99246 34.2329C1.6212 34.6413 1.43557 35.2353 1.43557 35.9778C1.43557 36.7575 1.6212 37.3515 1.99246 37.7599C2.36373 38.1683 2.88347 38.3539 3.58887 38.3539C3.88588 38.3539 4.18291 38.3168 4.44279 38.2796C4.7398 38.2425 4.99969 38.1683 5.33383 38.0569V38.9479C4.77694 39.1335 4.14575 39.2449 3.44035 39.2449C2.40082 39.2449 1.6212 38.9479 1.0643 38.391C0.507409 37.8341 0.247498 37.0173 0.247498 35.9778C0.247498 35.3095 0.395994 34.7526 0.655878 34.2329C0.915762 33.7131 1.32419 33.3418 1.80683 33.082C2.28947 32.8221 2.92059 32.6736 3.58887 32.6736C4.29427 32.6736 4.96255 32.8221 5.5937 33.082L5.18532 33.9359C4.96256 33.8245 4.70267 33.7502 4.44279 33.676C4.18291 33.6017 3.84876 33.6017 3.55175 33.6017Z" fill="white"/>
<path d="M11.4965 39.1709L10.7911 37.3888H8.08088L7.37552 39.1709H6.15033L8.78629 32.7852H10.0486L12.6846 39.1709H11.4965ZM10.4941 36.4978L9.82584 34.7528C9.78872 34.6415 9.71447 34.4558 9.64021 34.196C9.56596 33.9361 9.49171 33.7504 9.45458 33.6391C9.38033 34.0103 9.23182 34.3816 9.08332 34.8271L8.45214 36.4978H10.4941Z" fill="white"/>
<path d="M17.0287 39.1709L14.9868 33.8618H14.9496C14.9867 34.6414 15.0239 35.384 15.0239 36.0894V39.1709H13.9843V32.8223H15.6179L17.5856 37.8715H17.6227L19.6275 32.8223H21.2611V39.1709H20.1473V36.0151C20.1473 35.681 20.1473 35.2726 20.1844 34.79C20.2216 34.3073 20.2216 33.9732 20.2216 33.8618H20.1844L18.0682 39.1709H17.0287Z" fill="white"/>
<path d="M27.7951 39.1709L27.0897 37.3888H24.3795L23.6741 39.1709H22.4489L25.0849 32.7852H26.3472L28.9831 39.1709H27.7951ZM26.7927 36.4978L26.1244 34.7528C26.0873 34.6415 26.013 34.4558 25.9388 34.196C25.8645 33.9361 25.7903 33.7504 25.7532 33.6391C25.6789 34.0103 25.5304 34.3816 25.3819 34.8271L24.7507 36.4978H26.7927Z" fill="white"/>
<path d="M34.9603 34.7528C34.9603 35.4211 34.7004 35.9409 34.2178 36.275C33.7352 36.6091 33.0298 36.7948 32.1387 36.7948H31.3962V39.1709H30.2453V32.8223H32.2872C33.1783 32.8223 33.8466 32.9708 34.2921 33.3049C34.7376 33.639 34.9603 34.0846 34.9603 34.7528ZM31.4333 35.9037H32.0645C32.6585 35.9037 33.104 35.7924 33.3639 35.6067C33.6238 35.4211 33.7723 35.1241 33.7723 34.7528C33.7723 34.3816 33.6609 34.1217 33.401 33.9361C33.1412 33.7504 32.7699 33.6762 32.2501 33.6762H31.4333V35.9037Z" fill="white"/>
<path d="M41.0491 39.1709L40.3437 37.3888H37.6335L36.9281 39.1709H35.7029L38.3389 32.7852H39.6012L42.2372 39.1709H41.0491ZM40.0467 36.4978L39.3785 34.7528C39.3413 34.6415 39.2671 34.4558 39.1928 34.196C39.1186 33.9361 39.0443 33.7504 39.0072 33.6391C38.9329 34.0103 38.7844 34.3816 38.6359 34.8271L38.0048 36.4978H40.0467Z" fill="white"/>
<path d="M52.6705 35.9776C52.6705 37.0171 52.3734 37.8339 51.8165 38.3908C51.2225 38.9477 50.4429 39.2447 49.3662 39.2447C48.2895 39.2447 47.4728 38.9477 46.9159 38.3908C46.359 37.8339 46.062 37.0171 46.062 35.9776C46.062 34.938 46.359 34.1212 46.9159 33.5643C47.4728 33.0075 48.3267 32.7104 49.3662 32.7104C50.4057 32.7104 51.2225 33.0075 51.8165 33.5643C52.4106 34.1212 52.6705 34.938 52.6705 35.9776ZM47.25 35.9776C47.25 36.7572 47.4356 37.3512 47.7698 37.7596C48.1039 38.168 48.6608 38.3536 49.3291 38.3536C50.0345 38.3536 50.5171 38.168 50.8884 37.7596C51.2225 37.3512 51.4081 36.7572 51.4081 35.9776C51.4081 35.1979 51.2225 34.6039 50.8884 34.1955C50.5542 33.7871 50.0345 33.6015 49.3291 33.6015C48.6237 33.6015 48.1039 33.7871 47.7698 34.1955C47.4356 34.6039 47.25 35.1979 47.25 35.9776Z" fill="white"/>
<path d="M60.0579 39.1709H58.907V36.3121H55.6399V39.1709H54.489V32.8223H55.6399V35.4211H58.907V32.8223H60.0579V39.1709Z" fill="white"/>
<path d="M67.5204 39.1709H66.3694V33.7133H64.3646C64.1047 35.5696 63.9191 36.8319 63.7706 37.5002C63.6221 38.1685 63.3993 38.6511 63.1394 38.911C62.8796 39.1709 62.5083 39.2822 62.0257 39.2822C61.8029 39.2822 61.5801 39.2451 61.3574 39.1709V38.317C61.543 38.3912 61.7286 38.4283 61.8771 38.4283C62.0999 38.4283 62.2855 38.317 62.434 38.0571C62.5825 37.7972 62.6939 37.2403 62.8796 36.3864C63.0281 35.5325 63.2137 34.3444 63.4365 32.8223H67.5575V39.1709H67.5204Z" fill="white"/>
<path d="M74.0915 39.1709L73.3861 37.3888H70.6759L69.9705 39.1709H68.7453L71.3813 32.7852H72.6436L75.2795 39.1709H74.0915ZM73.0891 36.4978L72.4208 34.7528C72.3837 34.6415 72.3094 34.4558 72.2352 34.196C72.1609 33.9361 72.0867 33.7504 72.0496 33.6391C71.9753 34.0103 71.8268 34.3816 71.6783 34.8271L71.0472 36.4978H73.0891Z" fill="white"/>
<path d="M76.5421 32.8222H77.6187V36.1264C77.6187 36.4606 77.6187 36.8318 77.5816 37.166C77.5445 37.5001 77.5445 37.76 77.5445 37.8714H77.5816L81.1829 32.7851H82.5194V39.1337H81.4428V35.8665C81.4428 35.3468 81.4799 34.7527 81.517 34.0473H81.4799L77.8415 39.1708H76.5049V32.8222H76.5421ZM79.5864 32.3024C78.9182 32.3024 78.3984 32.191 78.1014 31.9683C77.7673 31.7455 77.6187 31.3743 77.5816 30.8545H78.6211C78.6583 31.0772 78.6954 31.2258 78.7696 31.3371C78.8439 31.4485 78.9553 31.5228 79.0667 31.597C79.2152 31.6341 79.4008 31.6713 79.6607 31.6713C79.9948 31.6713 80.2176 31.597 80.3661 31.4856C80.5146 31.3743 80.6259 31.1515 80.6631 30.8545H81.7026C81.6655 31.3371 81.4428 31.7084 81.1086 31.9683C80.7374 32.191 80.2547 32.3024 79.5864 32.3024Z" fill="white"/>
<path d="M90.2787 39.1709H89.1278V36.3121H85.8607V39.1709H84.7098V32.8223H85.8607V35.4211H89.1278V32.8223H90.2787V39.1709Z" fill="white"/>
<path d="M107.345 16.004H99.5116V26.6221H95.9474V0.782227H108.57C115.439 0.782227 117.369 4.71761 117.369 8.35599C117.369 11.2518 115.773 14.5932 111.206 15.5214L118.26 26.6221H114.102L107.345 16.004ZM99.5487 13.0339H108.051C112.32 13.0339 113.657 10.7692 113.657 8.35599C113.657 5.94278 112.32 3.78946 108.088 3.78946H99.5487V13.0339Z" fill="white"/>
<path d="M124.812 0.782227V16.1896C124.812 20.7933 127.819 24.246 133.091 24.246C138.363 24.246 141.333 20.8304 141.333 16.1896V0.782227H144.934V16.3753C144.934 22.761 140.665 27.3275 133.091 27.3275C125.443 27.3275 121.247 22.7981 121.247 16.3753V0.782227H124.812V0.782227Z" fill="white"/>
<path d="M91.5475 0.782227H78.3475V13.9822H91.5475V0.782227Z" fill="#FF8E78"/>
<path d="M78.3475 0.782227H65.1475V13.9822H78.3475V0.782227Z" fill="#FF0013"/>
<path d="M65.1479 27.1821L78.3479 27.1821L78.3479 13.9821L65.1479 13.9821L65.1479 27.1821Z" fill="#CC0019"/>
<path d="M78.3479 27.1821L91.5479 27.1821L91.5479 13.9821L78.3479 13.9821L78.3479 27.1821Z" fill="#FF0013"/>
</svg>
