<svg width="141" height="39" viewBox="0 0 141 39" fill="none" xmlns="http://www.w3.org/2000/svg">
<path d="M6.77699 25.6036C6.77699 18.4011 10.5268 12.0896 18.2119 7.44884H0.465515V0.803223H26.7881V7.11469C20.8479 11.0872 16.5783 16.6562 16.5783 24.5269V26.2719H6.77699V25.6036Z" fill="white"/>
<path d="M27.7164 20.5173C32.6171 18.6981 38.2603 16.1364 41.8616 14.4657C45.3143 12.7579 46.2425 11.3842 46.2425 9.49079C46.2425 7.82011 44.7203 6.55781 41.8987 6.55781C38.9657 6.55781 37.1465 7.8201 37.1465 10.2704C37.1465 10.4561 37.1465 10.6788 37.1836 11.0872L27.8278 10.2704C27.7907 9.86204 27.7536 9.52793 27.7536 9.08241C27.7536 3.36496 34.065 0.246338 42.1586 0.246338C50.1779 0.246338 55.9324 2.69669 55.9324 8.63689C55.9324 12.2381 54.3731 14.2058 50.4748 16.2106C47.9131 17.6214 44.349 18.7352 40.7849 19.6634H56.3037V26.2719H27.6793V20.5173H27.7164Z" fill="white"/>
<path d="M3.80761 38.635H2.6567V33.1774H0.577637V32.2864H5.88667V33.1774H3.80761V38.635V38.635Z" fill="white"/>
<path d="M16.2452 35.4419C16.2452 36.4815 15.9853 37.2983 15.4284 37.8552C14.8715 38.412 14.0918 38.7091 13.0894 38.7091C12.1241 38.7091 11.3816 38.4492 10.8247 37.9294C10.2678 37.4096 9.97082 36.7042 9.9337 35.7389H8.41153V38.5977H7.26062V32.2491H8.41153V34.8479H9.97081C10.0451 33.9569 10.3792 33.2886 10.899 32.8431C11.4187 32.3605 12.1613 32.1377 13.0894 32.1377C14.0918 32.1377 14.8715 32.4347 15.3912 32.9916C15.9481 33.6227 16.2452 34.4024 16.2452 35.4419ZM11.1589 35.4419C11.1589 36.2216 11.3074 36.8156 11.6415 37.224C11.9756 37.6324 12.4583 37.818 13.0894 37.818C13.7206 37.818 14.2404 37.6324 14.5374 37.224C14.8715 36.8156 15.02 36.2216 15.02 35.4419C15.02 34.6623 14.8715 34.0683 14.5374 33.6599C14.2032 33.2515 13.7206 33.0659 13.0894 33.0659C12.4583 33.0659 11.9385 33.2515 11.6415 33.6599C11.3074 34.0683 11.1589 34.6623 11.1589 35.4419Z" fill="white"/>
<path d="M21.1083 38.635L19.0664 33.3259H19.0292C19.0664 34.1056 19.1035 34.8481 19.1035 35.5535V38.635H18.064V32.2864H19.6975L21.6652 37.3355H21.7023L23.7071 32.2864H25.3407V38.635H24.2269V35.4792C24.2269 35.1451 24.2269 34.7367 24.264 34.2541C24.3012 33.7714 24.3012 33.4373 24.3012 33.3259H24.264L22.1479 38.635H21.1083Z" fill="white"/>
<path d="M31.5038 38.635H27.4941V32.2864H31.5038V33.1774H28.645V34.9223H31.3181V35.7762H28.645V37.7811H31.5038V38.635Z" fill="white"/>
<path d="M38.9292 38.635H37.7783V35.7762H34.5111V38.635H33.3602V32.2864H34.5111V34.8852H37.7783V32.2864H38.9292V38.635Z" fill="white"/>
<path d="M46.02 36.7044C46.02 37.3356 45.7973 37.8182 45.3147 38.1152C44.832 38.4494 44.1638 38.5979 43.2727 38.5979H41.0823V32.2493H42.2332V34.8481H43.2356C44.1266 34.8481 44.832 34.9966 45.2775 35.3307C45.7602 35.6649 46.02 36.1104 46.02 36.7044ZM42.2332 37.744H43.1985C43.7182 37.744 44.1266 37.6697 44.3865 37.4841C44.6835 37.3356 44.7949 37.0386 44.7949 36.7044C44.7949 36.3703 44.6464 36.1104 44.3865 35.9619C44.1266 35.8134 43.6811 35.7391 43.0499 35.7391H42.1961V37.744H42.2332Z" fill="white"/>
<path d="M56.8611 35.4417C56.8611 36.4812 56.5641 37.298 56.0072 37.8549C55.4132 38.4118 54.6335 38.7088 53.5569 38.7088C52.4802 38.7088 51.6634 38.4118 51.1065 37.8549C50.5497 37.298 50.2526 36.4812 50.2526 35.4417C50.2526 34.4022 50.5497 33.5854 51.1065 33.0285C51.6634 32.4716 52.5173 32.1746 53.5569 32.1746C54.5964 32.1746 55.4132 32.4716 56.0072 33.0285C56.6012 33.5854 56.8611 34.4022 56.8611 35.4417ZM51.4778 35.4417C51.4778 36.2213 51.6635 36.8154 51.9976 37.2237C52.3317 37.6321 52.8886 37.8178 53.5569 37.8178C54.2623 37.8178 54.7449 37.6321 55.1162 37.2237C55.4503 36.8154 55.6359 36.2213 55.6359 35.4417C55.6359 34.662 55.4503 34.068 55.1162 33.6596C54.782 33.2512 54.2623 33.0656 53.5569 33.0656C52.8515 33.0656 52.3317 33.2512 51.9976 33.6596C51.6635 34.068 51.4778 34.662 51.4778 35.4417Z" fill="white"/>
<path d="M64.2862 38.635H63.1353V35.7762H59.8682V38.635H58.7173V32.2864H59.8682V34.8852H63.1353V32.2864H64.2862V38.635Z" fill="white"/>
<path d="M71.7486 38.635H70.5977V33.1774H68.5929C68.333 35.0337 68.1473 36.296 67.9988 36.9643C67.8503 37.6326 67.6276 38.1152 67.3677 38.3751C67.1078 38.635 66.7365 38.7463 66.2539 38.7463C66.0311 38.7463 65.8084 38.7092 65.5856 38.635V37.7811C65.7713 37.8553 65.9569 37.8924 66.1054 37.8924C66.3282 37.8924 66.5138 37.7811 66.6623 37.5212C66.8108 37.2613 66.9222 36.7044 67.1078 35.8505C67.2563 34.9966 67.4419 33.8086 67.6647 32.2864H71.7857V38.635H71.7486Z" fill="white"/>
<path d="M78.283 38.635L77.5776 36.8529H74.8674L74.162 38.635H72.9368L75.5728 32.2493H76.8351L79.4711 38.635H78.283ZM77.2806 35.9619L76.6123 34.217C76.5752 34.1056 76.501 33.9199 76.4267 33.6601C76.3525 33.4002 76.2782 33.2145 76.2411 33.1032C76.1668 33.4744 76.0183 33.8457 75.8698 34.2912L75.2387 35.9619H77.2806Z" fill="white"/>
<path d="M80.7704 32.2863H81.847V35.5905C81.847 35.9247 81.847 36.2959 81.8099 36.6301C81.7728 36.9642 81.7728 37.2241 81.7728 37.3355H81.8099L85.4112 32.2492H86.7477V38.5978H85.671V35.3307C85.671 34.8109 85.7081 34.2169 85.7453 33.5115H85.7081L82.0698 38.6349H80.7332V32.2863H80.7704ZM83.7776 31.7665C83.1093 31.7665 82.5896 31.6551 82.2925 31.4324C81.9584 31.2096 81.8099 30.8384 81.7728 30.3186H82.8123C82.8495 30.5414 82.8865 30.6899 82.9608 30.8013C83.035 30.9126 83.1464 30.9869 83.2578 31.0611C83.4063 31.0983 83.5919 31.1354 83.8518 31.1354C84.186 31.1354 84.4087 31.0611 84.5572 30.9498C84.7057 30.8384 84.8171 30.6156 84.8543 30.3186H85.8938C85.8567 30.8012 85.6339 31.1725 85.2998 31.4324C84.9656 31.6923 84.4459 31.7665 83.7776 31.7665Z" fill="white"/>
<path d="M94.4694 38.635H93.3185V35.7762H90.0514V38.635H88.9005V32.2864H90.0514V34.8852H93.3185V32.2864H94.4694V38.635Z" fill="white"/>
<path d="M103.163 15.4681H95.3296V26.0862H91.7655V0.246338H104.388C111.257 0.246338 113.187 4.18172 113.187 7.8201C113.187 10.716 111.591 14.0573 107.024 14.9855L114.078 26.0862H109.92L103.163 15.4681ZM95.3667 12.498H103.869C108.138 12.498 109.475 10.2333 109.475 7.8201C109.475 5.40689 108.138 3.25357 103.906 3.25357H95.3667V12.498Z" fill="white"/>
<path d="M120.63 0.246338V15.6538C120.63 20.2574 123.637 23.7102 128.909 23.7102C134.181 23.7102 137.151 20.2945 137.151 15.6538V0.246338H140.752V15.8394C140.752 22.2251 136.483 26.7916 128.909 26.7916C121.261 26.7916 117.065 22.2622 117.065 15.8394V0.246338H120.63V0.246338Z" fill="white"/>
<path d="M87.3655 0.246338H74.1655V13.4463H87.3655V0.246338Z" fill="#FF8E78"/>
<path d="M74.1655 0.246338H60.9655V13.4463H74.1655V0.246338Z" fill="#FF0013"/>
<path d="M60.966 26.6462L74.166 26.6462L74.166 13.4463L60.966 13.4462L60.966 26.6462Z" fill="#CC0019"/>
<path d="M74.166 26.6462L87.366 26.6462L87.366 13.4463L74.166 13.4462L74.166 26.6462Z" fill="#FF0013"/>
</svg>
