<svg width="142" height="39" viewBox="0 0 142 39" fill="none" xmlns="http://www.w3.org/2000/svg">
<path d="M7.2898 25.5722C7.2898 18.3627 11.0432 12.0451 18.7358 7.39984H0.972229V0.747803H27.3202V7.06537C21.3743 11.0417 17.1006 16.6161 17.1006 24.4944V26.241H7.2898V25.5722Z" fill="white"/>
<path d="M56.9013 17.6938C56.9013 23.4911 51.2527 27.1701 42.3337 27.1701C32.7831 27.1701 27.5803 22.562 27.5803 14.089C27.5803 5.24445 33.1547 0.227539 43.077 0.227539C50.2121 0.227539 55.229 2.7174 56.6412 7.13969L47.2391 8.18025C46.6074 6.91674 45.0094 6.24784 42.6682 6.24784C39.0634 6.24784 37.0195 7.95726 36.5364 11.2275C38.6546 9.5924 41.4418 8.77484 44.8607 8.77484C52.6276 8.73768 56.9013 11.9708 56.9013 17.6938ZM47.4993 17.7309C47.4993 15.5755 45.7898 14.312 42.7797 14.312C40.2898 14.312 38.2459 15.2411 36.8709 16.9134C37.577 19.7749 39.3236 21.187 42.3337 21.187C45.381 21.1499 47.4993 19.7748 47.4993 17.7309Z" fill="white"/>
<path d="M4.09431 36.0891L2.34766 38.6533H1.00983L3.01659 35.8661C2.1247 35.5688 1.67876 34.9742 1.67876 34.0823C1.67876 33.4877 1.90171 33.0418 2.34766 32.7445C2.7936 32.4472 3.46254 32.2986 4.31727 32.2986H6.4355V38.6533H5.28348V36.0891H4.09431ZM5.28348 33.1161H4.35442C3.87132 33.1161 3.49969 33.1904 3.23956 33.3391C2.97942 33.4877 2.86794 33.7479 2.86794 34.0823C2.86794 34.4168 2.97942 34.677 3.23956 34.8999C3.49969 35.1229 3.87134 35.1972 4.42878 35.1972H5.32063V33.1161H5.28348Z" fill="white"/>
<path d="M13.3105 34.1936C13.3105 34.8626 13.0503 35.3828 12.5672 35.7173C12.0841 36.0889 11.378 36.2376 10.4861 36.2376H9.7429V38.616H8.59088V32.2612H10.6348C11.5267 32.2612 12.1956 32.4099 12.6416 32.7443C13.0875 33.0788 13.3105 33.5619 13.3105 34.1936ZM9.78005 35.3828H10.4118C11.0064 35.3828 11.4524 35.2714 11.7125 35.0855C11.9727 34.8997 12.1213 34.6024 12.1213 34.2308C12.1213 33.8592 12.0098 33.5991 11.7497 33.4132C11.4895 33.2274 11.1179 33.1531 10.5976 33.1531H9.78005V35.3828Z" fill="white"/>
<path d="M21.3 35.4202C21.3 36.4607 21.0027 37.2783 20.4453 37.8357C19.8507 38.3932 19.0703 38.6904 17.9926 38.6904C16.9149 38.6904 16.0973 38.3932 15.5398 37.8357C14.9824 37.2783 14.6851 36.4607 14.6851 35.4202C14.6851 34.3797 14.9824 33.5621 15.5398 33.0047C16.1344 32.4472 16.952 32.1499 17.9926 32.1499C19.0331 32.1499 19.8507 32.4472 20.4453 33.0047C21.0027 33.5992 21.3 34.3797 21.3 35.4202ZM15.8743 35.4202C15.8743 36.2006 16.0601 36.7952 16.3946 37.2039C16.729 37.6127 17.2864 37.7985 17.9554 37.7985C18.6614 37.7985 19.1446 37.6127 19.5162 37.2039C19.8507 36.7952 20.0365 36.2006 20.0365 35.4202C20.0365 34.6398 19.8507 34.0452 19.5162 33.6364C19.1817 33.2276 18.6614 33.0418 17.9554 33.0418C17.2493 33.0418 16.729 33.2276 16.3946 33.6364C16.0601 34.0452 15.8743 34.6398 15.8743 35.4202Z" fill="white"/>
<path d="M26.1316 33.0418C25.4626 33.0418 24.9424 33.2648 24.5708 33.6736C24.1991 34.0824 24.0133 34.677 24.0133 35.4202C24.0133 36.2006 24.1991 36.7952 24.5708 37.204C24.9424 37.6128 25.4627 37.7986 26.1688 37.7986C26.4661 37.7986 26.7633 37.7614 27.0235 37.7243C27.3208 37.6871 27.5809 37.6128 27.9154 37.5013V38.3932C27.3579 38.579 26.7262 38.6905 26.0201 38.6905C24.9796 38.6905 24.1991 38.3932 23.6417 37.8358C23.0843 37.2783 22.8242 36.4608 22.8242 35.4202C22.8242 34.7513 22.9728 34.1939 23.2329 33.6736C23.4931 33.1533 23.9018 32.7817 24.385 32.5216C24.9052 32.2614 25.4998 32.1128 26.1688 32.1128C26.8748 32.1128 27.5437 32.2614 28.1755 32.5216L27.7667 33.3763C27.5437 33.2648 27.2836 33.1905 27.0235 33.1162C26.689 33.1162 26.4289 33.0418 26.1316 33.0418Z" fill="white"/>
<path d="M35.013 38.616H33.861V33.1531H31.8542C31.594 35.0112 31.4082 36.2747 31.2596 36.9437C31.1109 37.6126 30.888 38.0957 30.6279 38.3558C30.3677 38.6159 29.9961 38.7274 29.513 38.7274C29.29 38.7274 29.067 38.6903 28.8441 38.616V37.7612C29.0299 37.8355 29.2157 37.8727 29.3643 37.8727C29.5873 37.8727 29.7731 37.7612 29.9218 37.5011C30.0704 37.241 30.1819 36.6835 30.3677 35.8288C30.5163 34.9741 30.7022 33.7849 30.9251 32.2612H35.0501V38.616H35.013Z" fill="white"/>
<path d="M41.5911 38.616L40.885 36.8322H38.1722L37.4661 38.616H36.2397L38.8783 32.2241H40.1418L42.7803 38.616H41.5911ZM40.5506 35.9775L39.8816 34.2309C39.8445 34.1194 39.7701 33.9336 39.6958 33.6735C39.6215 33.4133 39.5472 33.2275 39.51 33.116C39.4357 33.4876 39.287 33.8593 39.1384 34.3052L38.5066 35.9775H40.5506Z" fill="white"/>
<path d="M44.0438 32.2612H46.1621C47.1283 32.2612 47.8344 32.3727 48.2803 32.6329C48.7263 32.893 48.9492 33.3017 48.9492 33.8592C48.9492 34.2308 48.8377 34.5281 48.6147 34.7882C48.3918 35.0484 48.0945 35.197 47.6857 35.2714V35.3085C48.1688 35.3828 48.5404 35.5687 48.8006 35.7916C49.0235 36.0518 49.135 36.3862 49.135 36.795C49.135 37.3524 48.9121 37.7984 48.4661 38.1328C48.0202 38.4673 47.3884 38.616 46.608 38.616H44.0438V32.2612ZM45.1958 34.8997H46.3107C46.7938 34.8997 47.1654 34.8254 47.3884 34.6768C47.6114 34.5281 47.7229 34.3051 47.7229 33.9707C47.7229 33.6734 47.6114 33.4504 47.3513 33.3389C47.1283 33.1902 46.7195 33.1531 46.1992 33.1531H45.1958V34.8997V34.8997ZM45.1958 35.7173V37.7241H46.4222C46.9053 37.7241 47.2769 37.6497 47.5371 37.4639C47.7972 37.3153 47.9087 37.018 47.9087 36.6835C47.9087 36.349 47.7972 36.0889 47.5371 35.9402C47.2769 35.7916 46.9053 35.7173 46.385 35.7173H45.1958V35.7173Z" fill="white"/>
<path d="M56.1959 38.616H55.0439V33.1531H53.0371C52.777 35.0112 52.5912 36.2747 52.4425 36.9437C52.2939 37.6126 52.0709 38.0957 51.8108 38.3558C51.5506 38.6159 51.179 38.7274 50.6959 38.7274C50.4729 38.7274 50.25 38.6903 50.027 38.616V37.7612C50.2128 37.8355 50.3986 37.8727 50.5473 37.8727C50.7702 37.8727 50.956 37.7612 51.1047 37.5011C51.2533 37.241 51.3648 36.6835 51.5506 35.8288C51.6993 34.9741 51.8851 33.7849 52.1081 32.2612H56.233V38.616H56.1959Z" fill="white"/>
<path d="M63.294 36.7207C63.294 37.3524 63.071 37.8355 62.5879 38.1328C62.1048 38.4673 61.4359 38.616 60.544 38.616H58.3514V32.2612H59.5035V34.8626H60.5068C61.3987 34.8626 62.1048 35.0112 62.5507 35.3457C63.071 35.643 63.294 36.1261 63.294 36.7207ZM59.5406 37.7612H60.5068C61.0271 37.7612 61.4359 37.6869 61.696 37.5011C61.9933 37.3524 62.1048 37.0552 62.1048 36.7207C62.1048 36.3862 61.9562 36.1261 61.696 35.9774C61.4359 35.8288 60.99 35.7544 60.3582 35.7544H59.5035V37.7612H59.5406Z" fill="white"/>
<path d="M74.182 35.4202C74.182 36.4607 73.8847 37.2783 73.3273 37.8357C72.7698 38.3932 71.9523 38.6904 70.8746 38.6904C69.7969 38.6904 68.9793 38.3932 68.4219 37.8357C67.8645 37.2783 67.5671 36.4607 67.5671 35.4202C67.5671 34.3797 67.8645 33.5621 68.4219 33.0047C69.0165 32.4472 69.834 32.1499 70.8746 32.1499C71.9151 32.1499 72.7327 32.4472 73.3273 33.0047C73.8847 33.5992 74.182 34.3797 74.182 35.4202ZM68.7564 35.4202C68.7564 36.2006 68.9422 36.7952 69.2766 37.2039C69.6111 37.6127 70.1685 37.7985 70.8374 37.7985C71.5435 37.7985 72.0266 37.6127 72.3982 37.2039C72.7698 36.7952 72.9185 36.2006 72.9185 35.4202C72.9185 34.6398 72.7327 34.0452 72.3982 33.6364C72.0638 33.2276 71.5435 33.0418 70.8374 33.0418C70.1313 33.0418 69.6111 33.2276 69.2766 33.6364C68.9422 34.0452 68.7564 34.6398 68.7564 35.4202Z" fill="white"/>
<path d="M81.577 38.616H80.425V35.7544H77.1547V38.616H76.0027V32.2612H77.1547V34.8626H80.425V32.2612H81.577V38.616Z" fill="white"/>
<path d="M89.0468 38.616H87.8948V33.1531H85.8881C85.6279 35.0112 85.4421 36.2747 85.2935 36.9437C85.1448 37.6126 84.9218 38.0957 84.6617 38.3558C84.4016 38.6159 84.0299 38.7274 83.5468 38.7274C83.3238 38.7274 83.1009 38.6903 82.8779 38.616V37.7612C83.0637 37.8355 83.2496 37.8727 83.3982 37.8727C83.6212 37.8727 83.807 37.7612 83.9556 37.5011C84.1043 37.241 84.2158 36.6835 84.4016 35.8288C84.5502 34.9741 84.736 33.7849 84.959 32.2612H89.084V38.616H89.0468Z" fill="white"/>
<path d="M95.6249 38.616L94.9188 36.8322H92.206L91.4999 38.616H90.2736L92.9121 32.2241H94.1756L96.8141 38.616H95.6249ZM94.6215 35.9775L93.9526 34.2309C93.9154 34.1194 93.8411 33.9336 93.7668 33.6735C93.6924 33.4133 93.6181 33.2275 93.581 33.116C93.5066 33.4876 93.358 33.8593 93.2093 34.3052L92.5776 35.9775H94.6215Z" fill="white"/>
<path d="M98.0772 32.2614H99.1549V35.5688C99.1549 35.9032 99.1549 36.2749 99.1178 36.6093C99.0806 36.9438 99.0806 37.2039 99.0806 37.3154H99.1178L102.723 32.2242H104.06V38.5789H102.983V35.3086C102.983 34.7884 103.02 34.1938 103.057 33.4877H103.02L99.3779 38.6161H98.04V32.2614H98.0772ZM101.125 31.7411C100.456 31.7411 99.9353 31.6296 99.638 31.4066C99.3036 31.1836 99.1549 30.812 99.1178 30.2917H100.158C100.195 30.5147 100.233 30.6634 100.307 30.7749C100.381 30.8864 100.493 30.9607 100.604 31.035C100.753 31.0722 100.939 31.1093 101.199 31.1093C101.533 31.1093 101.756 31.035 101.905 30.9235C102.054 30.812 102.165 30.589 102.202 30.2917H103.243C103.206 30.7749 102.983 31.1465 102.648 31.4066C102.277 31.6296 101.793 31.7411 101.125 31.7411Z" fill="white"/>
<path d="M111.828 38.616H110.676V35.7544H107.405V38.616H106.253V32.2612H107.405V34.8626H110.676V32.2612H111.828V38.616Z" fill="white"/>
<path d="M103.67 15.4493H95.8363V26.0674H92.2722V0.227539H104.895C111.764 0.227539 113.694 4.16293 113.694 7.8013C113.694 10.6972 112.098 14.0385 107.531 14.9667L114.585 26.0674H110.427L103.67 15.4493ZM95.8735 12.4792H104.375C108.645 12.4792 109.981 10.2145 109.981 7.8013C109.981 5.38809 108.645 3.23477 104.413 3.23477H95.8735V12.4792Z" fill="white"/>
<path d="M121.136 0.227539V15.635C121.136 20.2386 124.144 23.6914 129.416 23.6914C134.687 23.6914 137.658 20.2757 137.658 15.635V0.227539H141.259V15.8206C141.259 22.2063 136.989 26.7728 129.416 26.7728C121.767 26.7728 117.572 22.2434 117.572 15.8206V0.227539H121.136V0.227539Z" fill="white"/>
<path d="M87.8722 0.227539H74.6722V13.4275H87.8722V0.227539Z" fill="#FF8E78"/>
<path d="M74.6722 0.227539H61.4722V13.4275H74.6722V0.227539Z" fill="#FF0013"/>
<path d="M61.4727 26.6274L74.6727 26.6274L74.6727 13.4275L61.4727 13.4275L61.4727 26.6274Z" fill="#CC0019"/>
<path d="M74.6727 26.6274L87.8727 26.6274L87.8727 13.4275L74.6727 13.4275L74.6727 26.6274Z" fill="#FF0013"/>
</svg>
