<svg width="160" height="40" viewBox="0 0 160 40" fill="none" xmlns="http://www.w3.org/2000/svg">
<path d="M23.8389 19.8363V25.9764H0.0415344V19.8363H8.02025V11.025C6.63265 12.3779 4.16967 12.7595 2.22703 12.7595H0.249666V5.8909H1.39446C5.1063 5.8909 8.05494 4.46859 9.26909 1.65869H16.5887V19.8363H23.8389Z" fill="white"/>
<path d="M52.1462 17.963C52.1462 23.3747 46.8732 26.809 38.5476 26.809C29.6323 26.809 24.7757 22.5074 24.7757 14.5981C24.7757 6.34187 29.9792 1.65869 39.2414 1.65869C45.9019 1.65869 50.5851 3.98292 51.9033 8.11103L43.1267 9.08237C42.537 7.90291 41.0453 7.27851 38.8598 7.27851C35.4949 7.27851 33.5869 8.87422 33.136 11.9269C35.1133 10.4006 37.7151 9.63741 40.9066 9.63741C48.1568 9.60272 52.1462 12.6208 52.1462 17.963ZM43.3695 17.9977C43.3695 15.9857 41.7738 14.8062 38.9639 14.8062C36.6397 14.8062 34.7317 15.6735 33.4482 17.2345C34.1073 19.9057 35.7377 21.2239 38.5476 21.2239C41.3922 21.1892 43.3695 19.9057 43.3695 17.9977Z" fill="white"/>
<path d="M77.9552 19.8363V25.9764H54.1578V19.8363H62.1366V11.025C60.749 12.3779 58.286 12.7595 56.3433 12.7595H54.366V5.8909H55.5108C59.2226 5.8909 62.1712 4.46859 63.3854 1.65869H70.705V19.8363H77.9552Z" fill="white"/>
<path d="M4.51613 33.3659C4.51613 33.9903 4.2733 34.476 3.82233 34.7882C3.37136 35.1351 2.71225 35.2738 1.87969 35.2738H1.18589V37.494H0.110504V31.562H2.01846C2.85102 31.562 3.47541 31.7007 3.89169 32.013C4.30797 32.3252 4.51613 32.7761 4.51613 33.3659ZM1.22057 34.4759H1.81028C2.36533 34.4759 2.78161 34.3719 3.02444 34.1984C3.26727 34.025 3.40606 33.7475 3.40606 33.4006C3.40606 33.0537 3.30199 32.8108 3.05916 32.6374C2.81633 32.4639 2.4694 32.3945 1.98373 32.3945H1.22057V34.4759Z" fill="white"/>
<path d="M11.9744 34.5105C11.9744 35.4818 11.6968 36.245 11.1765 36.7654C10.6214 37.2857 9.89294 37.5632 8.88693 37.5632C7.88091 37.5632 7.11774 37.2857 6.59739 36.7654C6.07704 36.245 5.7995 35.4818 5.7995 34.5105C5.7995 33.5392 6.07704 32.776 6.59739 32.2557C7.15243 31.7353 7.9156 31.4578 8.88693 31.4578C9.85825 31.4578 10.6214 31.7353 11.1765 32.2557C11.7315 32.8107 11.9744 33.5392 11.9744 34.5105ZM6.94429 34.5105C6.94429 35.239 7.11775 35.794 7.42996 36.1756C7.74217 36.5572 8.2625 36.7306 8.88693 36.7306C9.54604 36.7306 9.99703 36.5572 10.3439 36.1756C10.6561 35.794 10.8296 35.239 10.8296 34.5105C10.8296 33.782 10.6561 33.227 10.3439 32.8454C10.0317 32.4638 9.54604 32.2903 8.88693 32.2903C8.22781 32.2903 7.74217 32.4638 7.42996 32.8454C7.11775 33.227 6.94429 33.782 6.94429 34.5105Z" fill="white"/>
<path d="M16.4842 32.2903C15.8598 32.2903 15.3742 32.4985 15.0273 32.8801C14.6804 33.2617 14.5069 33.8167 14.5069 34.5105C14.5069 35.239 14.6804 35.794 15.0273 36.1756C15.3742 36.5572 15.8598 36.7306 16.5189 36.7306C16.7964 36.7306 17.074 36.696 17.3168 36.6613C17.5943 36.6266 17.8372 36.5572 18.1494 36.4532V37.2857C17.629 37.4592 17.0393 37.5632 16.3802 37.5632C15.4088 37.5632 14.6804 37.2857 14.16 36.7654C13.6397 36.245 13.3968 35.4818 13.3968 34.5105C13.3968 33.8861 13.5356 33.3657 13.7784 32.8801C14.0212 32.3944 14.4029 32.0475 14.8538 31.8047C15.3395 31.5618 15.8945 31.4231 16.5189 31.4231C17.178 31.4231 17.8025 31.5618 18.3922 31.8047L18.0106 32.6026C17.8025 32.4985 17.5596 32.4291 17.3168 32.3597C17.0393 32.3597 16.7618 32.2903 16.4842 32.2903Z" fill="white"/>
<path d="M22.1039 37.494H21.0285V32.3945H19.0858V31.562H24.0465V32.3945H22.1039V37.494V37.494Z" fill="white"/>
<path d="M31.228 34.5105C31.228 35.4818 30.9505 36.245 30.4301 36.7654C29.9098 37.2857 29.1466 37.5632 28.1406 37.5632C27.1346 37.5632 26.3714 37.2857 25.851 36.7654C25.3307 36.245 25.0531 35.4818 25.0531 34.5105C25.0531 33.5392 25.3307 32.776 25.851 32.2557C26.4061 31.7353 27.1693 31.4578 28.1406 31.4578C29.1119 31.4578 29.8751 31.7353 30.4301 32.2557C30.9505 32.8107 31.228 33.5392 31.228 34.5105ZM26.1633 34.5105C26.1633 35.239 26.3367 35.794 26.6489 36.1756C26.9611 36.5572 27.4815 36.7306 28.1059 36.7306C28.765 36.7306 29.216 36.5572 29.5629 36.1756C29.9098 35.794 30.0485 35.239 30.0485 34.5105C30.0485 33.782 29.8751 33.227 29.5629 32.8454C29.2506 32.4638 28.765 32.2903 28.1059 32.2903C27.4468 32.2903 26.9611 32.4638 26.6489 32.8454C26.3367 33.227 26.1633 33.782 26.1633 34.5105Z" fill="white"/>
<path d="M32.9271 31.562H34.9045C35.8064 31.562 36.4655 31.6661 36.8818 31.9089C37.2981 32.1517 37.5062 32.5333 37.5062 33.0537C37.5062 33.4006 37.4021 33.6781 37.194 33.9209C36.9859 34.1637 36.7083 34.3025 36.3267 34.3719V34.4066C36.7777 34.476 37.1246 34.6494 37.3674 34.8576C37.5756 35.1004 37.6797 35.4126 37.6797 35.7942C37.6797 36.3145 37.4715 36.7308 37.0553 37.043C36.639 37.3552 36.0493 37.494 35.3208 37.494H32.9271V31.562ZM34.0025 34.025H35.0432C35.4942 34.025 35.8411 33.9556 36.0492 33.8169C36.2574 33.6781 36.3615 33.47 36.3615 33.1577C36.3615 32.8802 36.2574 32.6721 36.0146 32.568C35.8064 32.4292 35.4248 32.3945 34.9391 32.3945H34.0025V34.025V34.025ZM34.0025 34.7882V36.6614H35.1473C35.5983 36.6614 35.9452 36.5921 36.188 36.4186C36.4308 36.2799 36.5349 36.0023 36.5349 35.6901C36.5349 35.3779 36.4308 35.1351 36.188 34.9963C35.9452 34.8575 35.5983 34.7882 35.1126 34.7882H34.0025V34.7882Z" fill="white"/>
<path d="M38.7556 35.6899V34.8921H41.0799V35.6899H38.7556Z" fill="white"/>
<path d="M47.7748 37.494H46.6995V34.8228H43.6468V37.494H42.5713V31.562H43.6468V33.9903H46.6995V31.562H47.7748V37.494Z" fill="white"/>
<path d="M53.9145 37.4938L53.2554 35.8287H50.723L50.0639 37.4938H48.9192L51.3821 31.5271H52.5616L55.0246 37.4938H53.9145ZM52.9432 35.0308L52.3188 33.4004C52.2841 33.2963 52.2147 33.1229 52.1454 32.88C52.076 32.6372 52.0066 32.4637 51.9719 32.3597C51.9025 32.7066 51.7638 33.0535 51.625 33.4698L51.0352 35.0308H52.9432Z" fill="white"/>
<path d="M55.6491 35.6899V34.8921H57.9734V35.6899H55.6491Z" fill="white"/>
<path d="M58.6324 36.6612H59.1528C59.6038 35.9328 59.9507 35.1349 60.2629 34.2329C60.5751 33.331 60.7486 32.429 60.8179 31.5271H64.2175V36.6266H65.0848V39.0895H64.0441V37.4591H59.6731V39.0895H58.6324V36.6612ZM61.7199 32.3944C61.6505 33.0188 61.477 33.7126 61.1995 34.5452C60.922 35.343 60.6098 36.0715 60.2629 36.6612H63.1422V32.3944H61.7199Z" fill="white"/>
<path d="M72.3007 34.5105C72.3007 35.4818 72.0232 36.245 71.5028 36.7654C70.9825 37.2857 70.2193 37.5632 69.2133 37.5632C68.2073 37.5632 67.4441 37.2857 66.9238 36.7654C66.4034 36.245 66.1259 35.4818 66.1259 34.5105C66.1259 33.5392 66.4034 32.776 66.9238 32.2557C67.4788 31.7353 68.242 31.4578 69.2133 31.4578C70.1846 31.4578 70.9478 31.7353 71.5028 32.2557C72.0232 32.8107 72.3007 33.5392 72.3007 34.5105ZM67.2707 34.5105C67.2707 35.239 67.4441 35.794 67.7563 36.1756C68.0685 36.5572 68.5889 36.7306 69.2133 36.7306C69.8724 36.7306 70.3234 36.5572 70.6703 36.1756C71.0172 35.794 71.1559 35.239 71.1559 34.5105C71.1559 33.782 70.9825 33.227 70.6703 32.8454C70.3581 32.4638 69.8724 32.2903 69.2133 32.2903C68.5542 32.2903 68.0685 32.4638 67.7563 32.8454C67.4094 33.227 67.2707 33.782 67.2707 34.5105Z" fill="white"/>
<path d="M79.2041 37.494H78.1287V34.8228H75.076V37.494H74.0006V31.562H75.076V33.9903H78.1287V31.562H79.2041V37.494Z" fill="white"/>
<path d="M86.2455 31.562L84.1641 35.7942C83.9212 36.3145 83.6784 36.6961 83.4703 36.9042C83.2621 37.1471 83.0193 37.3205 82.7418 37.4246C82.4643 37.5287 82.1174 37.598 81.7011 37.598C81.3542 37.598 81.042 37.5634 80.7298 37.4593V36.5921C81.042 36.6961 81.3195 36.7655 81.6664 36.7655C81.9439 36.7655 82.1868 36.6961 82.3602 36.5921C82.5337 36.488 82.7071 36.2452 82.8806 35.933L80.4523 31.562H81.6317L83.2621 34.5453C83.4009 34.8229 83.505 35.031 83.5397 35.1004H83.5744C83.6091 35.031 83.6438 34.9269 83.7131 34.7535L85.2048 31.562H86.2455V31.562Z" fill="white"/>
<path d="M95.959 34.5105C95.959 35.4818 95.6815 36.245 95.1612 36.7654C94.6408 37.2857 93.8776 37.5632 92.8716 37.5632C91.8656 37.5632 91.1024 37.2857 90.582 36.7654C90.0617 36.245 89.7842 35.4818 89.7842 34.5105C89.7842 33.5392 90.0617 32.776 90.582 32.2557C91.1371 31.7353 91.9003 31.4578 92.8716 31.4578C93.8429 31.4578 94.6061 31.7353 95.1612 32.2557C95.6815 32.8107 95.959 33.5392 95.959 34.5105ZM90.9289 34.5105C90.9289 35.239 91.1024 35.794 91.4146 36.1756C91.7268 36.5572 92.2472 36.7306 92.8716 36.7306C93.5307 36.7306 93.9817 36.5572 94.3286 36.1756C94.6755 35.794 94.8143 35.239 94.8143 34.5105C94.8143 33.782 94.6408 33.227 94.3286 32.8454C94.0164 32.4638 93.5307 32.2903 92.8716 32.2903C92.2125 32.2903 91.7268 32.4638 91.4146 32.8454C91.0677 33.227 90.9289 33.782 90.9289 34.5105Z" fill="white"/>
<path d="M102.862 37.494H101.787V34.8228H98.7343V37.494H97.659V31.562H98.7343V33.9903H101.787V31.562H102.862V37.494Z" fill="white"/>
<path d="M109.835 37.494H108.76V32.3945H106.886C106.644 34.129 106.47 35.3085 106.331 35.933C106.193 36.5574 105.985 37.0083 105.742 37.2511C105.499 37.494 105.152 37.598 104.701 37.598C104.493 37.598 104.285 37.5634 104.077 37.494V36.6961C104.25 36.7655 104.423 36.8002 104.562 36.8002C104.77 36.8002 104.944 36.6961 105.083 36.4533C105.221 36.2105 105.325 35.6901 105.499 34.8922C105.638 34.0944 105.811 32.9843 106.019 31.562H109.87V37.494H109.835Z" fill="white"/>
<path d="M115.976 37.4938L115.316 35.8287H112.784L112.125 37.4938H110.98L113.443 31.5271H114.623L117.086 37.4938H115.976ZM115.039 35.0308L114.414 33.4004C114.38 33.2963 114.31 33.1229 114.241 32.88C114.172 32.6372 114.102 32.4637 114.068 32.3597C113.998 32.7066 113.859 33.0535 113.721 33.4698L113.131 35.0308H115.039Z" fill="white"/>
<path d="M118.265 31.562H119.271V34.6494C119.271 34.9616 119.271 35.3085 119.236 35.6207C119.201 35.9329 119.201 36.1757 119.201 36.2798H119.236L122.601 31.5273H123.85V37.4593H122.844V34.4065C122.844 33.9209 122.879 33.3658 122.913 32.7067H122.879L119.479 37.494H118.23V31.562H118.265ZM121.109 31.0763C120.485 31.0763 119.999 30.9722 119.722 30.7641C119.444 30.556 119.271 30.209 119.236 29.7234H120.207C120.242 29.9315 120.277 30.0703 120.346 30.1744C120.416 30.2784 120.52 30.3478 120.624 30.4172C120.762 30.4519 120.936 30.4866 121.179 30.4866C121.491 30.4866 121.699 30.4172 121.838 30.3131C121.977 30.209 122.081 30.0009 122.115 29.7234H123.087C123.052 30.1744 122.844 30.5213 122.532 30.7641C122.219 30.9722 121.734 31.0763 121.109 31.0763Z" fill="white"/>
<path d="M131.1 37.494H130.024V34.8228H126.972V37.494H125.896V31.562H126.972V33.9903H130.024V31.562H131.1V37.494Z" fill="white"/>
<path d="M123.414 15.3883H115.798V25.7115H112.333V0.589355H124.606C131.283 0.589355 133.16 4.41543 133.16 7.95274C133.16 10.7681 131.608 14.0167 127.168 14.9191L134.026 25.7115H129.984L123.414 15.3883ZM115.834 12.5007H124.1C128.251 12.5007 129.551 10.2989 129.551 7.95274C129.551 5.60656 128.251 3.51305 124.136 3.51305H115.834V12.5007Z" fill="white"/>
<path d="M140.396 0.589355V15.5688C140.396 20.0446 143.319 23.4014 148.445 23.4014C153.57 23.4014 156.458 20.0807 156.458 15.5688V0.589355H159.959V15.7493C159.959 21.9576 155.808 26.3973 148.445 26.3973C141.009 26.3973 136.93 21.9937 136.93 15.7493V0.589355H140.396V0.589355Z" fill="white"/>
<path d="M108.055 0.589355H95.2222V13.4227H108.055V0.589355Z" fill="#FF8E78"/>
<path d="M95.2221 0.589355H82.3888V13.4227H95.2221V0.589355Z" fill="#FF0013"/>
<path d="M82.3892 26.2561L95.2226 26.2561L95.2226 13.4228L82.3892 13.4228L82.3892 26.2561Z" fill="#CC0019"/>
<path d="M95.2226 26.2561L108.056 26.2561L108.056 13.4228L95.2226 13.4228L95.2226 26.2561Z" fill="#FF0013"/>
</svg>
