<svg width="166" height="39" viewBox="0 0 166 39" fill="none" xmlns="http://www.w3.org/2000/svg">
<path d="M25.1309 20.3135V26.7483H0.191284V20.3135H8.55294V11.0793C7.09874 12.4971 4.51755 12.897 2.48167 12.897H0.409428V5.69877H1.60914C5.49913 5.69877 8.58931 4.20818 9.86174 1.26343H17.5326V20.3135H25.1309Z" fill="white"/>
<path d="M51.961 20.3135V26.7483H27.0215V20.3135H35.3831V11.0793C33.9289 12.4971 31.3477 12.897 29.3118 12.897H27.2396V5.69877H28.4393C32.3293 5.69877 35.4195 4.20818 36.6919 1.26343H44.3628V20.3135H51.961Z" fill="white"/>
<path d="M81.5903 18.1685C81.5903 23.9489 76.0643 27.6208 67.3391 27.6208C57.9958 27.6208 52.9061 23.0037 52.9061 14.5694C52.9061 5.4806 58.3594 0.427246 68.0662 0.427246C75.0464 0.427246 79.9543 3.00843 81.3358 7.62551L72.138 8.67982C71.5199 7.0802 69.9567 6.31674 67.6663 6.31674C64.0671 6.31674 61.9949 8.17087 61.6313 11.8427C63.7036 10.1704 66.4302 9.26149 69.8112 9.26149C77.4094 9.18878 81.5903 12.4244 81.5903 18.1685ZM72.3561 18.2049C72.3561 15.9508 70.6838 14.642 67.739 14.642C65.3032 14.642 63.3037 15.6236 61.9585 17.405C62.6493 20.3498 64.3943 21.7313 67.3027 21.7313C70.3202 21.7313 72.3561 20.3134 72.3561 18.2049Z" fill="white"/>
<path d="M128.316 16.2412H120.645V26.6388H117.155V1.33569H129.516C136.241 1.33569 138.132 5.18933 138.132 8.75213C138.132 11.5878 136.568 14.8597 132.097 15.7686L139.004 26.6388H134.932L128.316 16.2412ZM120.681 13.3692H129.007C133.187 13.3692 134.496 11.1515 134.496 8.78847C134.496 6.4254 133.187 4.31679 129.043 4.31679H120.681V13.3692Z" fill="white"/>
<path d="M145.439 1.33569V16.423C145.439 20.931 148.384 24.312 153.546 24.312C158.709 24.312 161.617 20.9674 161.617 16.423V1.33569H165.143V16.6048C165.143 22.8579 160.963 27.3295 153.546 27.3295C146.057 27.3295 141.949 22.8942 141.949 16.6048V1.33569H145.439Z" fill="white"/>
<path d="M6.18991 38.8178H4.88113L2.04545 35.6549V38.8178H0.88208V32.6011H2.00908V35.6185L4.80842 32.6011H6.0445L3.24516 35.6185L6.18991 38.8178Z" fill="white"/>
<path d="M11.7158 38.818L11.0251 37.0729H8.37116L7.68042 38.818H6.48071L9.06191 32.5649H10.298L12.8792 38.818H11.7158ZM10.6979 36.2368L10.0435 34.5281C10.0071 34.419 9.93444 34.2372 9.86173 33.9828C9.78902 33.7283 9.71631 33.5465 9.67995 33.4374C9.60724 33.801 9.46182 34.1646 9.3164 34.6008L8.69836 36.2368H10.6979Z" fill="white"/>
<path d="M18.5143 34.0553C18.5143 34.4552 18.3689 34.7823 18.078 35.0368C17.7872 35.2913 17.3509 35.4731 16.842 35.5458V35.5822C17.46 35.6549 17.8963 35.8003 18.2234 36.0548C18.5506 36.3093 18.6961 36.6364 18.6961 37.0727C18.6961 37.6544 18.4416 38.0907 17.9326 38.4179C17.4236 38.7451 16.7329 38.8904 15.8604 38.8904C14.9515 38.8904 14.188 38.7814 13.6427 38.5633V37.6908C13.9335 37.8362 14.2971 37.9089 14.6607 37.9816C15.0242 38.0543 15.3877 38.0907 15.7149 38.0907C16.9147 38.0907 17.5327 37.7271 17.5327 37C17.5327 36.6728 17.3509 36.4183 16.9874 36.2366C16.6238 36.0548 16.0785 35.982 15.3514 35.982H14.5152V35.1823H15.315C16.6965 35.1823 17.3873 34.8551 17.3873 34.2007C17.3873 33.9462 17.2782 33.728 17.0237 33.5826C16.8056 33.4372 16.4421 33.3645 16.0421 33.3645C15.715 33.3645 15.3877 33.4009 15.0969 33.4736C14.8061 33.5463 14.4789 33.6917 14.1517 33.8735L13.6427 33.1827C14.3698 32.7465 15.206 32.5283 16.1512 32.5283C16.8783 32.5283 17.46 32.6738 17.8962 32.9646C18.2962 33.2191 18.5143 33.5826 18.5143 34.0553Z" fill="white"/>
<path d="M24.6582 38.818L23.9675 37.0729H21.3136L20.6228 38.818H19.4231L22.0043 32.5649H23.2404L25.8216 38.818H24.6582ZM23.6766 36.2368L23.0223 34.5281C22.9859 34.419 22.9132 34.2372 22.8405 33.9828C22.7678 33.7283 22.6951 33.5465 22.6587 33.4374C22.586 33.801 22.4406 34.1646 22.2952 34.6008L21.6771 36.2368H23.6766Z" fill="white"/>
<path d="M32.5473 38.8178H31.4203V36.0185H28.2211V38.8178H27.0577V32.6011H28.1847V35.1459H31.384V32.6011H32.511V38.8178H32.5473Z" fill="white"/>
<path d="M39.4911 36.9637C39.4911 37.5817 39.273 38.0543 38.8003 38.3451C38.3277 38.636 37.6733 38.8178 36.8008 38.8178H34.6559V32.6011H35.7829V35.1459H36.7645C37.637 35.1459 38.3277 35.2913 38.764 35.6185C39.2003 35.9457 39.4911 36.382 39.4911 36.9637ZM35.7829 37.9816H36.7281C37.2371 37.9816 37.637 37.9089 37.8915 37.7271C38.1823 37.5817 38.2914 37.2909 38.2914 36.9637C38.2914 36.6365 38.146 36.382 37.8915 36.2366C37.637 36.0912 37.2007 36.0185 36.5827 36.0185H35.7829V37.9816Z" fill="white"/>
<path d="M50.1068 35.6912C50.1068 36.7091 49.816 37.509 49.2707 38.0543C48.689 38.5996 47.9255 38.8904 46.8712 38.8904C45.8169 38.8904 45.0171 38.5996 44.4718 38.0543C43.9265 37.509 43.6356 36.7091 43.6356 35.6912C43.6356 34.6733 43.9265 33.8735 44.4718 33.3281C45.0171 32.7828 45.8533 32.4919 46.8712 32.4919C47.8892 32.4919 48.689 32.7828 49.2707 33.3281C49.8523 33.8735 50.1068 34.6733 50.1068 35.6912ZM44.8354 35.6912C44.8354 36.4547 45.0171 37.0363 45.3443 37.4362C45.6715 37.8361 46.2168 38.0179 46.8712 38.0179C47.562 38.0179 48.0346 37.8361 48.3981 37.4362C48.7253 37.0363 48.9071 36.4547 48.9071 35.6912C48.9071 34.9277 48.7253 34.346 48.3981 33.9461C48.0709 33.5462 47.562 33.3645 46.8712 33.3645C46.1805 33.3645 45.6715 33.5462 45.3443 33.9461C44.9808 34.346 44.8354 34.9277 44.8354 35.6912Z" fill="white"/>
<path d="M57.3414 38.8178H56.2144V36.0185H53.0152V38.8178H51.8882V32.6011H53.0152V35.1459H56.2144V32.6011H57.3414V38.8178Z" fill="white"/>
<path d="M64.6851 38.8178H63.5581V33.4736H61.5949C61.3404 35.2914 61.1586 36.5274 61.0132 37.1818C60.8678 37.8362 60.6497 38.3088 60.3952 38.5633C60.1407 38.8178 59.7771 38.9269 59.3045 38.9269C59.0864 38.9269 58.8683 38.8905 58.6501 38.8178V37.9816C58.8319 38.0543 59.0137 38.0907 59.1591 38.0907C59.3772 38.0907 59.559 37.9816 59.7044 37.7271C59.8498 37.4726 59.9589 36.9273 60.1407 36.0911C60.2861 35.255 60.4679 34.0916 60.686 32.6011H64.7214V38.8178H64.6851Z" fill="white"/>
<path d="M71.0836 38.818L70.3929 37.0729H67.739L67.0482 38.818H65.8485L68.4297 32.5649H69.6658L72.247 38.818H71.0836ZM70.1021 36.2368L69.4476 34.5281C69.4113 34.419 69.3386 34.2372 69.2659 33.9828C69.1932 33.7283 69.1205 33.5465 69.0841 33.4374C69.0114 33.801 68.866 34.1646 68.7205 34.6008L68.1025 36.2368H70.1021Z" fill="white"/>
<path d="M73.4832 32.6009H74.5374V35.8365C74.5374 36.1637 74.5374 36.5272 74.5011 36.8544C74.4647 37.1816 74.4647 37.4361 74.4647 37.5452H74.5011L78.0275 32.5646H79.3363V38.7813H78.3184V35.582C78.3184 35.073 78.3547 34.4913 78.3911 33.8006H78.3547L74.7919 38.8176H73.4832V32.6009ZM76.4643 32.0919C75.8099 32.0919 75.3009 31.9829 75.0101 31.7647C74.6829 31.5466 74.5374 31.183 74.5011 30.6741H75.519C75.5554 30.8922 75.5917 31.0376 75.6645 31.1467C75.7372 31.2558 75.8462 31.3285 75.9553 31.4012C76.1007 31.4375 76.2825 31.4739 76.537 31.4739C76.8642 31.4739 77.0823 31.4012 77.2277 31.2921C77.3731 31.1831 77.4822 30.9649 77.5186 30.6741H78.5365C78.5001 31.1467 78.282 31.5102 77.9548 31.7647C77.6276 31.9829 77.1187 32.0919 76.4643 32.0919Z" fill="white"/>
<path d="M86.9345 38.8178H85.8074V36.0185H82.6082V38.8178H81.4812V32.6011H82.6082V35.1459H85.8074V32.6011H86.9345V38.8178Z" fill="white"/>
<path d="M112.391 0.426758H85.9913V26.8267H112.391V0.426758Z" fill="#FF0013"/>
<path d="M112.391 0.426758H99.1914V13.6267H112.391V0.426758Z" fill="#FF8E78"/>
<path d="M85.9914 26.8267L99.1914 26.8267L99.1914 13.6267L85.9914 13.6267L85.9914 26.8267Z" fill="#CC0019"/>
</svg>
