<svg width="138" height="40" viewBox="0 0 138 40" fill="none" xmlns="http://www.w3.org/2000/svg">
<path d="M28.2208 13.229C28.2208 21.9822 23.0247 26.8993 13.6787 26.8993C6.98306 26.8993 2.27519 24.1443 0.915137 19.4713L9.73805 18.46C10.3658 19.8898 11.8653 21.0755 14.0623 21.0755C17.6543 21.0755 19.6071 19.1575 19.8861 15.6702C18.0727 17.0302 15.5619 17.6579 12.0746 17.6579C4.78606 17.6579 0.671021 14.6937 0.671021 9.35813C0.671021 3.95279 5.97174 0.779297 13.9228 0.779297C23.1642 0.81417 28.2208 5.10359 28.2208 13.229ZM19.6769 10.23C19.1538 7.71909 17.3055 6.11491 14.1669 6.11491C11.3073 6.11491 9.56368 7.26573 9.56368 9.39299C9.56368 11.2064 11.2725 12.4618 13.9577 12.4618C16.7127 12.4618 18.5261 11.5551 19.6769 10.23Z" fill="white"/>
<path d="M29.9833 17.9367L38.8062 17.2741C38.7713 20.1686 40.8288 21.2497 43.6884 21.2497C46.4783 21.2497 48.2917 20.4127 48.2917 18.5295C48.2917 16.9603 47.2455 16.0884 43.9674 16.0884H41.2473V11.5201H43.9325C46.8619 11.5201 48.0476 10.6831 48.0476 9.18357C48.0476 7.50966 46.4783 6.49831 43.6884 6.49831C40.8637 6.49831 38.8759 7.47478 38.8759 10.439L30.1228 9.70667C30.1228 4.47569 35.0399 0.848877 43.5838 0.848877C51.8488 0.848877 57.01 3.42948 57.01 8.38147C57.01 11.9037 54.1504 13.2637 50.942 13.5776C55.2663 14.1355 57.4633 16.0536 57.4633 19.3665C57.4633 24.0744 51.8139 26.934 43.6187 26.934C35.2142 26.8991 30.053 23.6908 29.9833 17.9367Z" fill="white"/>
<path d="M102.085 16.0192H94.727V25.9929H91.3792V1.72119H103.236C109.688 1.72119 111.501 5.41775 111.501 8.83532C111.501 11.5554 110.001 14.694 105.712 15.5658L112.338 25.9929H108.432L102.085 16.0192ZM94.7618 13.2642H102.748C106.758 13.2642 108.014 11.1369 108.014 8.87019C108.014 6.60343 106.758 4.58077 102.783 4.58077H94.7618V13.2642Z" fill="white"/>
<path d="M118.51 1.72119V16.1936C118.51 20.5178 121.335 23.761 126.287 23.761C131.239 23.761 134.029 20.5527 134.029 16.1936V1.72119H137.412V16.3679C137.412 22.3661 133.401 26.6555 126.287 26.6555C119.103 26.6555 115.163 22.401 115.163 16.3679V1.72119H118.51Z" fill="white"/>
<path d="M7.15752 37.6755H5.90209L3.18199 34.6415V37.6755H2.06604V31.7122H3.1471V34.6066L5.83234 31.7122H7.01804L4.3328 34.6066L7.15752 37.6755Z" fill="white"/>
<path d="M12.7371 33.5255C12.7371 34.1533 12.493 34.6415 12.0396 34.9553C11.5863 35.2692 10.9237 35.4436 10.0868 35.4436H9.38929V37.6755H8.30823V31.7122H10.2263C11.0632 31.7122 11.6909 31.8516 12.1094 32.1655C12.5279 32.4793 12.7371 32.9327 12.7371 33.5255ZM9.42415 34.6415H10.017C10.575 34.6415 10.9934 34.5717 11.2376 34.3625C11.4817 34.1881 11.6212 33.9091 11.6212 33.5604C11.6212 33.2117 11.5166 32.9676 11.2724 32.7932C11.0283 32.6189 10.6796 32.5491 10.1914 32.5491H9.42415V34.6415Z" fill="white"/>
<path d="M18.4564 37.6754L17.7938 36.0015H15.2481L14.5855 37.6754H13.4347L15.9107 31.6772H17.0964L19.5724 37.6754H18.4564ZM17.5149 35.1994L16.8871 33.5604C16.8523 33.4557 16.7825 33.2814 16.7128 33.0373C16.643 32.7932 16.5733 32.6188 16.5384 32.5142C16.4687 32.8629 16.3292 33.2117 16.1897 33.6301L15.5968 35.1994H17.5149Z" fill="white"/>
<path d="M23.5827 32.4793C22.955 32.4793 22.4668 32.6885 22.118 33.0721C21.7693 33.4557 21.5949 34.0137 21.5949 34.7111C21.5949 35.4435 21.7693 36.0015 22.118 36.3851C22.4668 36.7687 22.955 36.943 23.6176 36.943C23.8966 36.943 24.1756 36.9081 24.4197 36.8733C24.6987 36.8384 24.9428 36.7686 25.2566 36.664V37.501C24.7335 37.6754 24.1407 37.78 23.4781 37.78C22.5017 37.78 21.7693 37.501 21.2462 36.9779C20.7231 36.4548 20.479 35.6876 20.479 34.7111C20.479 34.0834 20.6185 33.5603 20.8626 33.0721C21.1067 32.5839 21.4903 32.2351 21.9437 31.991C22.397 31.7469 22.9899 31.6074 23.6176 31.6074C24.2802 31.6074 24.9079 31.7469 25.5008 31.991L25.1171 32.7931C24.9079 32.6885 24.6638 32.6188 24.4197 32.549C24.1756 32.4793 23.8617 32.4793 23.5827 32.4793Z" fill="white"/>
<path d="M32.1964 37.6755H31.1153V34.9902H28.0465V37.6755H26.9655V31.7122H28.0465V34.1533H31.1153V31.7122H32.1964V37.6755Z" fill="white"/>
<path d="M40.1126 34.6763C40.1126 35.6527 39.8336 36.4199 39.3105 36.943C38.7525 37.4661 38.0202 37.7451 37.0089 37.7451C35.9976 37.7451 35.2303 37.4661 34.7072 36.943C34.1841 36.4199 33.9052 35.6527 33.9052 34.6763C33.9052 33.6998 34.1841 32.9326 34.7072 32.4095C35.2303 31.8864 36.0324 31.6074 37.0089 31.6074C37.9853 31.6074 38.7525 31.8864 39.3105 32.4095C39.8336 32.9675 40.1126 33.6998 40.1126 34.6763ZM35.056 34.6763C35.056 35.4086 35.2303 35.9666 35.5442 36.3502C35.8581 36.7338 36.3812 36.9082 37.0089 36.9082C37.6715 36.9082 38.1248 36.7338 38.4736 36.3502C38.7874 35.9666 38.9618 35.4086 38.9618 34.6763C38.9618 33.9439 38.7874 33.386 38.4736 33.0023C38.1597 32.6187 37.6715 32.4444 37.0089 32.4444C36.3463 32.4444 35.8581 32.6187 35.5442 33.0023C35.1955 33.386 35.056 33.9439 35.056 34.6763Z" fill="white"/>
<path d="M40.9845 36.8384H41.5076C41.9609 36.1061 42.3097 35.304 42.6235 34.3973C42.9374 33.4906 43.1118 32.5839 43.1815 31.6772H46.5991V36.8036H47.4709V39.2796H46.4247V37.6405H42.0307V39.2796H40.9845V36.8384ZM44.0882 32.5491C44.0185 33.1768 43.8441 33.8742 43.5651 34.7112C43.2861 35.5133 42.9723 36.2456 42.6235 36.8384H45.518V32.5491H44.0882Z" fill="white"/>
<path d="M52.9459 37.6754L52.2833 36.0015H49.7376L49.075 37.6754H47.9242L50.4002 31.6772H51.5859L54.0619 37.6754H52.9459ZM52.0044 35.1994L51.3766 33.5604C51.3418 33.4557 51.272 33.2814 51.2023 33.0373C51.1325 32.7932 51.0628 32.6188 51.0279 32.5142C50.9582 32.8629 50.8187 33.2117 50.6792 33.6301L50.0863 35.1994H52.0044Z" fill="white"/>
<path d="M59.6765 33.5255C59.6765 34.1533 59.4323 34.6415 58.979 34.9553C58.5256 35.2692 57.863 35.4436 57.0261 35.4436H56.3286V37.6755H55.2476V31.7122H57.1656C58.0025 31.7122 58.6303 31.8516 59.0487 32.1655C59.4672 32.4793 59.6765 32.9327 59.6765 33.5255ZM56.3635 34.6415H56.9564C57.5143 34.6415 57.9328 34.5717 58.1769 34.3625C58.421 34.1881 58.5605 33.9091 58.5605 33.5604C58.5605 33.2117 58.4559 32.9676 58.2118 32.7932C57.9677 32.6189 57.6189 32.5491 57.1307 32.5491H56.3635V34.6415Z" fill="white"/>
<path d="M69.8595 34.6763C69.8595 35.6527 69.5805 36.4199 69.0574 36.943C68.5343 37.4661 67.7671 37.7451 66.7558 37.7451C65.7445 37.7451 64.9773 37.4661 64.4542 36.943C63.9311 36.4199 63.6521 35.6527 63.6521 34.6763C63.6521 33.6998 63.9311 32.9326 64.4542 32.4095C65.0122 31.8864 65.7794 31.6074 66.7558 31.6074C67.7323 31.6074 68.4995 31.8864 69.0574 32.4095C69.6154 32.9326 69.8595 33.6998 69.8595 34.6763ZM64.8029 34.6763C64.8029 35.4086 64.9773 35.9666 65.2911 36.3502C65.605 36.7338 66.1281 36.9082 66.7558 36.9082C67.4184 36.9082 67.8717 36.7338 68.2205 36.3502C68.5692 35.9666 68.7087 35.4086 68.7087 34.6763C68.7087 33.9439 68.5343 33.386 68.2205 33.0023C67.9066 32.6187 67.4184 32.4444 66.7558 32.4444C66.0932 32.4444 65.605 32.6187 65.2911 33.0023C64.9773 33.386 64.8029 33.9439 64.8029 34.6763Z" fill="white"/>
<path d="M76.7991 37.6755H75.718V34.9902H72.6492V37.6755H71.5681V31.7122H72.6492V34.1533H75.718V31.7122H76.7991V37.6755Z" fill="white"/>
<path d="M83.8435 37.6755H82.7624V32.5491H80.8793C80.6352 34.2928 80.4608 35.4785 80.3213 36.1062C80.1818 36.7339 79.9726 37.1873 79.7285 37.4314C79.4843 37.6755 79.1356 37.7801 78.6823 37.7801C78.473 37.7801 78.2638 37.7452 78.0546 37.6755V36.8734C78.2289 36.9431 78.4033 36.978 78.5428 36.978C78.752 36.978 78.9264 36.8734 79.0659 36.6293C79.2054 36.3852 79.31 35.8621 79.4844 35.06C79.6238 34.2579 79.7982 33.142 80.0075 31.7122H83.8784V37.6755H83.8435Z" fill="white"/>
<path d="M89.9813 37.6754L89.3187 36.0015H86.773L86.1104 37.6754H84.9596L87.4356 31.6772H88.6213L91.0973 37.6754H89.9813ZM89.0398 35.1994L88.412 33.5604C88.3772 33.4557 88.3074 33.2814 88.2377 33.0373C88.1679 32.7932 88.0982 32.6188 88.0633 32.5142C87.9936 32.8629 87.8541 33.2117 87.7146 33.6301L87.1218 35.1994H89.0398Z" fill="white"/>
<path d="M92.2829 31.7121H93.2942V34.8158C93.2942 35.1296 93.2943 35.4783 93.2594 35.7922C93.2245 36.1061 93.2245 36.3502 93.2245 36.4548H93.2594L96.6421 31.6772H97.8975V37.6405H96.8862V34.5716C96.8862 34.0834 96.9211 33.5254 96.9559 32.8629H96.9211L93.5035 37.6754H92.248V31.7121H92.2829ZM95.1425 31.2238C94.5148 31.2238 94.0266 31.1192 93.7476 30.91C93.4338 30.7007 93.2943 30.352 93.2594 29.8638H94.2358C94.2707 30.073 94.3056 30.2125 94.3753 30.3171C94.445 30.4218 94.5497 30.4915 94.6543 30.5612C94.7938 30.5961 94.9682 30.631 95.2123 30.631C95.5261 30.631 95.7354 30.5613 95.8749 30.4566C96.0144 30.352 96.119 30.1428 96.1539 29.8638H97.1303C97.0954 30.3171 96.8862 30.6659 96.5723 30.91C96.2585 31.1541 95.7703 31.2238 95.1425 31.2238Z" fill="white"/>
<path d="M105.186 37.6755H104.105V34.9902H101.036V37.6755H99.9551V31.7122H101.036V34.1533H104.105V31.7122H105.186V37.6755Z" fill="white"/>
<path d="M86.471 0.779541H60.071V27.1795H86.471V0.779541Z" fill="#FF0013"/>
<path d="M86.471 0.779541H73.271V13.9795H86.471V0.779541Z" fill="#FF8E78"/>
<path d="M60.071 27.1794L73.271 27.1794L73.271 13.9795L60.071 13.9795L60.071 27.1794Z" fill="#CC0019"/>
</svg>
