<svg width="147" height="40" viewBox="0 0 147 40" fill="none" xmlns="http://www.w3.org/2000/svg">
<path d="M1.21222 20.9397C6.11762 19.1187 11.7663 16.5546 15.371 14.8823C18.8271 13.1728 19.7933 11.7978 19.7933 9.90254C19.7933 8.23025 18.2697 6.96673 15.4453 6.96673C12.5095 6.96673 10.6886 8.23025 10.6886 10.6829C10.6886 10.8688 10.6886 11.0917 10.7258 11.5005L1.36088 10.6829C1.32371 10.2742 1.28657 9.9397 1.28657 9.49376C1.28657 3.77079 7.60411 0.64917 15.7055 0.64917C23.7325 0.64917 29.4927 3.10187 29.4927 9.04781C29.4927 12.6525 27.9318 14.6221 24.0298 16.6289C21.4656 18.041 17.898 19.1559 14.3305 20.085H29.8643V26.6998H1.21222V20.9397V20.9397Z" fill="white"/>
<path d="M60.9326 13.3586C60.9326 22.7978 55.5069 27.5917 45.7705 27.5917C38.4867 27.5917 33.3211 24.6931 31.8346 19.8248L41.2367 18.7843C41.9056 20.1593 43.5036 21.3856 45.8448 21.3856C49.6725 21.3856 51.7164 19.7505 52.0509 16.0343C50.1184 17.3721 47.4427 17.9667 43.7265 17.9667C35.9596 17.9667 31.5745 14.8823 31.5745 9.34511C31.5745 3.88228 37.2232 0.64917 45.6961 0.64917C55.5441 0.64917 60.9326 5.07146 60.9326 13.3586ZM51.8279 10.237C51.2705 7.85862 49.3009 6.29781 45.9563 6.29781C42.909 6.29781 41.0509 7.41268 41.0509 9.30795C41.0509 11.0917 42.8718 12.3924 45.7333 12.3924C48.6691 12.3924 50.6387 11.5005 51.8279 10.237Z" fill="white"/>
<path d="M5.67144 39.075L4.9654 37.2912H2.25254L1.54645 39.075H0.320129L2.95863 32.6831H4.22216L6.86066 39.075H5.67144ZM4.66808 36.3993L3.99915 34.6527C3.96199 34.5412 3.88766 34.3554 3.81334 34.0953C3.73901 33.8351 3.66469 33.6493 3.62753 33.5378C3.5532 33.9095 3.40455 34.2811 3.2559 34.727L2.62417 36.3993H4.66808Z" fill="white"/>
<path d="M12.8438 34.6155C12.8438 35.2845 12.5836 35.8047 12.1005 36.1392C11.6174 36.5108 10.9114 36.6595 10.0195 36.6595H9.27622V39.0378H8.12421V32.6831H10.1681C11.06 32.6831 11.7289 32.8318 12.1748 33.1662C12.6208 33.5007 12.8438 33.9838 12.8438 34.6155ZM9.31338 35.8047H9.94512C10.5397 35.8047 10.9857 35.7304 11.2458 35.5074C11.5059 35.3216 11.6546 35.0243 11.6546 34.6527C11.6546 34.2811 11.5431 34.0209 11.283 33.8351C11.0229 33.6493 10.6512 33.575 10.1309 33.575H9.31338V35.8047Z" fill="white"/>
<path d="M19.7555 39.075H18.4176L16.6338 36.4736L14.8501 39.075H13.6237L15.965 35.7676L13.7724 32.6831H15.0731L16.7082 35.0986L18.3433 32.6831H19.6068L17.3771 35.7676L19.7555 39.075Z" fill="white"/>
<path d="M25.4043 39.075L24.6982 37.2912H21.9853L21.2792 39.075H20.0529L22.6914 32.6831H23.9549L26.5934 39.075H25.4043ZM24.4009 36.3993L23.732 34.6527C23.6948 34.5412 23.6205 34.3554 23.5462 34.0953C23.4718 33.8351 23.3975 33.6493 23.3604 33.5378C23.286 33.9095 23.1374 34.2811 22.9887 34.727L22.357 36.3993H24.4009Z" fill="white"/>
<path d="M33.4689 39.075H32.3169V36.2135H29.0466V39.075H27.8946V32.6831H29.0466V35.2845H32.3169V32.6831H33.4689V39.075Z" fill="white"/>
<path d="M39.8236 32.6831V33.575H36.7763V39.0378H35.6243V32.6831H39.8236Z" fill="white"/>
<path d="M45.2861 39.075H41.2725V32.6831H45.2861V33.575H42.4245V35.3216H45.1002V36.1763H42.4245V38.1831H45.2861V39.075Z" fill="white"/>
<path d="M52.4214 39.075H51.2694V33.575H49.2626C49.0025 35.4331 48.8167 36.6966 48.668 37.3655C48.5194 38.0345 48.2964 38.5176 48.0363 38.7777C47.7761 39.0378 47.4045 39.1493 46.9214 39.1493C46.6984 39.1493 46.4755 39.1122 46.2525 39.0378V38.1831C46.4383 38.2574 46.6241 38.2946 46.7728 38.2946C46.9958 38.2946 47.1816 38.1831 47.3302 37.923C47.4789 37.6628 47.5903 37.1054 47.7761 36.2507C47.9248 35.3959 48.1106 34.2068 48.3336 32.6831H52.4586V39.075H52.4214Z" fill="white"/>
<path d="M59.5195 37.1426C59.5195 37.7743 59.2965 38.2574 58.8134 38.5547C58.3303 38.852 57.6614 39.0378 56.7695 39.0378H54.577V32.6831H55.729V35.2845H56.7323C57.6242 35.2845 58.3303 35.4331 58.7763 35.7676C59.2965 36.102 59.5195 36.548 59.5195 37.1426ZM55.729 38.1831H56.6952C57.2155 38.1831 57.6242 38.1088 57.8844 37.923C58.1817 37.7743 58.2932 37.477 58.2932 37.1426C58.2932 36.8081 58.1445 36.548 57.8844 36.3993C57.6242 36.2507 57.1783 36.1763 56.5465 36.1763H55.6918V38.1831H55.729Z" fill="white"/>
<path d="M64.2392 33.5008C63.5703 33.5008 63.05 33.7238 62.6784 34.1326C62.3068 34.5414 62.121 35.136 62.121 35.8792C62.121 36.6596 62.3068 37.2542 62.6784 37.663C63.05 38.0718 63.5703 38.2576 64.2764 38.2576C64.5737 38.2576 64.871 38.2204 65.1311 38.1833C65.4284 38.1461 65.6885 38.0718 66.023 37.9603V38.8522C65.4656 39.038 64.8338 39.1495 64.1277 39.1495C63.0872 39.1495 62.3068 38.8522 61.7493 38.2947C61.1919 37.7373 60.9318 36.9197 60.9318 35.8792C60.9318 35.2103 61.0804 34.6529 61.3406 34.1326C61.6007 33.6495 62.0095 33.2407 62.4926 32.9806C63.0129 32.7204 63.6075 32.5718 64.2764 32.5718C64.9825 32.5718 65.6514 32.7204 66.2832 32.9806L65.8743 33.8353C65.6514 33.7238 65.3912 33.6495 65.1311 33.5752C64.8338 33.538 64.5365 33.5008 64.2392 33.5008Z" fill="white"/>
<path d="M73.2695 39.075H71.8945L68.9958 35.8419V39.075H67.8438V32.6831H68.9958V35.7676L71.8573 32.6831H73.1208L70.2594 35.7676L73.2695 39.075Z" fill="white"/>
<path d="M83.6376 35.8792C83.6376 36.9197 83.3403 37.7373 82.7829 38.2947C82.2255 38.8521 81.4079 39.1494 80.3302 39.1494C79.2525 39.1494 78.4349 38.8521 77.8775 38.2947C77.3201 37.7373 77.0228 36.9197 77.0228 35.8792C77.0228 34.8386 77.3201 34.021 77.8775 33.4636C78.4721 32.9062 79.2897 32.6089 80.3302 32.6089C81.3707 32.6089 82.1883 32.9062 82.7829 33.4636C83.3775 34.021 83.6376 34.8386 83.6376 35.8792ZM78.2491 35.8792C78.2491 36.6596 78.435 37.2542 78.7694 37.6629C79.1039 38.0717 79.6613 38.2575 80.3302 38.2575C81.0363 38.2575 81.5194 38.0717 81.891 37.6629C82.2627 37.2542 82.4113 36.6596 82.4113 35.8792C82.4113 35.0988 82.2255 34.5042 81.891 34.0954C81.5566 33.6866 81.0363 33.5008 80.3302 33.5008C79.6241 33.5008 79.1039 33.6866 78.7694 34.0954C78.435 34.5042 78.2491 35.0988 78.2491 35.8792Z" fill="white"/>
<path d="M91.0326 39.075H89.8806V36.2135H86.6103V39.075H85.4583V32.6831H86.6103V35.2845H89.8806V32.6831H91.0326V39.075Z" fill="white"/>
<path d="M98.54 39.075H97.388V33.575H95.3813C95.1211 35.4331 94.9353 36.6966 94.7867 37.3655C94.638 38.0345 94.4151 38.5176 94.1549 38.7777C93.8948 39.0378 93.5232 39.1493 93.0401 39.1493C92.8171 39.1493 92.5941 39.1122 92.3711 39.0378V38.1831C92.5569 38.2574 92.7428 38.2946 92.8914 38.2946C93.1144 38.2946 93.3002 38.1831 93.4488 37.923C93.5975 37.6628 93.709 37.1054 93.8948 36.2507C94.0434 35.3959 94.2292 34.2068 94.4522 32.6831H98.5772V39.075H98.54Z" fill="white"/>
<path d="M105.08 39.075L104.374 37.2912H101.662L100.955 39.075H99.7292L102.368 32.6831H103.631L106.27 39.075H105.08ZM104.077 36.3993L103.408 34.6527C103.371 34.5412 103.297 34.3554 103.222 34.0953C103.148 33.8351 103.074 33.6493 103.037 33.5378C102.962 33.9095 102.814 34.2811 102.665 34.727L102.033 36.3993H104.077Z" fill="white"/>
<path d="M107.533 32.6832H108.611V35.9906C108.611 36.3251 108.611 36.6967 108.573 37.0311C108.536 37.3656 108.536 37.6257 108.536 37.7372H108.573L112.178 32.646H113.516V39.0007H112.438V35.7305C112.438 35.2102 112.475 34.6156 112.513 33.9095H112.475L108.834 39.0379H107.496V32.6832H107.533ZM110.58 32.2001C109.911 32.2001 109.391 32.0886 109.094 31.8656C108.759 31.6426 108.611 31.271 108.573 30.7507H109.614C109.651 30.9737 109.688 31.1224 109.763 31.2338C109.837 31.3453 109.948 31.4197 110.06 31.494C110.209 31.5311 110.394 31.5683 110.654 31.5683C110.989 31.5683 111.212 31.494 111.361 31.3825C111.509 31.271 111.621 31.048 111.658 30.7507H112.698C112.661 31.2338 112.438 31.6055 112.104 31.8656C111.769 32.0886 111.249 32.2001 110.58 32.2001Z" fill="white"/>
<path d="M121.283 39.075H120.131V36.2135H116.861V39.075H115.709V32.6831H116.861V35.2845H120.131V32.6831H121.283V39.075Z" fill="white"/>
<path d="M108.518 15.871H100.684V26.4891H97.1201V0.64917H109.743C116.611 0.64917 118.542 4.58456 118.542 8.22293C118.542 11.1188 116.946 14.4602 112.379 15.3883L119.433 26.4891H115.275L108.518 15.871ZM100.721 12.9008H109.223C113.493 12.9008 114.829 10.6361 114.829 8.22293C114.829 5.80972 113.493 3.6564 109.26 3.6564H100.721V12.9008Z" fill="white"/>
<path d="M125.984 0.64917V16.0566C125.984 20.6602 128.991 24.113 134.263 24.113C139.535 24.113 142.505 20.6974 142.505 16.0566V0.64917H146.107V16.2422C146.107 22.6279 141.837 27.1945 134.263 27.1945C126.615 27.1945 122.42 22.6651 122.42 16.2422V0.64917H125.984V0.64917Z" fill="white"/>
<path d="M92.7201 0.64917H66.3201V27.0491H92.7201V0.64917Z" fill="#FF0013"/>
<path d="M92.7201 0.64917H79.5201V13.8492H92.7201V0.64917Z" fill="#FF8E78"/>
<path d="M66.3201 27.0491L79.5201 27.0491L79.5201 13.8491L66.3201 13.8491L66.3201 27.0491Z" fill="#CC0019"/>
</svg>
