<svg width="144" height="39" viewBox="0 0 144 39" fill="none" xmlns="http://www.w3.org/2000/svg">
<path d="M28.2364 19.9553V26.2668H0.762939V0.204102H27.9765V6.51557H10.1559V10.2282H27.3454V16.0199H10.1559V19.9553H28.2364Z" fill="white"/>
<path d="M57.0688 19.6583V26.2296H31.563V19.6583H40.102V10.2282C38.617 11.6761 35.981 12.0845 33.9019 12.0845H31.7857V4.73351H33.0109C36.9834 4.73351 40.1392 3.21133 41.4386 0.204102H49.2722V19.6583H57.0688Z" fill="white"/>
<path d="M105.661 15.4259H97.8271V26.044H94.2629V0.204102H106.886C113.754 0.204102 115.685 4.13949 115.685 7.77787C115.685 10.6737 114.088 14.0151 109.522 14.9432L116.576 26.044H112.418L105.661 15.4259ZM97.8642 12.4558H106.366C110.636 12.4558 111.972 10.1911 111.972 7.77787C111.972 5.36466 110.636 3.21133 106.403 3.21133H97.8642V12.4558Z" fill="white"/>
<path d="M123.127 0.204102V15.6115C123.127 20.2152 126.134 23.6679 131.406 23.6679C136.678 23.6679 139.648 20.2523 139.648 15.6115V0.204102H143.25V15.7971C143.25 22.1829 138.98 26.7494 131.406 26.7494C123.758 26.7494 119.563 22.22 119.563 15.7971V0.204102H123.127V0.204102Z" fill="white"/>
<path d="M5.21887 38.5927H1.20923V32.2441H5.21887V33.1352H2.36014V34.8801H5.03324V35.734H2.36014V37.7388H5.21887V38.5927Z" fill="white"/>
<path d="M12.4582 38.5927H11.0845L8.18864 35.3628V38.5927H7.03772V32.2441H8.18864V35.3256L11.0474 32.2441H12.3097L9.45093 35.3256L12.4582 38.5927Z" fill="white"/>
<path d="M18.1013 38.5928L17.3959 36.8107H14.6857L13.9803 38.5928H12.7551L15.3911 32.207H16.6534L19.2894 38.5928H18.1013ZM17.0618 35.9197L16.3935 34.1747C16.3564 34.0633 16.2821 33.8777 16.2079 33.6178C16.1336 33.3579 16.0594 33.1723 16.0222 33.0609C15.948 33.4322 15.7995 33.8035 15.651 34.249L15.0198 35.9197H17.0618Z" fill="white"/>
<path d="M23.0022 38.5927H21.8513V33.1352H19.7722V32.2441H25.0813V33.1352H23.0022V38.5927Z" fill="white"/>
<path d="M30.4648 38.5927H26.4552V32.2441H30.4648V33.1352H27.6061V34.8801H30.2792V35.734H27.6061V37.7388H30.4648V38.5927Z" fill="white"/>
<path d="M36.962 34.1376C36.962 34.8059 36.7021 35.3256 36.2195 35.6598C35.7368 36.031 35.0314 36.1795 34.1404 36.1795H33.3979V38.5556H32.2469V32.207H34.2889C35.1799 32.207 35.8482 32.3555 36.2937 32.6897C36.7392 33.0238 36.962 33.5065 36.962 34.1376ZM33.435 35.3256H34.0661C34.6602 35.3256 35.1057 35.2143 35.3656 35.0286C35.6254 34.843 35.7739 34.546 35.7739 34.1747C35.7739 33.8035 35.6626 33.5436 35.4027 33.3579C35.1428 33.1723 34.7715 33.0981 34.2518 33.0981H33.435V35.3256Z" fill="white"/>
<path d="M38.6697 32.2442H39.7464V35.5484C39.7464 35.8825 39.7464 36.2538 39.7092 36.5879C39.6721 36.9221 39.6721 37.182 39.6721 37.2933H39.7092L43.3105 32.207H44.647V38.5556H43.5704V35.3256C43.5704 34.8059 43.6075 34.2119 43.6446 33.5065H43.6075L39.9691 38.6299H38.6326V32.2442H38.6697Z" fill="white"/>
<path d="M52.4064 38.5927H51.2554V35.734H47.9883V38.5927H46.8374V32.2441H47.9883V34.843H51.2554V32.2441H52.4064V38.5927Z" fill="white"/>
<path d="M59.3487 36.6622C59.3487 37.9245 58.4206 38.5927 56.6014 38.5927H54.5594V32.2441H58.8661V33.1352H55.7104V34.843H56.5643C58.4206 34.8059 59.3487 35.437 59.3487 36.6622ZM55.7104 37.7017H56.5271C57.084 37.7017 57.4924 37.6275 57.7523 37.4418C58.0122 37.2933 58.1236 36.9963 58.1236 36.6622C58.1236 36.328 58.0122 36.0681 57.7523 35.9196C57.4924 35.7711 57.0469 35.6969 56.3786 35.6969H55.7104V37.7017Z" fill="white"/>
<path d="M66.4402 32.2441L64.2126 36.7736C63.9527 37.3304 63.6929 37.7388 63.4701 37.9616C63.2473 38.2215 62.9875 38.4071 62.6905 38.5185C62.3934 38.6299 62.0222 38.7041 61.5767 38.7041C61.2054 38.7041 60.8713 38.667 60.5371 38.5556V37.6275C60.8713 37.7388 61.1683 37.8131 61.5395 37.8131C61.8365 37.8131 62.0964 37.7388 62.2821 37.6275C62.4677 37.5161 62.6533 37.2562 62.839 36.9221L60.2401 32.2441H61.5024L63.2473 35.437C63.3959 35.734 63.5072 35.9568 63.5444 36.031H63.5815C63.6186 35.9568 63.6557 35.8454 63.73 35.6598L65.3264 32.2441H66.4402V32.2441Z" fill="white"/>
<path d="M72.3431 34.1376C72.3431 34.8059 72.0832 35.3256 71.6006 35.6598C71.1179 36.031 70.4125 36.1795 69.5215 36.1795H68.779V38.5556H67.6281V32.207H69.67C70.561 32.207 71.2293 32.3555 71.6748 32.6897C72.1203 33.0238 72.3431 33.5065 72.3431 34.1376ZM68.8161 35.3256H69.4472C70.0413 35.3256 70.4868 35.2143 70.7467 35.0286C71.0065 34.843 71.1551 34.546 71.1551 34.1747C71.1551 33.8035 71.0437 33.5436 70.7838 33.3579C70.5239 33.1723 70.1526 33.0981 69.6329 33.0981H68.8161V35.3256Z" fill="white"/>
<path d="M78.2465 32.2441V33.1352H75.2022V38.5927H74.0513V32.2441H78.2465V32.2441Z" fill="white"/>
<path d="M88.8646 35.3997C88.8646 36.4392 88.5676 37.256 88.0107 37.8129C87.4538 38.3698 86.637 38.6668 85.5603 38.6668C84.4837 38.6668 83.6669 38.3698 83.11 37.8129C82.5531 37.256 82.2561 36.4392 82.2561 35.3997C82.2561 34.3601 82.5531 33.5434 83.11 32.9865C83.704 32.4296 84.5208 32.1326 85.5603 32.1326C86.5999 32.1326 87.4167 32.4296 88.0107 32.9865C88.5676 33.5434 88.8646 34.3601 88.8646 35.3997ZM83.4813 35.3997C83.4813 36.1793 83.6669 36.7734 84.001 37.1817C84.3352 37.5901 84.8921 37.7758 85.5603 37.7758C86.2657 37.7758 86.7484 37.5901 87.1197 37.1817C87.4909 36.7734 87.6394 36.1793 87.6394 35.3997C87.6394 34.62 87.4538 34.026 87.1197 33.6176C86.7855 33.2092 86.2657 33.0236 85.5603 33.0236C84.8549 33.0236 84.3352 33.2092 84.001 33.6176C83.6298 34.026 83.4813 34.62 83.4813 35.3997Z" fill="white"/>
<path d="M96.2529 38.5927H95.102V35.734H91.8349V38.5927H90.684V32.2441H91.8349V34.843H95.102V32.2441H96.2529V38.5927Z" fill="white"/>
<path d="M103.715 38.5927H102.564V33.1352H100.56C100.3 34.9915 100.114 36.2538 99.9656 36.9221C99.8171 37.5903 99.5943 38.073 99.3344 38.3329C99.0745 38.5927 98.7033 38.7041 98.2206 38.7041C97.9979 38.7041 97.7751 38.667 97.5524 38.5927V37.7388C97.738 37.8131 97.9236 37.8502 98.0721 37.8502C98.2949 37.8502 98.4805 37.7388 98.629 37.479C98.7775 37.2191 98.8889 36.6622 99.0745 35.8083C99.223 34.9544 99.4087 33.7663 99.6314 32.2441H103.752V38.5927H103.715Z" fill="white"/>
<path d="M110.286 38.5928L109.581 36.8107H106.871L106.165 38.5928H104.94L107.576 32.207H108.839L111.475 38.5928H110.286ZM109.284 35.9197L108.616 34.1747C108.579 34.0633 108.504 33.8777 108.43 33.6178C108.356 33.3579 108.282 33.1723 108.245 33.0609C108.17 33.4322 108.022 33.8035 107.873 34.249L107.242 35.9197H109.284Z" fill="white"/>
<path d="M112.737 32.2441H113.813V35.5483C113.813 35.8824 113.813 36.2537 113.776 36.5878C113.739 36.922 113.739 37.1819 113.739 37.2932H113.776L117.377 32.2069H118.714V38.5555H117.637V35.3255C117.637 34.8058 117.674 34.2118 117.712 33.5064L114.073 38.6298H112.737V32.2441V32.2441ZM115.781 31.7243C115.113 31.7243 114.593 31.6129 114.296 31.3902C113.962 31.1674 113.813 30.7961 113.776 30.2764H114.816C114.853 30.4991 114.89 30.6476 114.964 30.759C115.039 30.8704 115.15 30.9446 115.261 31.0189C115.41 31.056 115.595 31.0931 115.855 31.0931C116.189 31.0931 116.412 31.0189 116.561 30.9075C116.709 30.7961 116.821 30.5734 116.858 30.2764H117.897C117.86 30.759 117.637 31.1303 117.303 31.3902C116.969 31.6129 116.449 31.7243 115.781 31.7243Z" fill="white"/>
<path d="M126.474 38.5927H125.323V35.734H122.056V38.5927H120.905V32.2441H122.056V34.843H125.323V32.2441H126.474V38.5927Z" fill="white"/>
<path d="M88.763 0.204102H75.563V13.4041H88.763V0.204102Z" fill="#F4906C"/>
<path d="M75.563 0.204102H62.363V13.4041H75.563V0.204102Z" fill="#FF5200"/>
<path d="M62.3635 26.604L75.5635 26.604L75.5635 13.404L62.3635 13.404L62.3635 26.604Z" fill="#B72F00"/>
<path d="M75.5634 26.604L88.7634 26.604L88.7634 13.404L75.5634 13.404L75.5634 26.604Z" fill="#FF5200"/>
</svg>
