<svg width="282" height="71" viewBox="0 0 282 71" fill="none" xmlns="http://www.w3.org/2000/svg">
<path d="M5.01619 42.3204C4.05263 42.3204 3.11741 42.2013 2.21053 41.9633C1.30364 41.7252 0.566802 41.4078 0 41.011L1.10527 38.5285C1.63806 38.8799 2.25587 39.1633 2.9587 39.3787C3.66154 39.594 4.35304 39.7017 5.0332 39.7017C6.32551 39.7017 6.97166 39.3787 6.97166 38.7325C6.97166 38.3924 6.78462 38.143 6.41053 37.9843C6.04777 37.8143 5.4583 37.6386 4.64211 37.4572C3.74656 37.2645 2.99838 37.0604 2.39757 36.8451C1.79676 36.6183 1.28097 36.2612 0.850203 35.7738C0.419433 35.2863 0.204049 34.6289 0.204049 33.8013C0.204049 33.0758 0.402432 32.424 0.799193 31.8459C1.19595 31.2564 1.78543 30.7916 2.56761 30.4515C3.36113 30.1114 4.33036 29.9414 5.4753 29.9414C6.25749 29.9414 7.02834 30.0321 7.78785 30.2135C8.54737 30.3835 9.2162 30.6386 9.79433 30.9787L8.75709 33.4782C7.62348 32.8661 6.52389 32.56 5.4583 32.56C4.78947 32.56 4.30202 32.6621 3.99595 32.8661C3.68988 33.0588 3.53684 33.3139 3.53684 33.6313C3.53684 33.9487 3.71822 34.1868 4.08097 34.3455C4.44372 34.5042 5.02753 34.6685 5.83239 34.8386C6.73927 35.0313 7.48745 35.241 8.07692 35.4677C8.67773 35.6831 9.19352 36.0345 9.62429 36.522C10.0664 36.9981 10.2875 37.6499 10.2875 38.4774C10.2875 39.1916 10.0891 39.8378 9.69231 40.4159C9.29555 40.994 8.70041 41.4588 7.90688 41.8102C7.11336 42.1503 6.1498 42.3204 5.01619 42.3204ZM24.8679 30.1795V42.0823H21.5011V37.4402H16.91V42.0823H13.5432V30.1795H16.91V34.6515H21.5011V30.1795H24.8679ZM33.534 37.7633L32.2757 39.1066V42.0823H28.9429V30.1795H32.2757V35.1276L36.8838 30.1795H40.5907L35.7275 35.4507L40.8457 42.0823H36.9348L33.534 37.7633ZM48.756 42.3204C46.9876 42.3204 45.6102 41.8386 44.624 40.875C43.6491 39.9114 43.1617 38.5455 43.1617 36.777V30.1795H46.5285V36.675C46.5285 38.5795 47.2823 39.5317 48.79 39.5317C50.2864 39.5317 51.0345 38.5795 51.0345 36.675V30.1795H54.3503V36.777C54.3503 38.5455 53.8572 39.9114 52.871 40.875C51.8961 41.8386 50.5244 42.3204 48.756 42.3204ZM58.3315 30.1795H61.6983V39.4127H67.3777V42.0823H58.3315V30.1795ZM79.9666 39.4807V42.0823H70.4104V30.1795H79.7456V32.7811H73.7432V34.7876H79.0314V37.3042H73.7432V39.4807H79.9666ZM95.442 30.1795L90.3408 42.0823H87.025L81.9408 30.1795H85.5797L88.8105 37.9333L92.1092 30.1795H95.442Z" fill="white"/>
<path d="M117.847 30.1792V42.082H116.64V32.5597L111.964 40.5686H111.369L106.693 32.6108V42.082H105.485V30.1792H106.523L111.692 39.0043L116.81 30.1792H117.847ZM131.843 40.9937V42.082H123.426V30.1792H131.588V31.2674H124.684V35.5014H130.84V36.5727H124.684V40.9937H131.843ZM136.501 30.1792H141.347C142.605 30.1792 143.716 30.4342 144.68 30.9444C145.644 31.4431 146.392 32.146 146.925 33.0529C147.457 33.9484 147.724 34.9743 147.724 36.1306C147.724 37.2869 147.457 38.3184 146.925 39.2253C146.392 40.1209 145.644 40.8237 144.68 41.3338C143.716 41.8326 142.605 42.082 141.347 42.082H136.501V30.1792ZM141.279 40.9937C142.322 40.9937 143.235 40.7897 144.017 40.3816C144.799 39.9622 145.405 39.3897 145.836 38.6642C146.267 37.9274 146.482 37.0828 146.482 36.1306C146.482 35.1784 146.267 34.3395 145.836 33.614C145.405 32.8771 144.799 32.3047 144.017 31.8966C143.235 31.4771 142.322 31.2674 141.279 31.2674H137.759V40.9937H141.279ZM152.25 30.1792H153.508V42.082H152.25V30.1792ZM166.546 38.9022H159.914L158.486 42.082H157.177L162.618 30.1792H163.859L169.301 42.082H167.974L166.546 38.9022ZM166.087 37.882L163.23 31.4885L160.374 37.882H166.087ZM189.068 30.1792V42.082H187.827V36.5897H180.379V42.082H179.121V30.1792H180.379V35.4844H187.827V30.1792H189.068ZM199.857 42.184C198.678 42.184 197.606 41.9233 196.643 41.4018C195.691 40.8691 194.943 40.1435 194.398 39.2253C193.866 38.3071 193.599 37.2755 193.599 36.1306C193.599 34.9857 193.866 33.9541 194.398 33.0359C194.943 32.1176 195.691 31.3978 196.643 30.8763C197.606 30.3435 198.678 30.0771 199.857 30.0771C201.036 30.0771 202.096 30.3379 203.036 30.8593C203.989 31.3808 204.737 32.1063 205.281 33.0359C205.825 33.9541 206.097 34.9857 206.097 36.1306C206.097 37.2755 205.825 38.3128 205.281 39.2423C204.737 40.1605 203.989 40.8804 203.036 41.4018C202.096 41.9233 201.036 42.184 199.857 42.184ZM199.857 41.0618C200.798 41.0618 201.648 40.852 202.407 40.4326C203.167 40.0018 203.762 39.4124 204.193 38.6642C204.623 37.9047 204.839 37.0601 204.839 36.1306C204.839 35.201 204.623 34.3622 204.193 33.614C203.762 32.8545 203.167 32.265 202.407 31.8456C201.648 31.4148 200.798 31.1994 199.857 31.1994C198.916 31.1994 198.06 31.4148 197.289 31.8456C196.53 32.265 195.929 32.8545 195.487 33.614C195.056 34.3622 194.84 35.201 194.84 36.1306C194.84 37.0601 195.056 37.9047 195.487 38.6642C195.929 39.4124 196.53 40.0018 197.289 40.4326C198.06 40.852 198.916 41.0618 199.857 41.0618ZM210.618 30.1792H211.876V40.9937H218.542V42.082H210.618V30.1792ZM222.332 30.1792H227.178C228.436 30.1792 229.547 30.4342 230.511 30.9444C231.474 31.4431 232.222 32.146 232.755 33.0529C233.288 33.9484 233.554 34.9743 233.554 36.1306C233.554 37.2869 233.288 38.3184 232.755 39.2253C232.222 40.1209 231.474 40.8237 230.511 41.3338C229.547 41.8326 228.436 42.082 227.178 42.082H222.332V30.1792ZM227.11 40.9937C228.153 40.9937 229.065 40.7897 229.848 40.3816C230.63 39.9622 231.236 39.3897 231.667 38.6642C232.098 37.9274 232.313 37.0828 232.313 36.1306C232.313 35.1784 232.098 34.3395 231.667 33.614C231.236 32.8771 230.63 32.3047 229.848 31.8966C229.065 31.4771 228.153 31.2674 227.11 31.2674H223.59V40.9937H227.11ZM238.08 30.1792H239.339V42.082H238.08V30.1792ZM254.859 30.1792V42.082H253.822L246.17 32.4237V42.082H244.912V30.1792H245.949L253.618 39.8375V30.1792H254.859ZM268.828 36.1306H270.036V40.6707C269.48 41.1581 268.823 41.5322 268.063 41.7929C267.304 42.0537 266.504 42.184 265.665 42.184C264.475 42.184 263.404 41.9233 262.452 41.4018C261.499 40.8804 260.751 40.1605 260.207 39.2423C259.663 38.3128 259.391 37.2755 259.391 36.1306C259.391 34.9857 259.663 33.9541 260.207 33.0359C260.751 32.1063 261.499 31.3808 262.452 30.8593C263.404 30.3379 264.481 30.0771 265.682 30.0771C266.589 30.0771 267.423 30.2245 268.182 30.5193C268.942 30.8027 269.582 31.2278 270.104 31.7946L269.321 32.5937C268.38 31.6642 267.184 31.1994 265.733 31.1994C264.77 31.1994 263.897 31.4148 263.115 31.8456C262.344 32.265 261.738 32.8545 261.295 33.614C260.853 34.3622 260.632 35.201 260.632 36.1306C260.632 37.0601 260.853 37.899 261.295 38.6472C261.738 39.3954 262.344 39.9848 263.115 40.4156C263.886 40.8464 264.753 41.0618 265.716 41.0618C266.941 41.0618 267.978 40.7557 268.828 40.1435V36.1306Z" fill="white"/>
<path fill-rule="evenodd" clip-rule="evenodd" d="M210.501 0.84375H281.486V70.8437H210.501V52.4071H212.485V68.8599H279.502V2.82756H212.485V19.1177H210.501V0.84375Z" fill="white"/>
<path d="M1.54874 58.2321H0.417969V52.6321H4.61798V53.5475H1.54874V58.2321ZM7.22441 53.3106C7.7198 52.7866 8.37304 52.5244 9.18441 52.5244C9.99551 52.5244 10.6453 52.7866 11.1336 53.3106C11.629 53.8346 11.8767 54.5419 11.8767 55.4321C11.8767 56.3223 11.629 57.0296 11.1336 57.5536C10.6453 58.0777 9.99551 58.3398 9.18441 58.3398C8.37304 58.3398 7.7198 58.0777 7.22441 57.5536C6.73611 57.0296 6.49211 56.3223 6.49211 55.4321C6.49211 54.5419 6.73611 53.8346 7.22441 53.3106ZM8.02134 56.9398C8.30842 57.2989 8.69611 57.4783 9.18441 57.4783C9.67243 57.4783 10.0601 57.2989 10.3475 56.9398C10.6346 56.5807 10.7783 56.0783 10.7783 55.4321C10.7783 54.786 10.6346 54.2835 10.3475 53.9244C10.0601 53.5653 9.67243 53.386 9.18441 53.386C8.69611 53.386 8.30842 53.5653 8.02134 53.9244C7.73397 54.2835 7.59057 54.786 7.59057 55.4321C7.59057 56.0783 7.73397 56.5807 8.02134 56.9398ZM15.1959 53.4398C15.6122 52.8296 16.1904 52.5244 16.9298 52.5244C17.6405 52.5244 18.1934 52.7721 18.5882 53.2675C18.9904 53.7558 19.1913 54.4773 19.1913 55.4321C19.1913 56.3727 18.983 57.0943 18.5667 57.5967C18.1575 58.0921 17.6119 58.3398 16.9298 58.3398C16.2119 58.3398 15.6445 58.0706 15.2282 57.5321H15.2067V60.6013H14.1298V52.6321H15.1528L15.1744 53.4398H15.1959ZM18.1359 55.4321C18.1359 54.75 18.0067 54.2404 17.7482 53.9029C17.4898 53.5583 17.1273 53.386 16.6605 53.386C16.2368 53.386 15.8888 53.5653 15.6159 53.9244C15.343 54.2761 15.2067 54.7607 15.2067 55.3783V55.486C15.2067 56.1106 15.343 56.5989 15.6159 56.9506C15.8888 57.3023 16.2368 57.4783 16.6605 57.4783C17.1058 57.4783 17.4611 57.3023 17.7267 56.9506C17.9996 56.5989 18.1359 56.0927 18.1359 55.4321ZM21.8513 53.3106C22.3467 52.7866 22.9999 52.5244 23.8113 52.5244C24.6224 52.5244 25.2722 52.7866 25.7605 53.3106C26.2559 53.8346 26.5036 54.5419 26.5036 55.4321C26.5036 56.3223 26.2559 57.0296 25.7605 57.5536C25.2722 58.0777 24.6224 58.3398 23.8113 58.3398C22.9999 58.3398 22.3467 58.0777 21.8513 57.5536C21.363 57.0296 21.119 56.3223 21.119 55.4321C21.119 54.5419 21.363 53.8346 21.8513 53.3106ZM22.6482 56.9398C22.9353 57.2989 23.323 57.4783 23.8113 57.4783C24.2993 57.4783 24.687 57.2989 24.9744 56.9398C25.2615 56.5807 25.4051 56.0783 25.4051 55.4321C25.4051 54.786 25.2615 54.2835 24.9744 53.9244C24.687 53.5653 24.2993 53.386 23.8113 53.386C23.323 53.386 22.9353 53.5653 22.6482 53.9244C22.3609 54.2835 22.2175 54.786 22.2175 55.4321C22.2175 56.0783 22.3609 56.5807 22.6482 56.9398ZM30.1351 57.3706H32.6874V53.4936H30.7489C30.7489 54.9869 30.7237 55.8989 30.6735 56.229C30.6234 56.5521 30.4437 56.9327 30.1351 57.3706ZM28.8643 57.3706C29.0222 57.1696 29.1335 57.0296 29.1982 56.9506C29.2699 56.8644 29.3452 56.7315 29.4243 56.5521C29.5034 56.3727 29.5499 56.2361 29.5643 56.1429C29.5858 56.0496 29.6074 55.8521 29.6289 55.5506C29.6575 55.2419 29.672 54.9653 29.672 54.7213C29.672 54.47 29.672 54.0607 29.672 53.4936V52.6321H33.7643V57.3706H34.5182V59.5244H33.4412V58.2321H29.4566V59.5244H28.3797V57.3706H28.8643ZM40.7487 53.7844C40.282 53.533 39.7973 53.4075 39.2949 53.4075C38.742 53.4075 38.3078 53.5835 37.9918 53.9352C37.6758 54.2869 37.5179 54.786 37.5179 55.4321C37.5179 56.0638 37.6832 56.5629 38.0133 56.929C38.3509 57.2952 38.7779 57.4783 39.2949 57.4783C39.7973 57.4783 40.282 57.3527 40.7487 57.1013L41.0179 57.9629C40.4435 58.2143 39.8512 58.3398 39.241 58.3398C38.3939 58.3398 37.7047 58.0777 37.1733 57.5536C36.6493 57.0296 36.3872 56.3223 36.3872 55.4321C36.3872 54.5204 36.6386 53.8096 37.141 53.2998C37.6435 52.7829 38.3435 52.5244 39.241 52.5244C39.8512 52.5244 40.4435 52.65 41.0179 52.9013L40.7487 53.7844ZM44.7041 54.9367L47.0195 52.6321H48.3764L45.598 55.3136L48.4734 58.2321H47.1165L44.7041 55.7013H44.6826V58.2321H43.5411V52.6321H44.6826V54.9367H44.7041ZM51.9008 52.6321V56.7029H51.9224L54.6793 52.6321H55.8424V58.2321H54.7224V54.1613H54.7008L51.9547 58.2321H50.7808V52.6321H51.9008ZM59.1944 55.0229H62.2206C62.2135 54.4915 62.0769 54.0823 61.8113 53.7952C61.5529 53.5081 61.1938 53.3644 60.7344 53.3644C60.275 53.3644 59.9052 53.5115 59.6252 53.806C59.3523 54.093 59.2089 54.4989 59.1944 55.0229ZM59.1944 55.8629C59.216 56.3653 59.3883 56.7638 59.7113 57.0583C60.0415 57.3527 60.4544 57.4998 60.9498 57.4998C61.4883 57.4998 62.0267 57.3635 62.5652 57.0906L62.8344 57.909C62.2098 58.1961 61.5458 58.3398 60.8421 58.3398C60.0381 58.3398 59.3775 58.0777 58.8606 57.5536C58.3507 57.0223 58.096 56.3152 58.096 55.4321C58.096 54.5275 58.3329 53.8167 58.8067 53.2998C59.2877 52.7829 59.9304 52.5244 60.7344 52.5244C61.5313 52.5244 62.1523 52.7684 62.5975 53.2567C63.0427 53.745 63.2652 54.4521 63.2652 55.3783C63.2652 55.486 63.2581 55.6475 63.2437 55.8629H59.1944ZM69.8395 52.6321H74.7395V58.2321H73.6626V53.5152H70.9164V58.2321H69.8395V52.6321ZM77.7186 53.3106C78.214 52.7866 78.8673 52.5244 79.6786 52.5244C80.49 52.5244 81.1396 52.7866 81.6279 53.3106C82.1233 53.8346 82.3709 54.5419 82.3709 55.4321C82.3709 56.3223 82.1233 57.0296 81.6279 57.5536C81.1396 58.0777 80.49 58.3398 79.6786 58.3398C78.8673 58.3398 78.214 58.0777 77.7186 57.5536C77.2303 57.0296 76.9863 56.3223 76.9863 55.4321C76.9863 54.5419 77.2303 53.8346 77.7186 53.3106ZM78.5156 56.9398C78.8026 57.2989 79.1903 57.4783 79.6786 57.4783C80.1669 57.4783 80.5546 57.2989 80.8417 56.9398C81.1288 56.5807 81.2725 56.0783 81.2725 55.4321C81.2725 54.786 81.1288 54.2835 80.8417 53.9244C80.5546 53.5653 80.1669 53.386 79.6786 53.386C79.1903 53.386 78.8026 53.5653 78.5156 53.9244C78.2285 54.2835 78.0848 54.786 78.0848 55.4321C78.0848 56.0783 78.2285 56.5807 78.5156 56.9398ZM85.6901 53.4398C86.1067 52.8296 86.6846 52.5244 87.424 52.5244C88.1347 52.5244 88.6877 52.7721 89.0824 53.2675C89.4846 53.7558 89.6855 54.4773 89.6855 55.4321C89.6855 56.3727 89.4775 57.0943 89.0609 57.5967C88.6517 58.0921 88.1061 58.3398 87.424 58.3398C86.7061 58.3398 86.139 58.0706 85.7224 57.5321H85.7009V60.6013H84.624V52.6321H85.6471L85.6686 53.4398H85.6901ZM88.6301 55.4321C88.6301 54.75 88.5009 54.2404 88.2424 53.9029C87.984 53.5583 87.6215 53.386 87.1547 53.386C86.7313 53.386 86.383 53.5653 86.1101 53.9244C85.8375 54.2761 85.7009 54.7607 85.7009 55.3783V55.486C85.7009 56.1106 85.8375 56.5989 86.1101 56.9506C86.383 57.3023 86.7313 57.4783 87.1547 57.4783C87.6 57.4783 87.9554 57.3023 88.2209 56.9506C88.4938 56.5989 88.6301 56.0927 88.6301 55.4321ZM96.7286 53.5044H94.7794V58.2321H93.6163V53.5044H91.6671V52.6321H96.7286V53.5044ZM102.369 55.4536H101.83C101.184 55.4536 100.685 55.565 100.333 55.7875C99.9886 56.01 99.8162 56.3044 99.8162 56.6706C99.8162 56.9361 99.895 57.1481 100.053 57.306C100.218 57.4567 100.433 57.5321 100.699 57.5321C101.152 57.5321 101.543 57.3777 101.873 57.069C102.203 56.753 102.369 56.369 102.369 55.9167V55.4536ZM98.7609 56.7244C98.7609 56.0998 99.0227 55.6007 99.547 55.2275C100.078 54.8469 100.839 54.6567 101.83 54.6567H102.369V54.6029C102.369 54.1506 102.275 53.8346 102.089 53.6552C101.909 53.4758 101.589 53.386 101.13 53.386C100.448 53.386 99.8197 53.5475 99.2455 53.8706L99.0839 53.009C99.687 52.686 100.369 52.5244 101.13 52.5244C101.941 52.5244 102.53 52.6896 102.896 53.0198C103.262 53.3429 103.445 53.8598 103.445 54.5706V56.7244C103.445 57.2343 103.499 57.7367 103.607 58.2321H102.584C102.526 57.9161 102.494 57.629 102.487 57.3706H102.465C102.264 57.6721 101.984 57.909 101.625 58.0813C101.273 58.2536 100.875 58.3398 100.43 58.3398C99.9203 58.3398 99.5147 58.1961 99.2132 57.909C98.9116 57.6219 98.7609 57.2269 98.7609 56.7244ZM111.346 58.2321H110.269V53.5152H108.039V55.5183C108.039 56.5736 107.871 57.2952 107.533 57.6829C107.196 58.0635 106.546 58.2823 105.584 58.3398L105.53 57.4567C105.939 57.4352 106.241 57.3669 106.435 57.2521C106.636 57.1373 106.776 56.9361 106.855 56.649C106.941 56.3619 106.984 55.9204 106.984 55.3244V52.6321H111.346V58.2321ZM119.303 58.2321V52.6321H120.348V58.2321H119.303ZM113.972 52.6321H115.049V54.269C115.3 54.2189 115.606 54.1936 115.965 54.1936C116.783 54.1936 117.408 54.373 117.839 54.7321C118.276 55.0838 118.495 55.5684 118.495 56.186C118.495 56.9112 118.269 57.453 117.817 57.8121C117.372 58.1638 116.683 58.3398 115.749 58.3398C115.125 58.3398 114.532 58.286 113.972 58.1783V52.6321ZM115.049 55.1306V57.3921C115.315 57.4496 115.573 57.4783 115.825 57.4783C116.377 57.4783 116.783 57.3743 117.042 57.166C117.307 56.9506 117.44 56.6238 117.44 56.186C117.44 55.8269 117.303 55.5506 117.031 55.3567C116.758 55.1558 116.349 55.0552 115.803 55.0552C115.509 55.0552 115.257 55.0804 115.049 55.1306Z" fill="white"/>
</svg>
