<svg width="281" height="39" viewBox="0 0 281 39" fill="none" xmlns="http://www.w3.org/2000/svg">
<path d="M4.93272 38.4469H3.5655V31.773H1.0957V30.6833H7.40252V31.773H4.93272V38.4469V38.4469Z" fill="white"/>
<path d="M16.4881 34.5429C16.4881 35.8141 16.1353 36.8129 15.4737 37.4939C14.8122 38.1749 13.8419 38.5381 12.5629 38.5381C11.2839 38.5381 10.3136 38.1749 9.65207 37.4939C8.99052 36.8129 8.6377 35.8141 8.6377 34.5429C8.6377 33.2717 8.99052 32.2729 9.65207 31.5918C10.3577 30.9108 11.328 30.5476 12.5629 30.5476C13.7978 30.5476 14.7681 30.9108 15.4737 31.5918C16.1794 32.3183 16.4881 33.2717 16.4881 34.5429ZM10.0931 34.5429C10.0931 35.4963 10.3136 36.2227 10.7106 36.7221C11.1075 37.2215 11.769 37.4485 12.5629 37.4485C13.4009 37.4485 13.9742 37.2215 14.4153 36.7221C14.8563 36.2227 15.0327 35.4963 15.0327 34.5429C15.0327 33.5895 14.8122 32.863 14.4153 32.3636C14.0183 31.8642 13.4009 31.6372 12.5629 31.6372C11.7249 31.6372 11.1075 31.8642 10.7106 32.3636C10.3136 32.863 10.0931 33.5895 10.0931 34.5429Z" fill="white"/>
<path d="M24.9553 38.4469H23.5881V31.773H21.2065C20.8978 34.043 20.6773 35.5866 20.5009 36.4038C20.3245 37.221 20.0599 37.8113 19.7511 38.1291C19.4424 38.4469 19.0014 38.5831 18.428 38.5831C18.1634 38.5831 17.8988 38.5377 17.6342 38.4469V37.4026C17.8547 37.4934 18.0752 37.5388 18.2516 37.5388C18.5162 37.5388 18.7367 37.4026 18.9132 37.0848C19.0896 36.767 19.2219 36.086 19.4424 35.0418C19.6188 33.9976 19.8393 32.5448 20.104 30.6833H24.9553V38.4469Z" fill="white"/>
<path d="M33.3794 36.1314C33.3794 36.9032 33.1148 37.4934 32.5415 37.8566C31.9681 38.2652 31.1743 38.4469 30.1158 38.4469H27.5137V30.6833H28.8809V33.8614H30.0717C31.1302 33.8614 31.9681 34.043 32.4974 34.4516C33.1148 34.8148 33.3794 35.405 33.3794 36.1314ZM28.925 37.4026H30.0717C30.6891 37.4026 31.1743 37.3118 31.483 37.0848C31.8358 36.9032 31.9681 36.54 31.9681 36.1314C31.9681 35.7228 31.7917 35.405 31.483 35.2234C31.1743 35.0418 30.645 34.951 29.8953 34.951H28.925V37.4026Z" fill="white"/>
<path d="M38.0981 35.3596L36.0252 38.4923H34.4375L36.8191 35.0872C35.7606 34.724 35.2314 33.9976 35.2314 32.908C35.2314 32.1816 35.496 31.6368 36.0252 31.2735C36.5545 30.9103 37.3483 30.7288 38.3627 30.7288H40.8766V38.4923H39.5094V35.3596H38.0981ZM39.4653 31.7276H38.3627C37.7894 31.7276 37.3483 31.8184 37.0396 32C36.7309 32.1816 36.5986 32.4994 36.5986 32.908C36.5986 33.3166 36.7309 33.6344 37.0396 33.9068C37.3483 34.1792 37.7894 34.27 38.4509 34.27H39.5094V31.7276H39.4653Z" fill="white"/>
<path d="M46.3462 38.4469H44.979V31.773H42.5092V30.6833H48.816V31.773H46.3462V38.4469V38.4469Z" fill="white"/>
<path d="M53.3586 38.4469H51.9914V31.773H49.5216V30.6833H55.8284V31.773H53.3586V38.4469Z" fill="white"/>
<path d="M57.4602 30.6831H58.7392V34.7238C58.7392 35.1324 58.7392 35.5863 58.6951 35.9949C58.651 36.4035 58.651 36.7214 58.651 36.8576H58.6951L62.9731 30.6377H64.5609V38.4012H63.326V34.4059C63.326 33.7703 63.3701 33.0439 63.4142 32.1813H63.3701L59.0479 38.4466H57.4602V30.6831V30.6831Z" fill="white"/>
<path d="M78.0128 34.5429C78.0128 35.8141 77.66 36.8129 76.9984 37.4939C76.3368 38.1749 75.3666 38.5381 74.0876 38.5381C72.8086 38.5381 71.8383 38.1749 71.1767 37.4939C70.5152 36.8129 70.1624 35.8141 70.1624 34.5429C70.1624 33.2717 70.5152 32.2729 71.1767 31.5918C71.8824 30.9108 72.8527 30.5476 74.0876 30.5476C75.3225 30.5476 76.2927 30.9108 76.9984 31.5918C77.7041 32.2729 78.0128 33.2717 78.0128 34.5429ZM71.6178 34.5429C71.6178 35.4963 71.8383 36.2227 72.2352 36.7221C72.6322 37.2215 73.2937 37.4485 74.0876 37.4485C74.9255 37.4485 75.4989 37.2215 75.9399 36.7221C76.381 36.2227 76.5574 35.4963 76.5574 34.5429C76.5574 33.5895 76.3369 32.863 75.9399 32.3636C75.543 31.8642 74.9255 31.6372 74.0876 31.6372C73.2496 31.6372 72.6322 31.8642 72.2352 32.3636C71.8383 32.863 71.6178 33.5895 71.6178 34.5429Z" fill="white"/>
<path d="M86.7892 38.4469H85.422V34.951H81.5409V38.4469H80.1737V30.6833H81.5409V33.8614H85.422V30.6833H86.7892V38.4469Z" fill="white"/>
<path d="M95.6539 38.4469H94.2867V31.773H91.9051C91.5964 34.043 91.3759 35.5866 91.1995 36.4038C91.0231 37.221 90.7585 37.8113 90.4497 38.1291C90.141 38.4469 89.7 38.5831 89.1266 38.5831C88.862 38.5831 88.5974 38.5377 88.3328 38.4469V37.4026C88.5533 37.4934 88.7738 37.5388 88.9502 37.5388C89.2148 37.5388 89.4353 37.4026 89.6117 37.0848C89.7882 36.767 89.9205 36.086 90.141 35.0418C90.3174 33.9976 90.5379 32.5448 90.8026 30.6833H95.6981V38.4469H95.6539Z" fill="white"/>
<path d="M103.46 38.4466L102.622 36.2673H99.4022L98.5642 38.4466H97.1088L100.24 30.6377H101.74L104.871 38.4466H103.46ZM102.269 35.2232L101.475 33.0893C101.431 32.9531 101.343 32.7261 101.255 32.4083C101.166 32.0905 101.078 31.8635 101.034 31.7273C100.946 32.1813 100.769 32.6353 100.593 33.1801L99.8432 35.2232H102.269Z" fill="white"/>
<path d="M106.371 30.6834H107.65V34.724C107.65 35.1326 107.65 35.5866 107.606 35.9952C107.562 36.4038 107.562 36.7216 107.562 36.8578H107.606L111.884 30.638H113.472V38.4015H112.193V34.4062C112.193 33.7706 112.237 33.0442 112.281 32.1815V32.1815L107.959 38.4469H106.371V30.6834ZM109.988 30.0477C109.194 30.0477 108.577 29.9115 108.224 29.6391C107.827 29.3667 107.65 28.9127 107.606 28.2771H108.841C108.885 28.5495 108.929 28.7311 109.018 28.8673C109.106 29.0035 109.238 29.0943 109.37 29.1851C109.547 29.2305 109.767 29.2759 110.076 29.2759C110.473 29.2759 110.738 29.1851 110.914 29.0489C111.09 28.9127 111.223 28.6403 111.267 28.2771H112.502C112.458 28.8673 112.193 29.3213 111.796 29.6391C111.399 29.9115 110.782 30.0477 109.988 30.0477Z" fill="white"/>
<path d="M122.689 38.4469H121.322V34.951H117.441V38.4469H116.073V30.6833H117.441V33.8614H121.322V30.6833H122.689V38.4469Z" fill="white"/>
<path d="M25.0025 7.05815H16.501V23.4957H8.59544V7.05815H0.125244V0.825439H25.0025V7.05815Z" fill="white"/>
<path d="M26.8538 12.1608C26.8538 4.76557 32.6574 0.0830078 41.7864 0.0830078C50.884 0.0830078 56.6877 4.76557 56.6877 12.1608C56.6877 19.5561 50.884 24.2387 41.7864 24.2387C32.626 24.2387 26.8538 19.5561 26.8538 12.1608ZM48.3116 12.1608C48.3116 8.41477 45.7392 5.96046 41.7864 5.96046C37.8336 5.96046 35.2298 8.41477 35.2298 12.1608C35.2298 15.8746 37.8336 18.3613 41.7864 18.3613C45.7392 18.3613 48.3116 15.8746 48.3116 12.1608Z" fill="white"/>
<path d="M58.8207 0.857422H66.7576V17.2627H80.6236V23.5277H58.8207V0.857422Z" fill="white"/>
<path d="M86.2693 16.0355L75.5718 0.857422H84.3557L89.5005 9.12466C90.0966 9.96429 90.2221 10.2549 90.3162 10.481H90.3789C90.4731 10.2226 90.5985 9.932 91.1946 9.12466L96.6218 0.857422H104.904L94.2062 16.0355V23.4954H86.2693V16.0355Z" fill="white"/>
<path d="M120.307 19.1683H109.986L108.292 23.4634H99.7593L109.986 0.825439H120.276L130.503 23.4634H122.001L120.307 19.1683ZM118.394 14.2596L116.857 10.3521C115.947 8.22071 115.476 6.92897 115.225 5.47575H115.131C114.849 6.92897 114.347 8.22071 113.5 10.3521L111.963 14.2596H118.394Z" fill="white"/>
<path d="M151.742 7.05815H143.24V23.4957H135.335V7.05815H126.865V0.825439H151.742V7.05815Z" fill="white"/>
<path d="M178.848 7.05815H170.346V23.4957H162.44V7.05815H153.97V0.825439H178.816V7.05815H178.848Z" fill="white"/>
<path d="M190.83 16.0355L180.133 0.857422H188.916L194.061 9.12466C194.657 9.96429 194.783 10.2549 194.877 10.481H194.94C195.034 10.2226 195.159 9.932 195.755 9.12466L201.183 0.857422H209.465L198.767 16.0355V23.4954H190.83V16.0355Z" fill="white"/>
<path d="M248.844 14.164H242.224V23.4H239.213V0.923584H249.879C255.683 0.923584 257.314 4.34673 257.314 7.51152C257.314 10.0304 255.965 12.9368 252.106 13.7442L258.067 23.4H254.553L248.844 14.164ZM242.256 11.6128H249.44C253.047 11.6128 254.177 9.6429 254.177 7.5438C254.177 5.44471 253.047 3.57166 249.471 3.57166H242.256V11.6128Z" fill="white"/>
<path d="M263.621 0.923584V14.3255C263.621 18.3299 266.162 21.3332 270.616 21.3332C275.071 21.3332 277.581 18.3622 277.581 14.3255V0.923584H280.624V14.487C280.624 20.0415 277.016 24.0136 270.616 24.0136C264.154 24.0136 260.609 20.0738 260.609 14.487V0.923584H263.621Z" fill="white"/>
<path d="M234.799 0.0830078H211.996V23.556H234.799V0.0830078Z" fill="#FF0013"/>
<path d="M234.799 0.0830078H223.398V11.8195H234.799V0.0830078Z" fill="#FF8E78"/>
<path d="M211.997 23.5559L223.398 23.5559L223.398 11.8194L211.997 11.8194L211.997 23.5559Z" fill="#CC0019"/>
</svg>
