<svg width="226" height="39" viewBox="0 0 226 39" fill="none" xmlns="http://www.w3.org/2000/svg">
<path d="M0.292114 1.19653H9.09804L18.7442 12.1871C19.5509 13.229 20.2231 14.0693 20.7272 15.1112H20.8953V11.4477V1.19653H28.5584V24.7574H20.2567L10.1736 13.7668C9.60218 13.061 8.49304 11.6157 8.15693 10.7755H7.98888V14.4054V24.7574H0.292114V1.19653Z" fill="white"/>
<path d="M30.9448 13.3637C30.9448 6.07029 36.9611 0.390137 46.8089 0.390137C54.3376 0.390137 60.085 3.28063 61.4631 8.08691L52.2202 9.56577C51.4472 7.78442 49.8339 6.33917 46.6073 6.33917C42.1707 6.33917 39.8852 9.028 39.8852 13.2293C39.8852 17.1617 42.2379 19.8169 46.6745 19.8169C50.9094 19.8169 53.1613 17.9011 53.3966 16.1198V16.0862H45.6325V11.1455H61.3958V24.724H54.909L54.6065 20.7916C53.4638 22.8419 50.5733 25.4971 44.3554 25.4971C35.8519 25.5643 30.9448 20.2875 30.9448 13.3637Z" fill="white"/>
<path d="M61.9675 20.6909L67.446 15.9182C69.7315 17.9348 73.4287 19.7498 77.4955 19.7498C81.0246 19.7498 82.6715 19.0776 82.6715 17.8676C82.6715 16.9601 82.0665 16.624 80.0835 16.4224L73.059 15.5821C67.0763 14.8427 64.1522 12.658 64.1522 8.08699C64.1522 3.31432 68.9249 0.423828 77.2939 0.423828C82.4699 0.423828 87.377 1.53297 90.9733 4.02014L86.3014 8.99447C84.352 7.31395 80.7221 6.10398 76.8569 6.10398C74.0337 6.10398 72.5548 6.67535 72.5548 7.71728C72.5548 8.65837 73.2606 9.02808 75.6133 9.26335L81.6968 9.86834C88.4861 10.5742 91.2086 12.5236 91.2086 17.0273C91.2086 22.5058 85.8981 25.5644 77.025 25.5644C70.7398 25.5644 64.8244 23.4133 61.9675 20.6909Z" fill="white"/>
<path d="M116.215 20.3547V24.7576H108.047V20.3547H91.9144V15.3467L107.174 1.70093H116.215V15.0442H121.324V20.3547H116.215V20.3547ZM108.249 7.1122H108.081C107.644 7.88524 106.871 8.75911 105.527 10.0699L102.603 12.8932C101.527 13.9015 100.989 14.3384 99.9137 15.0106H108.081V10.0027C108.081 8.52384 108.115 7.71718 108.249 7.1122Z" fill="white"/>
<path d="M122.164 19.5478C126.6 17.9009 131.709 15.5818 134.969 14.0693C138.095 12.5232 138.969 11.2796 138.969 9.56552C138.969 8.05305 137.591 6.91029 135.036 6.91029C132.381 6.91029 130.734 8.05305 130.734 10.2713C130.734 10.4394 130.734 10.641 130.768 11.0108L122.298 10.2713C122.265 9.90162 122.231 9.59912 122.231 9.1958C122.231 4.0198 127.945 1.19653 135.272 1.19653C142.532 1.19653 147.741 3.41482 147.741 8.79248C147.741 12.0527 146.33 13.834 142.8 15.649C140.481 16.9262 137.255 17.9345 134.028 18.7748H148.111V24.7574H122.197V19.5478H122.164Z" fill="white"/>
<path d="M191.3 15.0442H184.209V24.6567H180.982V1.26392H192.41C198.628 1.26392 200.375 4.82661 200.375 8.12043C200.375 10.742 198.93 13.767 194.796 14.6072L201.182 24.6567H197.418L191.3 15.0442ZM184.242 12.3889H191.939C195.804 12.3889 197.014 10.3387 197.014 8.15404C197.014 5.96937 195.804 4.01996 191.973 4.01996H184.242V12.3889Z" fill="white"/>
<path d="M207.13 1.26392V15.2122C207.13 19.3799 209.853 22.5057 214.625 22.5057C219.398 22.5057 222.087 19.4135 222.087 15.2122V1.26392H225.347V15.3803C225.347 21.1612 221.482 25.2953 214.625 25.2953C207.702 25.2953 203.904 21.1949 203.904 15.3803V1.26392H207.13Z" fill="white"/>
<path d="M6.14939 38.7711H4.68207L1.5888 35.321V38.7711H0.359436V31.9897H1.5888V35.2813L4.64242 31.9897H5.99075L2.93716 35.2813L6.14939 38.7711Z" fill="white"/>
<path d="M11.7409 38.7711H7.45795V31.9897H11.7409V32.9415H8.68734V34.8054H11.5426V35.7175H8.68734V37.859H11.7409V38.7711Z" fill="white"/>
<path d="M16.9767 38.7711L14.7956 33.1001H14.7559C14.7956 33.9329 14.8353 34.7261 14.8353 35.4796V38.7711H13.6852V31.9897H15.4301L17.5319 37.3831H17.5716L19.7131 31.9897H21.458V38.7711H20.2683V35.4003C20.2683 35.0434 20.2683 34.6071 20.308 34.0916C20.308 33.5364 20.3476 33.2191 20.3476 33.1001H20.308L18.0475 38.7711H16.9767Z" fill="white"/>
<path d="M28.0402 38.7711H23.7572V31.9897H28.0402V32.9415H24.9866V34.8054H27.8419V35.7175H24.9866V37.859H28.0402V38.7711Z" fill="white"/>
<path d="M35.019 34.0519C35.019 34.7658 34.7414 35.321 34.2259 35.6779C33.7103 36.0744 32.9569 36.2331 32.0051 36.2331H31.2119V38.7711H29.9825V31.9897H32.1637C33.1155 31.9897 33.8293 32.1484 34.3052 32.5053C34.7811 32.8622 35.019 33.3777 35.019 34.0519ZM31.2516 35.321H31.9258C32.5603 35.321 33.0362 35.2416 33.3138 35.0037C33.5914 34.7658 33.75 34.4881 33.75 34.0916C33.75 33.695 33.631 33.4174 33.3534 33.2191C33.0758 33.0208 32.6792 32.9415 32.124 32.9415H31.2516V35.321Z" fill="white"/>
<path d="M43.5453 35.4002C43.5453 36.5106 43.2281 37.3831 42.6332 37.978C42.0383 38.5728 41.1659 38.8901 40.0158 38.8901C38.8658 38.8901 37.9933 38.5728 37.3984 37.978C36.8036 37.3831 36.4863 36.5106 36.4863 35.4002C36.4863 34.2898 36.8036 33.4174 37.3984 32.8225C38.033 32.2277 38.9054 31.9104 40.0158 31.9104C41.1262 31.9104 41.9987 32.2277 42.6332 32.8225C43.2677 33.4174 43.5453 34.2898 43.5453 35.4002ZM37.795 35.4002C37.795 36.233 37.9933 36.8676 38.3502 37.3038C38.7071 37.74 39.302 37.9383 40.0158 37.9383C40.7693 37.9383 41.2849 37.74 41.6814 37.3038C42.078 36.8676 42.2366 36.233 42.2366 35.4002C42.2366 34.5674 42.0383 33.9329 41.6814 33.4967C41.3245 33.0605 40.7693 32.8622 40.0158 32.8622C39.2623 32.8622 38.7071 33.0605 38.3502 33.4967C37.9933 33.9329 37.795 34.5674 37.795 35.4002Z" fill="white"/>
<path d="M45.4883 31.9897H47.7488C48.7799 31.9897 49.5334 32.1087 50.0093 32.3863C50.4851 32.6639 50.7231 33.1001 50.7231 33.695C50.7231 34.0916 50.6041 34.4088 50.3662 34.6864C50.1282 34.964 49.811 35.1227 49.3748 35.202V35.2416C49.8903 35.321 50.2869 35.5192 50.5645 35.7572C50.8421 35.9951 50.9214 36.3917 50.9214 36.8279C50.9214 37.4228 50.6834 37.8987 50.2075 38.2556C49.7317 38.6125 49.0575 38.7711 48.2247 38.7711H45.4883V31.9897V31.9897ZM46.7177 34.8054H47.9074C48.423 34.8054 48.8196 34.7261 49.0575 34.5675C49.2954 34.4088 49.4144 34.1709 49.4144 33.814C49.4144 33.4967 49.2954 33.2588 49.0178 33.1398C48.7799 32.9812 48.3437 32.9415 47.7885 32.9415H46.7177V34.8054V34.8054ZM46.7177 35.7175V37.859H48.0264C48.5419 37.859 48.9385 37.7797 49.2161 37.5814C49.4937 37.4228 49.6127 37.1055 49.6127 36.7486C49.6127 36.3917 49.4937 36.1141 49.2161 35.9555C48.9385 35.7968 48.5419 35.7175 47.9867 35.7175H46.7177V35.7175Z" fill="white"/>
<path d="M59.4885 35.4002C59.4885 36.5106 59.1712 37.3831 58.5764 37.978C57.9419 38.5728 57.1091 38.8901 55.959 38.8901C54.8089 38.8901 53.9365 38.5728 53.3416 37.978C52.7468 37.3831 52.4295 36.5106 52.4295 35.4002C52.4295 34.2898 52.7468 33.4174 53.3416 32.8225C53.9365 32.2277 54.8486 31.9104 55.959 31.9104C57.0694 31.9104 57.9419 32.2277 58.5764 32.8225C59.2109 33.4174 59.4885 34.2898 59.4885 35.4002ZM53.7382 35.4002C53.7382 36.233 53.9365 36.8676 54.2934 37.3038C54.6503 37.74 55.2452 37.9383 55.959 37.9383C56.7125 37.9383 57.228 37.74 57.6246 37.3038C57.9815 36.8676 58.1798 36.233 58.1798 35.4002C58.1798 34.5674 57.9815 33.9329 57.6246 33.4967C57.2677 33.0605 56.7125 32.8622 55.959 32.8622C55.2055 32.8622 54.6503 33.0605 54.2934 33.4967C53.9365 33.9329 53.7382 34.5674 53.7382 35.4002Z" fill="white"/>
<path d="M71.2271 35.4002C71.2271 36.5106 70.9099 37.3831 70.315 37.978C69.6805 38.5728 68.8477 38.8901 67.6977 38.8901C66.5476 38.8901 65.6751 38.5728 65.0803 37.978C64.4854 37.3831 64.1682 36.5106 64.1682 35.4002C64.1682 34.2898 64.4854 33.4174 65.0803 32.8225C65.6751 32.2277 66.5873 31.9104 67.6977 31.9104C68.8081 31.9104 69.6805 32.2277 70.315 32.8225C70.9495 33.4174 71.2271 34.2898 71.2271 35.4002ZM65.4372 35.4002C65.4372 36.233 65.6355 36.8676 65.9924 37.3038C66.3493 37.74 66.9442 37.9383 67.658 37.9383C68.4115 37.9383 68.927 37.74 69.3236 37.3038C69.6805 36.8676 69.8788 36.233 69.8788 35.4002C69.8788 34.5674 69.6805 33.9329 69.3236 33.4967C68.9667 33.0605 68.4115 32.8622 67.658 32.8622C66.9045 32.8622 66.3493 33.0605 65.9924 33.4967C65.6355 33.9329 65.4372 34.5674 65.4372 35.4002Z" fill="white"/>
<path d="M79.1185 38.7711H77.8891V35.7175H74.3992V38.7711H73.1699V31.9897H74.3992V34.7658H77.8891V31.9897H79.1185V38.7711Z" fill="white"/>
<path d="M87.0902 38.7711H85.8609V32.9415H83.7194C83.4418 34.9244 83.2435 36.2727 83.0849 36.9866C82.9262 37.7004 82.6883 38.2159 82.4107 38.4935C82.1331 38.7711 81.7365 38.8901 81.221 38.8901C80.983 38.8901 80.7451 38.8505 80.5071 38.7711V37.859C80.7054 37.9383 80.9037 37.978 81.0624 37.978C81.3003 37.978 81.4986 37.859 81.6572 37.5814C81.8158 37.3038 81.9348 36.709 82.1331 35.7968C82.2917 34.8847 82.49 33.6157 82.7279 31.9897H87.1299V38.7711H87.0902Z" fill="white"/>
<path d="M94.1097 38.7712L93.3563 36.8677H90.4613L89.7078 38.7712H88.3991L91.2148 31.9502H92.5631L95.3788 38.7712H94.1097ZM93.039 35.9556L92.3252 34.0917C92.2855 33.9727 92.2062 33.7744 92.1269 33.4968C92.0476 33.2192 91.9683 33.0209 91.9286 32.902C91.8493 33.2985 91.6906 33.6951 91.532 34.171L90.8578 35.9556H93.039Z" fill="white"/>
<path d="M96.7266 31.9898H97.8766V35.5193C97.8766 35.8762 97.8766 36.2728 97.837 36.6297C97.7973 36.9866 97.7973 37.2642 97.7973 37.3832H97.837L101.684 31.9501H103.111V38.7315H101.961V35.2417C101.961 34.6865 102.001 34.0519 102.041 33.2985H102.001L98.1146 38.7712H96.6869V31.9898H96.7266ZM99.9784 31.4346C99.2646 31.4346 98.7094 31.3156 98.3921 31.0777C98.0352 30.8397 97.8766 30.4431 97.837 29.8879H98.9474C98.987 30.1259 99.0267 30.2845 99.106 30.4035C99.1853 30.5225 99.3043 30.6018 99.4233 30.6811C99.5819 30.7207 99.7802 30.7604 100.058 30.7604C100.415 30.7604 100.653 30.6811 100.811 30.5621C100.97 30.4431 101.089 30.2052 101.129 29.8879H102.239C102.199 30.4035 101.961 30.8001 101.604 31.0777C101.208 31.3156 100.692 31.4346 99.9784 31.4346Z" fill="white"/>
<path d="M111.401 38.7711H110.171V35.7175H106.681V38.7711H105.452V31.9897H106.681V34.7658H110.171V31.9897H111.401V38.7711Z" fill="white"/>
<path d="M176.391 0.390137H151.961V24.8201H176.391V0.390137Z" fill="#0086E6"/>
<path d="M176.392 0.390137H164.177V12.6051H176.392V0.390137Z" fill="#00B9F2"/>
<path d="M151.962 24.8201L164.177 24.8201L164.177 12.6051L151.962 12.6051L151.962 24.8201Z" fill="#005FAD"/>
</svg>
