<svg width="171" height="40" viewBox="0 0 171 40" fill="none" xmlns="http://www.w3.org/2000/svg">
<path fill-rule="evenodd" clip-rule="evenodd" d="M15.7072 9.15064C14.9087 8.93246 14.0769 9.36173 13.8536 10.1056C13.6262 10.8596 14.0779 11.639 14.8744 11.8613C15.6587 12.0602 16.4844 11.6218 16.7209 10.8748C16.9544 10.13 16.4895 9.35158 15.7072 9.15064ZM24.5155 28.6597C13.1976 35.8589 -2.09126 30.1961 2.77527 13.1957C5.72247 3.07081 18.1642 0.451541 25.4493 4.74528C38.261 12.1972 29.758 27.654 24.8975 25.8121C19.2214 23.5084 21.5157 16.4706 21.5157 11.8694C24.8884 10.9215 28.059 10.8748 29.7094 12.0642C31.0416 13.2861 26.5338 15.9997 23.8433 16.5782C23.7251 17.043 23.5987 17.4722 23.4744 17.9421C27.5647 16.3874 27.7204 17.9533 23.0317 19.4339C22.8923 19.9535 22.7558 20.47 22.6254 21.0079C26.9088 19.3811 28.4572 17.8081 26.9644 16.7223C30.232 14.9565 31.6601 12.4488 29.667 11.1955C27.2332 9.90669 24.3537 9.80927 21.4308 10.5257C20.9982 8.51435 20.0775 7.0256 18.4523 6.33653C17.3102 5.89305 15.5344 6.27868 14.371 7.34121C14.3771 7.34121 14.3741 7.34121 10.4566 5.42826C10.4647 5.43536 10.4586 5.40897 11.6987 9.54643C10.3565 10.7043 9.40951 12.5107 8.71213 14.375C8.65755 14.5089 8.75963 14.5424 9.00624 14.5089C10.0756 12.7979 10.8356 11.1011 12.8045 10.2741C12.955 10.0853 13.0531 9.77172 13.0329 9.52004C11.538 6.68563 13.0399 9.52004 11.5229 6.73028C14.2103 8.68179 11.5229 6.7384 14.2184 8.7163C16.3985 6.33247 19.4842 7.2245 19.5782 10.9895C12.577 13.2597 6.2258 19.6531 5.40915 24.8866C5.27372 25.8121 5.69619 26.8371 7.71861 26.6716C11.5249 26.3144 15.4222 23.3197 18.1935 20.1514C17.9469 19.7444 17.6983 19.2918 17.4527 18.8879C12.2829 25.9501 6.20761 26.8766 6.45119 25.3676C7.661 19.304 13.6686 14.4592 19.6641 12.2986C19.565 16.4645 18.0914 24.8074 24.1425 26.5499C32.5657 28.8129 39.6234 7.18797 22.3707 2.23358C12.2051 -0.864691 2.7126 5.44957 0.706361 14.1964C-1.76784 25.9582 3.32003 32.173 12.0636 33.9409C17.1626 34.8999 22.7184 33.676 26.6986 31.2211C26.5217 31.1714 24.4558 28.6729 24.5155 28.6597Z" fill="#F48120"/>
<path fill-rule="evenodd" clip-rule="evenodd" d="M42.4072 3.48272V1.47945C43.6493 1.39521 44.9925 1.21863 46.4459 0.897949V9.60314C46.643 8.99526 46.9978 8.44218 47.5395 7.98855C48.0782 7.50752 48.5664 7.27005 48.9979 7.27005C50.5393 7.18684 51.5429 8.06365 52.0007 9.8538C52.4808 11.6795 52.7436 13.8908 52.7921 16.5547C52.9225 23.9579 51.7066 27.6549 49.1263 27.6549C48.6331 27.5788 48.1227 27.32 47.5971 26.8593C47.0776 26.4148 46.6935 25.9804 46.4459 25.4781V32.8792H47.5971V34.7952H42.7791V32.8792H43.9798V25.4781C43.6998 25.9946 43.3249 26.4828 42.8337 26.9536C42.3597 27.3636 41.8583 27.6316 41.3277 27.6549C39.7409 27.7107 38.7322 26.7273 38.2896 24.6622C37.8459 22.6305 37.6316 20.1046 37.6316 17.1372C37.7145 10.5256 38.9637 7.25889 41.3803 7.27107C41.8745 7.27107 42.3839 7.50854 42.9064 7.92766C43.4168 8.3752 43.7817 8.9364 43.9798 9.63054V3.48272H42.4072ZM43.9798 14.9614C43.9798 11.712 43.3704 10.1065 42.1595 10.1258C41.7765 10.1258 41.4106 10.4424 41.0831 11.0351C40.7072 11.646 40.5101 12.6131 40.5101 13.8898C40.4605 15.4526 40.4282 16.6075 40.4282 17.3838C40.4282 19.7606 40.5101 21.6248 40.6738 22.9633C40.8385 24.3029 41.3651 24.9849 42.2424 25.0163C43.4027 25.0163 43.9798 23.8117 43.9798 21.4563V14.9614ZM46.4459 21.4584C46.4459 23.9021 47.0544 25.1361 48.252 25.1361C48.7321 25.1006 49.1263 24.6398 49.4548 23.8138C49.667 23.2993 49.8166 22.462 49.8661 21.2909C49.9136 19.653 49.949 18.3976 49.949 17.4904C49.949 16.8054 49.9409 16.2452 49.9207 15.8139C49.9146 15.3856 49.8995 14.9239 49.8661 14.386C49.9136 12.7785 49.7459 11.6298 49.3315 11.0127C48.9787 10.4343 48.5825 10.1268 48.1712 10.1268C47.022 10.1268 46.4469 11.3639 46.4469 13.8106V21.4584H46.4459ZM54.1576 17.466C54.1576 14.8742 54.5912 12.5289 55.4978 10.4323C56.3862 8.33664 57.7425 7.27005 59.5517 7.27005C61.3406 7.27005 62.6748 8.26864 63.5945 10.2729C64.5011 12.2813 64.9458 14.6763 64.9458 17.466C64.9458 20.2243 64.494 22.6295 63.5733 24.6388C62.6515 26.6482 61.3123 27.6539 59.5517 27.6539C57.7425 27.6305 56.3872 26.5366 55.4978 24.4714C54.5912 22.3423 54.1576 20.0153 54.1576 17.466ZM57.2817 17.466C57.2817 17.9602 57.2817 18.4656 57.2817 18.9538C57.2817 19.4632 57.2817 19.9828 57.2817 20.5115C57.4211 22.1292 57.6111 23.4078 57.8567 24.3039C58.1034 25.1493 58.6623 25.6435 59.5042 25.6435C60.3562 25.6435 60.9404 25.1645 61.2577 24.2481C61.5812 23.2982 61.758 22.0693 61.8207 20.5105C61.8399 19.8174 61.8541 18.8076 61.8541 17.465C61.8541 16.0686 61.8399 15.0426 61.8207 14.384C61.758 12.8587 61.5822 11.6135 61.2577 10.6525C60.9404 9.68534 60.3562 9.24186 59.5042 9.26622C58.6623 9.26622 58.0922 9.71071 57.8365 10.62C57.5849 11.5293 57.3969 12.7826 57.2817 14.384C57.2817 14.8792 57.2817 15.3836 57.2817 15.8961C57.2817 16.4086 57.2817 16.9393 57.2817 17.466ZM70.4703 17.9613V25.3015H71.6215V27.1515H66.3446V25.3015H67.514V9.60314H66.3446V7.76529H71.6215V9.60314H70.4703V15.7997H74.0987V9.60314H72.9031V7.76529H78.2638V9.60314H77.0257V25.3015H78.2628V27.1515H72.902V25.3015H74.0977V17.9613H70.4703ZM87.3247 27.1515H82.0459V25.3015H83.1991V9.79596C82.532 9.68737 82.0317 9.93905 81.7174 10.5165C81.6133 10.7195 81.5314 11.1173 81.4718 11.6977C81.4202 12.47 81.3717 13.0343 81.3646 13.3956C81.3646 13.7051 81.3475 14.04 81.3313 14.386C81.3141 14.7605 81.2899 15.0446 81.2676 15.271H79.4979V7.76529H89.8737V15.271H88.0656C88.0656 14.4459 88.0474 13.8106 88.0363 13.3956C87.9645 12.6192 87.916 12.058 87.8695 11.6977C87.8695 11.1924 87.7856 10.7773 87.6179 10.5165C87.3066 9.93905 86.8143 9.68737 86.123 9.79596V25.3015H87.3247V27.1515V27.1515ZM101.335 25.5126V27.2155C100.727 27.4874 100.184 27.6549 99.6917 27.6549C98.4536 27.5788 97.6349 26.8674 97.2569 25.5136C97.0103 25.9804 96.607 26.4828 96.041 26.909C95.472 27.3555 94.9394 27.6316 94.4128 27.6549C93.6396 27.6549 92.925 27.25 92.2499 26.4828C91.5758 25.6973 91.223 24.5617 91.2048 23.0445C91.1735 20.6272 91.79 18.8431 93.0393 17.6558C94.2794 16.4705 95.6944 15.6424 97.2569 15.1877V11.0949C97.2569 10.0273 96.8132 9.50876 95.942 9.46715C95.5296 9.46715 95.2173 9.54834 95.0404 9.71274C94.8403 9.87816 94.7089 10.1065 94.6584 10.3734C94.6261 10.4982 94.6432 10.7763 94.7069 11.1985C94.7261 11.3243 94.7665 11.4471 94.7989 11.5547C94.8484 11.6988 94.8737 11.7942 94.8737 11.919C94.9232 12.3645 94.9232 12.6963 94.8737 12.9003C94.7797 13.5204 94.5927 13.9568 94.2794 14.2805C93.9853 14.5677 93.6558 14.7169 93.2939 14.7169C92.8846 14.6773 92.539 14.4398 92.2499 14.0085C91.9558 13.5691 91.8143 12.9277 91.8143 12.0306C91.8486 11.1183 92.07 10.3074 92.4965 9.60416C92.925 8.87145 93.491 8.31126 94.2066 7.87184C94.9232 7.44257 95.6186 7.25889 96.2705 7.27107C97.1437 7.27107 98.0311 7.67598 98.9023 8.45131C99.7887 9.25303 100.217 10.7641 100.217 12.9825V22.8771C100.217 23.078 100.225 23.2566 100.242 23.3997C100.258 23.5479 100.266 23.8026 100.266 24.0857C100.266 24.6409 100.315 25.0052 100.43 25.1432C100.623 25.3969 100.924 25.5126 101.335 25.5126ZM97.2559 17.4904C95.4154 18.0282 94.3451 19.5038 94.0378 21.9597C93.8529 23.6646 94.2299 24.6398 95.2052 24.8073C95.661 24.8215 96.1168 24.585 96.5737 24.0015C97.0406 23.4677 97.2559 22.5635 97.2559 21.3376V17.4904ZM106.777 17.9613V25.3015H107.929V27.1515H102.65V25.3015H103.801V9.60314H102.65V7.76529H107.929V9.60314H106.777V15.7997H110.395V9.60314H109.215V7.76529H114.558V9.60314H113.323V25.3015H114.558V27.1515H109.215V25.3015H110.395V17.9613H106.777ZM115.92 27.1515V25.3096H117.07V9.60314H115.92V7.76529H121.117V9.60314H119.961V16.1691C120.642 16.303 121.136 16.1295 121.4 15.5998C121.674 15.0629 121.808 14.6255 121.808 14.2795C121.872 13.907 121.9 13.4859 121.915 13.016C121.93 12.5309 121.936 11.9586 121.936 11.3395C122.054 8.5396 122.974 7.18684 124.742 7.27005C125.445 7.27005 126.069 7.59175 126.578 8.26255C127.089 8.90798 127.348 9.77059 127.379 10.8686C127.411 11.7779 127.27 12.4487 126.979 12.8506C126.697 13.2383 126.376 13.4534 126.013 13.4534C125.652 13.4534 125.331 13.2738 125.055 12.8993C124.762 12.537 124.623 12.0296 124.65 11.3629C124.718 10.9113 124.772 10.553 124.864 10.3501C124.937 10.1857 124.995 10.0426 125.028 9.95935C125.087 9.83858 125.087 9.69651 125.028 9.60213C124.995 9.44889 124.893 9.35045 124.699 9.29869C124.535 9.25911 124.388 9.28144 124.247 9.43366C123.938 9.60213 123.811 10.0842 123.877 10.8676C123.953 12.5949 123.894 13.9324 123.689 14.8792C123.475 15.8656 123.007 16.5527 122.267 16.9931C124.624 17.532 125.72 19.3211 125.522 22.4387C125.462 22.8527 125.432 23.2221 125.402 23.4809C125.373 23.7996 125.391 24.0573 125.436 24.3303C125.49 24.6378 125.608 24.8509 125.807 25.0163C126.139 25.2152 126.491 25.3076 126.891 25.2995V27.1495C126.298 27.4844 125.701 27.6519 125.07 27.6519C124.269 27.5757 123.656 27.1495 123.234 26.362C122.805 25.607 122.582 24.2299 122.559 22.2925C122.559 20.957 122.46 20.1015 122.268 19.6337C121.823 18.4291 121.059 17.8923 119.961 18.0424V25.3076H121.117V27.1495H115.92V27.1515ZM138.822 25.5126V27.2155C138.241 27.4874 137.674 27.6549 137.18 27.6549C135.943 27.5788 135.117 26.8674 134.767 25.5136C134.498 25.9804 134.106 26.4828 133.538 26.909C132.954 27.3555 132.437 27.6316 131.923 27.6549C131.123 27.6549 130.432 27.25 129.757 26.4828C129.083 25.6973 128.729 24.5617 128.694 23.0445C128.662 20.6272 129.273 18.8431 130.527 17.6558C131.771 16.4705 133.183 15.6424 134.766 15.1877V11.0949C134.766 10.0273 134.292 9.50876 133.437 9.46715C133.02 9.46715 132.724 9.54834 132.526 9.71274C132.328 9.87816 132.212 10.1065 132.145 10.3734C132.111 10.4982 132.125 10.7763 132.197 11.1985C132.234 11.3243 132.272 11.4471 132.282 11.5547C132.338 11.6988 132.362 11.7942 132.362 11.919C132.433 12.3645 132.433 12.6963 132.362 12.9003C132.274 13.5204 132.101 13.9568 131.773 14.2805C131.47 14.5677 131.143 14.7169 130.78 14.7169C130.394 14.6773 130.034 14.4398 129.757 14.0085C129.443 13.5691 129.301 12.9277 129.301 12.0306C129.336 11.1183 129.578 10.3074 129.984 9.60416C130.431 8.87145 130.977 8.31126 131.704 7.87184C132.432 7.44257 133.103 7.25889 133.771 7.27107C134.621 7.27107 135.517 7.67598 136.416 8.45131C137.277 9.25303 137.721 10.7641 137.721 12.9825V22.8771C137.721 23.078 137.736 23.2566 137.757 23.3997C137.77 23.5479 137.775 23.8026 137.775 24.0857C137.775 24.6409 137.796 25.0052 137.941 25.1432C138.109 25.3969 138.441 25.5126 138.822 25.5126ZM134.768 17.4904C132.929 18.0282 131.837 19.5038 131.541 21.9597C131.345 23.6646 131.745 24.6398 132.692 24.8073C133.15 24.8215 133.61 24.585 134.092 24.0015C134.527 23.4677 134.769 22.5635 134.769 21.3376V17.4904H134.768ZM140.575 24.9747C140.533 24.2085 140.715 23.4911 141.112 22.8466C141.463 22.2093 141.926 21.8876 142.378 21.8876C142.87 21.8481 143.315 22.1292 143.776 22.7705C144.177 23.351 144.404 24.0512 144.404 24.8073C144.404 25.5309 144.194 26.1905 143.784 26.8166C143.411 27.4103 142.949 27.7097 142.449 27.7097C142.015 27.7097 141.616 27.4489 141.201 26.8349C140.786 26.293 140.611 25.6445 140.575 24.9747ZM150.204 9.93803C150.443 9.32609 150.791 8.74054 151.355 8.17832C151.92 7.59277 152.448 7.31166 152.943 7.27005C153.458 7.22946 154.116 7.42431 154.792 7.87083C155.481 8.34374 156.123 9.34335 156.625 10.8686C157.136 12.4294 157.408 14.6336 157.372 17.5492C157.335 21.2909 156.928 23.9254 156.087 25.3959C155.247 26.8836 154.215 27.6539 152.992 27.6539C151.785 27.5778 150.823 26.8187 150.203 25.3959V32.8772H151.354V34.7932H146.117V32.8772H147.284V9.93803H146.152V8.01088C146.848 7.92766 147.555 7.78051 148.283 7.57754C148.541 7.50854 148.778 7.45171 148.945 7.41213C149.109 7.34109 149.284 7.32891 149.453 7.32891C149.708 7.24671 149.952 7.17364 150.202 7.10463V9.93803H150.204ZM154.141 17.326C154.141 16.7475 154.13 16.2198 154.123 15.7317C154.111 15.2628 154.091 14.6265 154.091 13.8096C154.125 12.3645 153.975 11.3578 153.648 10.7864C153.271 10.1055 152.795 9.77972 152.341 9.8538C151.951 9.8538 151.519 10.1684 151.118 10.7864C150.696 11.4836 150.455 12.5116 150.426 13.8674C150.35 15.3937 150.309 16.5537 150.309 17.325C150.309 17.9014 150.318 18.4565 150.341 18.9436C150.36 19.4328 150.367 20.0924 150.367 20.8424C150.442 22.4397 150.621 23.5002 150.966 24.1365C151.333 24.8063 151.785 25.1493 152.283 25.1828C152.738 25.1828 153.156 24.8063 153.6 24.0837C153.93 23.4667 154.09 22.4001 154.09 20.8424C154.09 20.0924 154.111 19.4328 154.122 18.9436C154.13 18.4575 154.141 17.9024 154.141 17.326ZM165.575 21.1235L167.764 9.71274H166.564V7.76529H170.889V9.71274H170.017L166.564 26.4564C166.43 27.1526 166.186 28.1572 165.857 29.4796C165.396 31.5072 164.8 32.9279 164.098 33.6789C163.342 34.4147 162.625 34.777 161.863 34.7455C161.13 34.6876 160.465 34.3274 159.915 33.5632C159.334 32.8437 159.065 31.839 159.065 30.5664C159.104 29.6653 159.291 28.9782 159.627 28.5114C159.961 28.0984 160.303 27.8771 160.657 27.8771C161.055 27.8771 161.41 28.0984 161.721 28.5114C162.036 28.9782 162.192 29.4988 162.192 30.1879C162.192 30.9998 162.077 31.5752 161.815 31.9385C161.783 32.0044 161.721 32.0369 161.669 32.1019C161.633 32.1739 161.624 32.2044 161.584 32.2673C161.516 32.4012 161.516 32.5667 161.584 32.7635C161.714 32.8955 161.845 33.0091 161.978 33.0091C162.208 33.0274 162.474 32.8792 162.803 32.5484C163.227 32.0521 163.471 31.6148 163.581 31.2027C163.662 30.8384 163.797 30.1585 163.936 29.1629C164.034 28.686 164.134 28.1897 164.238 27.662C164.322 27.1536 164.395 26.7365 164.428 26.4574L159.782 9.71376H158.637V7.76529H164.002V9.71274H162.971L165.575 21.1235Z" fill="white"/>
<path d="M55.4778 39.1742C55.2837 39.2716 54.9391 39.3346 54.5075 39.3346C52.9955 39.3346 52.1313 38.0955 52.1313 36.0486C52.1313 33.4922 53.4766 32.5789 54.6541 32.5789C55.0856 32.5789 55.3808 32.6671 55.5172 32.7473L55.3191 33.6333C55.1635 33.5632 55.0058 33.5074 54.6925 33.5074C53.9749 33.5074 53.2411 34.163 53.2411 35.9795C53.2411 37.7596 53.9072 38.405 54.7016 38.405C54.9482 38.405 55.1948 38.3522 55.3494 38.2832L55.4778 39.1742Z" fill="white"/>
<path d="M57.2825 37.5461L56.9268 39.2804H55.907L57.3796 32.6404H58.6056L59.971 39.2804H58.9492L58.5954 37.5461H57.2825ZM58.4873 36.7291L58.2134 35.1988C58.1336 34.7654 58.0456 34.1545 57.9668 33.6938H57.9395C57.8698 34.1545 57.7717 34.7837 57.6929 35.1988L57.3978 36.7291H58.4873Z" fill="white"/>
<path d="M61.8243 32.6404V35.3865H63.3939V32.6404H64.446V39.2804H63.3939V36.3516H61.8243V39.2804H60.7742V32.6404H61.8243Z" fill="white"/>
<path d="M66.6623 32.6404V35.5814H66.7684L67.9934 32.6404H69.1435L67.584 35.7224C68.3198 35.9518 68.5634 36.5982 68.7403 37.404C68.8808 38.0494 68.9869 38.6877 69.184 39.2804H68.144C67.9762 38.8288 67.8792 38.227 67.7609 37.6952C67.6032 36.9067 67.4082 36.3516 66.7603 36.3516H66.6633V39.2804H65.6313V32.6404H66.6623Z" fill="white"/>
<path d="M70.7131 33.6055H69.5265V32.6404H72.9609V33.6055H71.7622V39.2804H70.7131V33.6055Z" fill="white"/>
<path d="M75.4514 35.4929V36.2713H73.4098V35.4929H75.4514Z" fill="white"/>
<path d="M79.9828 32.6404V39.2804H78.9327V33.5537H77.4025V39.2804H76.3534V32.6404H79.9828Z" fill="white"/>
<path d="M83.7905 36.2532H82.2209V38.361H84.0068V39.2794H81.1718V32.6404H83.8885V33.5537H82.2219V35.3764H83.7915V36.2532H83.7905Z" fill="white"/>
<path d="M85.6235 33.6055H84.4369V32.6404H87.8713V33.6055H86.6726V39.2804H85.6235V33.6055V33.6055Z" fill="white"/>
<path d="M91.2263 36.2532H89.6567V38.361H91.4426V39.2794H88.6075V32.6404H91.3243V33.5537H89.6577V35.3764H91.2273V36.2532H91.2263Z" fill="white"/>
<path d="M92.3258 32.7381C92.6664 32.658 93.0899 32.6062 93.5619 32.6062C94.2583 32.6062 94.8182 32.7381 95.2103 33.1096C95.5631 33.4455 95.74 33.959 95.74 34.5273C95.74 35.1981 95.554 35.6598 95.2498 36.015C94.8576 36.4818 94.2188 36.696 93.6589 36.696C93.5528 36.696 93.4649 36.696 93.3638 36.696V39.2797H92.3258V32.7381ZM93.3628 35.8283C93.4416 35.8476 93.5205 35.8476 93.6185 35.8476C94.3058 35.8476 94.6888 35.3767 94.6888 34.6064C94.6888 33.9884 94.4341 33.4647 93.7276 33.4647C93.5912 33.4647 93.4517 33.483 93.3628 33.5165V35.8283Z" fill="white"/>
<path d="M99.6924 32.6404V33.5436H97.6205V35.1988C97.7994 35.1724 97.955 35.1632 98.1309 35.1632C98.6999 35.1632 99.2022 35.3398 99.5549 35.6605C99.9289 36.0055 100.154 36.5099 100.154 37.1574C100.154 37.7835 99.9653 38.2737 99.6429 38.636C99.2204 39.0937 98.5635 39.3261 97.6811 39.3261C97.2 39.3261 96.8352 39.2987 96.5835 39.2621V32.6404H99.6924ZM97.6205 38.4493C97.7296 38.4726 97.8368 38.4817 97.955 38.4817C98.329 38.4817 98.612 38.3336 98.801 38.0951C98.9768 37.8718 99.0749 37.5633 99.0749 37.2274C99.0749 36.8824 98.9657 36.5891 98.7797 36.3689C98.5857 36.1557 98.2986 36.0055 97.956 36.0055C97.8499 36.0055 97.7397 36.0157 97.6215 36.039V38.4493H97.6205Z" fill="white"/>
<path d="M101.38 32.6404L102.067 35.2607C102.174 35.6615 102.263 36.0401 102.323 36.3607H102.363C102.42 36.0482 102.479 35.6331 102.549 35.2363L103.059 32.6404H104.118L103.224 35.9518C103.01 36.7393 102.743 37.7845 102.363 38.4929C102.058 39.0338 101.587 39.3981 101.058 39.3981C100.869 39.3981 100.732 39.3788 100.614 39.3525L100.653 38.4929C100.714 38.503 100.802 38.5122 100.918 38.5122C101.341 38.5122 101.666 37.9804 101.781 37.5826C101.822 37.4588 101.822 37.3421 101.772 37.202L100.251 32.6404H101.38Z" fill="white"/>
<path d="M104.666 32.7381C105.01 32.658 105.43 32.6062 105.901 32.6062C106.598 32.6062 107.158 32.7381 107.55 33.1096C107.904 33.4455 108.079 33.959 108.079 34.5273C108.079 35.1981 107.894 35.6598 107.59 36.015C107.198 36.4818 106.558 36.696 105.999 36.696C105.893 36.696 105.805 36.696 105.707 36.696V39.2797H104.667V32.7381H104.666ZM105.706 35.8283C105.783 35.8476 105.862 35.8476 105.962 35.8476C106.646 35.8476 107.029 35.3767 107.029 34.6064C107.029 33.9884 106.774 33.4647 106.068 33.4647C105.931 33.4647 105.794 33.483 105.706 33.5165V35.8283Z" fill="white"/>
<path d="M111.769 32.6404V33.5537H109.974V39.2804H108.924V32.6404H111.769Z" fill="white"/>
<path d="M117.794 35.8707C117.794 38.3702 116.921 39.3596 115.752 39.3596C114.438 39.3596 113.781 37.9501 113.781 35.9508C113.781 33.9587 114.527 32.5603 115.85 32.5603C117.243 32.5603 117.794 34.0846 117.794 35.8707ZM114.871 35.96C114.871 37.4041 115.145 38.4392 115.811 38.4392C116.489 38.4392 116.705 37.2519 116.705 35.9174C116.705 34.7138 116.507 33.4736 115.802 33.4736C115.144 33.4736 114.871 34.5697 114.871 35.96Z" fill="white"/>
<path d="M119.724 32.6404V35.3865H121.297V32.6404H122.346V39.2804H121.297V36.3516H119.724V39.2804H118.674V32.6404H119.724Z" fill="white"/>
<path d="M126.935 32.6404V39.2804H125.885V33.5537H124.729V35.5357C124.729 37.1482 124.65 38.5112 123.856 39.1028C123.64 39.2713 123.371 39.3697 123.089 39.3697L122.874 38.4827C123.02 38.4503 123.169 38.3853 123.275 38.2828C123.668 37.9002 123.756 37.0934 123.756 35.6422V32.6404H126.935Z" fill="white"/>
<path d="M129.063 37.5461L128.71 39.2804H127.691L129.164 32.6404H130.389L131.752 39.2804H130.733L130.381 37.5461H129.063ZM130.271 36.7291L129.997 35.1988C129.918 34.7654 129.83 34.1545 129.75 33.6938H129.723C129.653 34.1545 129.555 34.7837 129.476 35.1988L129.181 36.7291H130.271Z" fill="white"/>
<path d="M133.488 32.6401V34.5094C133.488 35.7048 133.439 36.7146 133.382 37.564H133.4C133.607 36.9257 133.951 36.0489 134.176 35.4471L135.257 32.6401H136.209V39.2801H135.287V37.43C135.287 36.0489 135.314 35.1294 135.367 34.3744H135.346C135.161 35.0746 134.856 35.8378 134.619 36.4487L133.529 39.2801H132.559V32.6401H133.488ZM133.893 31.3472C133.921 31.6739 134.04 31.9063 134.374 31.9063C134.688 31.9063 134.846 31.6739 134.874 31.3472H135.57C135.482 32.1083 135.072 32.4006 134.374 32.4006C133.717 32.4006 133.256 32.1083 133.197 31.3472H133.893V31.3472Z" fill="white"/>
<path d="M138.455 32.6404V35.3865H140.024V32.6404H141.073V39.2804H140.024V36.3516H138.455V39.2804H137.404V32.6404H138.455Z" fill="white"/>
</svg>
