<svg width="143" height="40" viewBox="0 0 143 40" fill="none" xmlns="http://www.w3.org/2000/svg">
<path d="M29.4825 19.7691C29.4825 24.7811 24.1314 27.7512 15.0308 27.7512C6.0029 27.7512 0.506104 24.9668 0.506104 20.4002C0.506104 17.4672 2.76307 15.3882 6.65815 14.6457C2.90869 13.3091 1.23416 11.2671 1.23416 8.14852C1.23416 3.6934 6.54894 0.834717 14.958 0.834717C23.4033 0.834717 28.7545 3.47065 28.7545 7.5917C28.7545 10.0791 26.7524 11.8612 23.3669 12.5295C27.6988 13.9774 29.4825 16.1679 29.4825 19.7691ZM20.1271 19.3978C20.1271 17.8756 18.7074 17.0589 14.8487 16.3906L12.1549 15.908C10.6624 16.6134 9.86158 17.6901 9.86158 19.0266C9.86158 21.0314 11.7181 22.1822 15.0671 22.1822C18.125 22.1822 20.1271 21.1057 20.1271 19.3978ZM10.444 8.29713C10.444 9.67082 11.8637 10.4133 15.1764 10.9331L17.5789 11.3043C17.6881 11.3043 17.8337 11.3414 17.943 11.3786C18.9986 10.6731 19.5082 9.78214 19.5082 8.66838C19.5082 7.07195 17.8701 6.21802 14.958 6.21802C12.2642 6.21802 10.444 7.03488 10.444 8.29713Z" fill="white"/>
<path d="M59.2969 18.3212C59.2969 24.1128 53.7636 27.7883 45.0271 27.7883C35.6716 27.7883 30.5752 23.1846 30.5752 14.7199C30.5752 5.88377 36.0356 0.871826 45.7551 0.871826C52.7444 0.871826 57.6588 3.35926 59.042 7.7772L49.8322 8.81681C49.2133 7.55445 47.6481 6.8862 45.3546 6.8862C41.8236 6.8862 39.8215 8.59406 39.3482 11.8611C41.4232 10.2276 44.1533 9.41081 47.5024 9.41081C55.1105 9.37374 59.2969 12.6037 59.2969 18.3212ZM50.0506 18.3582C50.0506 16.2049 48.3761 14.9426 45.4274 14.9426C42.9885 14.9426 40.9863 15.8708 39.6394 17.5415C40.3311 20.4002 42.042 21.8109 44.9906 21.8109C48.0121 21.8109 50.0506 20.4002 50.0506 18.3582Z" fill="white"/>
<path d="M105.53 16.1683H97.8494V26.7862H94.3547V0.946533H106.732C113.466 0.946533 115.359 4.88179 115.359 8.52016C115.359 11.416 113.794 14.7574 109.316 15.6856L116.233 26.7862H112.156L105.53 16.1683ZM97.8857 13.2352H106.222C110.408 13.2352 111.719 10.9705 111.719 8.55734C111.719 6.14415 110.408 3.99079 106.258 3.99079H97.8857V13.2352Z" fill="white"/>
<path d="M122.676 0.946045V16.3534C122.676 20.9571 125.625 24.4099 130.793 24.4099C135.963 24.4099 138.875 20.9942 138.875 16.3534V0.946045H142.406V16.5391C142.406 22.9249 138.22 27.4913 130.793 27.4913C123.295 27.4913 119.181 22.9619 119.181 16.5391V0.946045H122.676Z" fill="white"/>
<path d="M6.25771 39.2232H5.02004L3.34551 36.7358L1.67099 39.2232H0.506104L2.72665 36.0675L0.651722 33.1345H1.853L3.38192 35.4364L4.91081 33.1345H6.07569L4.00074 36.1046L6.25771 39.2232Z" fill="white"/>
<path d="M11.5722 39.2237L10.917 37.5159H8.3688L7.71355 39.2237H6.58508L9.06046 33.0979H10.2253L12.7007 39.2237H11.5722ZM10.6258 36.6992L10.0069 35.0285C9.97051 34.9171 9.89771 34.7314 9.8249 34.5086C9.7521 34.2859 9.6793 34.1003 9.64288 33.9889C9.57008 34.3231 9.42447 34.6943 9.27886 35.1028L8.69643 36.6992H10.6258Z" fill="white"/>
<path d="M19.1438 39.2232H18.0516V36.4759H14.9939V39.2232H13.9017V33.1345H14.9939V35.622H18.0516V33.1345H19.1438V39.2232Z" fill="white"/>
<path d="M23.4393 39.2232H22.3473V33.9885H20.3815V33.1345H25.3686V33.9885H23.403V39.2232H23.4393Z" fill="white"/>
<path d="M31.1214 37.4041C31.1214 37.9981 30.903 38.4807 30.4662 38.7777C30.0293 39.0747 29.4105 39.2603 28.5732 39.2603H26.6803V33.1717H27.7723V35.6591H28.5368C29.374 35.6591 29.9929 35.8076 30.4297 36.1046C30.903 36.3646 31.1214 36.8101 31.1214 37.4041ZM27.8088 38.4065H28.5368C29.01 38.4065 29.374 38.3322 29.6289 38.1837C29.8837 38.0352 29.9929 37.7753 29.9929 37.4041C29.9929 37.0699 29.8837 36.8472 29.6289 36.6987C29.374 36.5502 28.9736 36.4759 28.4276 36.4759H27.7723V38.4065H27.8088ZM33.16 39.2232H32.0678V33.1345H33.16V39.2232Z" fill="white"/>
<path d="M34.6156 37.3675V36.5508H36.9454V37.3675H34.6156Z" fill="white"/>
<path d="M41.3139 39.2232L39.3845 34.137H39.3481C39.3845 34.8795 39.4209 35.5849 39.4209 36.2531V39.2232H38.438V33.1345H39.967L41.8235 37.9981H41.8598L43.7528 33.1345H45.2817V39.2232H44.226V36.2161C44.226 35.9191 44.2261 35.5106 44.2624 35.0281C44.2624 34.5454 44.2989 34.2483 44.2989 34.137H44.2624L42.2603 39.2232H41.3139Z" fill="white"/>
<path d="M51.4327 39.2237L50.7774 37.5159H48.2292L47.5739 39.2237H46.4456L48.9209 33.0979H50.0858L52.5611 39.2237H51.4327ZM50.4862 36.6992L49.8673 35.0285C49.8309 34.9171 49.7581 34.7314 49.6853 34.5086C49.6125 34.2859 49.5397 34.1003 49.5033 33.9889C49.4305 34.3231 49.2849 34.6943 49.1393 35.1028L48.5568 36.6992H50.4862Z" fill="white"/>
<path d="M59.0047 39.2232H57.9127V36.4759H54.8548V39.2232H53.7627V33.1345H54.8548V35.622H57.9127V33.1345H59.0047V39.2232Z" fill="white"/>
<path d="M63.8473 33.9147C63.2284 33.9147 62.7188 34.1003 62.3911 34.5086C62.0271 34.917 61.8451 35.4739 61.8451 36.1793C61.8451 36.9218 62.0271 37.4787 62.3548 37.8872C62.6823 38.2956 63.1919 38.4441 63.8473 38.4441C64.1385 38.4441 64.3932 38.4069 64.6481 38.3698C64.9029 38.3327 65.1941 38.2584 65.4854 38.1842V39.038C64.9757 39.2237 64.3569 39.298 63.7016 39.298C62.7188 39.298 61.9907 39.038 61.4447 38.4812C60.935 37.9242 60.6802 37.1817 60.6802 36.1793C60.6802 35.5482 60.7894 34.9913 61.0442 34.5086C61.2991 34.026 61.6631 33.6548 62.1363 33.432C62.6095 33.1721 63.1919 33.0608 63.8108 33.0608C64.5025 33.0608 65.1213 33.2092 65.7038 33.4691L65.3033 34.286C65.0849 34.1745 64.8301 34.1002 64.5753 34.0259C64.3932 33.9517 64.1385 33.9147 63.8473 33.9147Z" fill="white"/>
<path d="M67.2323 33.135H68.2151V36.2908C68.2151 36.6248 68.2152 36.959 68.1787 37.2931C68.1423 37.6273 68.1422 37.85 68.1422 37.9614H68.1787L71.5641 33.0979H72.8382V39.1866H71.8554V36.0308C71.8554 35.5483 71.8917 34.9543 71.9281 34.286H71.8918L68.4699 39.1866H67.1958V33.135H67.2323Z" fill="white"/>
<path d="M74.8764 33.1349H75.8593V36.2906C75.8593 36.6248 75.8593 36.9588 75.8229 37.293C75.7865 37.6272 75.7865 37.8499 75.7865 37.9613H75.8229L79.2083 33.0977H80.4823V39.1864H79.4996V36.0308C79.4996 35.5481 79.5359 34.9541 79.5724 34.2858H79.5359L76.1141 39.1864H74.84V33.1349H74.8764ZM77.7158 32.6522C77.0606 32.6522 76.5873 32.5409 76.2961 32.3181C76.0049 32.0954 75.8229 31.7612 75.7865 31.2415H76.7694C76.7694 31.427 76.8422 31.6127 76.8785 31.724C76.9514 31.8355 77.0242 31.9097 77.1698 31.9469C77.279 31.984 77.4974 32.0211 77.7158 32.0211C78.007 32.0211 78.2254 31.9469 78.4075 31.8355C78.5531 31.7241 78.6623 31.5013 78.6987 31.2415H79.6815C79.6452 31.724 79.4631 32.0582 79.1355 32.281C78.8079 32.5037 78.3346 32.6522 77.7158 32.6522Z" fill="white"/>
<path d="M85.36 33.9147C84.7412 33.9147 84.2316 34.1003 83.9039 34.5086C83.5399 34.917 83.3578 35.4739 83.3578 36.1793C83.3578 36.9218 83.5399 37.4787 83.8676 37.8872C84.1951 38.2584 84.7048 38.4441 85.36 38.4441C85.6512 38.4441 85.9061 38.4069 86.1609 38.3698C86.4157 38.3327 86.7069 38.2584 86.9981 38.1842V39.038C86.4885 39.2237 85.8696 39.298 85.2144 39.298C84.2315 39.298 83.5034 39.038 82.9575 38.4812C82.4479 37.9242 82.193 37.1817 82.193 36.1793C82.193 35.5482 82.3023 34.9913 82.557 34.5086C82.8119 34.026 83.1759 33.6548 83.6492 33.432C84.1223 33.1721 84.7047 33.0608 85.3236 33.0608C86.0153 33.0608 86.6341 33.2092 87.2165 33.4691L86.8161 34.286C86.5977 34.1745 86.3429 34.1002 86.0881 34.0259C85.8332 33.9517 85.6148 33.9147 85.36 33.9147Z" fill="white"/>
<path d="M93.8061 39.2232H92.532L89.8018 36.1418V39.2232H88.7097V33.1345H89.8018V36.1046L92.4956 33.1345H93.6969L91.0031 36.0675L93.8061 39.2232Z" fill="white"/>
<path d="M103.562 36.1794C103.562 37.1818 103.307 37.9614 102.761 38.4812C102.215 39.001 101.451 39.298 100.468 39.298C99.4484 39.298 98.6839 39.0381 98.1379 38.4812C97.5919 37.9243 97.337 37.1447 97.337 36.1423C97.337 35.1399 97.5919 34.3602 98.1379 33.8404C98.6839 33.2835 99.4484 33.0237 100.468 33.0237C101.451 33.0237 102.215 33.2835 102.761 33.8404C103.307 34.3973 103.562 35.1769 103.562 36.1794ZM98.5019 36.1794C98.5019 36.9219 98.6839 37.516 99.0116 37.8872C99.3392 38.2585 99.8488 38.4812 100.468 38.4812C101.123 38.4812 101.596 38.2956 101.924 37.9243C102.251 37.5531 102.433 36.9591 102.433 36.2165C102.433 35.474 102.288 34.9171 101.96 34.5087C101.633 34.1374 101.159 33.9147 100.504 33.9147C99.8488 33.9147 99.3756 34.1004 99.0116 34.5087C98.6476 34.9171 98.5019 35.4369 98.5019 36.1794Z" fill="white"/>
<path d="M110.514 39.2232H109.423V36.4759H106.365V39.2232H105.273V33.1345H106.365V35.622H109.423V33.1345H110.514V39.2232Z" fill="white"/>
<path d="M117.541 39.2233H116.448V33.9885H114.555C114.301 35.7706 114.119 36.9957 113.973 37.6268C113.827 38.258 113.61 38.7035 113.355 38.9633C113.099 39.2233 112.736 39.3346 112.336 39.3346C112.117 39.3346 111.899 39.2975 111.717 39.2233V38.4065C111.899 38.4808 112.045 38.5178 112.226 38.5178C112.445 38.5178 112.627 38.4065 112.736 38.1466C112.845 37.9238 112.99 37.3669 113.136 36.5501C113.282 35.7334 113.464 34.5825 113.646 33.1345H117.541V39.2233Z" fill="white"/>
<path d="M123.692 39.2237L123.037 37.5159H120.489L119.834 39.2237H118.705L121.18 33.0979H122.345L124.821 39.2237H123.692ZM122.746 36.6992L122.127 35.0285C122.09 34.9171 122.018 34.7314 121.945 34.5086C121.872 34.2859 121.799 34.1003 121.762 33.9889C121.69 34.3231 121.545 34.6943 121.399 35.1028L120.817 36.6992H122.746Z" fill="white"/>
<path d="M125.985 33.1349H126.969V36.2906C126.969 36.6248 126.969 36.9588 126.932 37.293C126.895 37.6272 126.895 37.8499 126.895 37.9613H126.932L130.318 33.0977H131.591V39.1864H130.609V36.0308C130.609 35.5481 130.646 34.9541 130.681 34.2858H130.646L127.223 39.1864H125.949V33.1349H125.985ZM128.862 32.6522C128.206 32.6522 127.732 32.5409 127.441 32.3181C127.15 32.0954 126.969 31.7612 126.932 31.2415H127.915C127.915 31.427 127.988 31.6127 128.024 31.724C128.097 31.8355 128.169 31.9097 128.315 31.9469C128.425 31.984 128.643 32.0211 128.862 32.0211C129.153 32.0211 129.371 31.9469 129.553 31.8355C129.735 31.7241 129.807 31.5013 129.844 31.2415H130.827C130.791 31.724 130.609 32.0582 130.281 32.281C129.953 32.5409 129.481 32.6522 128.862 32.6522Z" fill="white"/>
<path d="M138.909 39.2232H137.817V36.4759H134.759V39.2232H133.667V33.1345H134.759V35.622H137.817V33.1345H138.909V39.2232Z" fill="white"/>
<path d="M90.0971 0.993652H77.0317V14.3527H90.0971V0.993652Z" fill="#FF8E78"/>
<path d="M77.0318 0.993652H63.9664V14.3527H77.0318V0.993652Z" fill="#FF0013"/>
<path d="M63.9669 27.7117L77.0322 27.7117L77.0322 14.3526L63.9669 14.3526L63.9669 27.7117Z" fill="#CC0019"/>
<path d="M77.0323 27.7117L90.0977 27.7117L90.0977 14.3526L77.0323 14.3526L77.0323 27.7117Z" fill="#FF0013"/>
</svg>
