<svg width="232" height="40" viewBox="0 0 232 40" fill="none" xmlns="http://www.w3.org/2000/svg">
<path d="M4.59684 38.8894L2.5992 32.83H2.56287C2.59919 33.7198 2.63551 34.5673 2.63551 35.3724V38.8894H1.61853V31.6436H3.21664L5.14165 37.4063H5.17796L7.13929 31.6436H8.7374V38.8894H7.64778V35.2877C7.64778 34.9063 7.64778 34.4402 7.6841 33.8893C7.6841 33.2961 7.72041 32.9571 7.72041 32.83H7.6841L5.61381 38.8894H4.59684Z" fill="white"/>
<path d="M15.1661 38.8898L14.476 36.8558H11.8246L11.1345 38.8898H9.93591L12.5147 31.6016H13.7496L16.3284 38.8898H15.1661ZM14.1491 35.8813L13.4954 33.8897C13.459 33.7626 13.3864 33.5507 13.3137 33.2541C13.2411 32.9575 13.1685 32.7456 13.1321 32.6185C13.0595 33.0422 12.9142 33.466 12.7689 33.9745L12.1515 35.8813H14.1491Z" fill="white"/>
<path d="M21.6675 31.6436V32.6605H18.6892V38.8894H17.5632V31.6436H21.6675V31.6436Z" fill="white"/>
<path d="M28.5322 38.8894H27.4063V35.6267H24.2101V38.8894H23.0841V31.6436H24.2101V34.6097H27.4063V31.6436H28.5322V38.8894Z" fill="white"/>
<path d="M30.675 31.6439H31.7283V35.4152C31.7283 35.7965 31.7283 36.2202 31.692 36.6016C31.6557 36.983 31.6557 37.2796 31.6557 37.4067H31.692L35.2151 31.6016H36.5227V38.8474H35.4694V35.1185C35.4694 34.5253 35.5057 33.8473 35.542 33.0422H35.5057L31.9463 38.8898H30.675V31.6439Z" fill="white"/>
<path d="M41.0265 38.8894H39.9006V32.6605H37.8666V31.6436H43.0604V32.6605H41.0265V38.8894V38.8894Z" fill="white"/>
<path d="M50.5425 35.2457C50.5425 36.4322 50.2519 37.3644 49.7071 38C49.1623 38.6356 48.3632 38.9746 47.3099 38.9746C46.2566 38.9746 45.4576 38.6356 44.9128 38C44.368 37.3644 44.0774 36.4322 44.0774 35.2457C44.0774 34.0593 44.368 33.1271 44.9128 32.4915C45.4939 31.8559 46.2929 31.5168 47.3099 31.5168C48.3269 31.5168 49.126 31.8559 49.7071 32.4915C50.2519 33.1694 50.5425 34.0593 50.5425 35.2457ZM45.276 35.2457C45.276 36.1356 45.4576 36.8135 45.7845 37.2796C46.1113 37.7457 46.6562 37.9576 47.3099 37.9576C48 37.9576 48.4722 37.7457 48.8354 37.2796C49.1986 36.8135 49.3439 36.1356 49.3439 35.2457C49.3439 34.3559 49.1623 33.6779 48.8354 33.2118C48.5085 32.7457 48 32.5338 47.3099 32.5338C46.6198 32.5338 46.1113 32.7457 45.7845 33.2118C45.4576 33.6779 45.276 34.3559 45.276 35.2457Z" fill="white"/>
<path d="M56.4265 31.6436V32.6605H53.4482V38.8894H52.3223V31.6436H56.4265V31.6436Z" fill="white"/>
<path d="M63.9811 35.2457C63.9811 36.4322 63.6905 37.3644 63.1457 38C62.6009 38.6356 61.8018 38.9746 60.7485 38.9746C59.6952 38.9746 58.8962 38.6356 58.3514 38C57.8066 37.3644 57.516 36.4322 57.516 35.2457C57.516 34.0593 57.8066 33.1271 58.3514 32.4915C58.9325 31.8559 59.7315 31.5168 60.7485 31.5168C61.7655 31.5168 62.5646 31.8559 63.1457 32.4915C63.7268 33.1694 63.9811 34.0593 63.9811 35.2457ZM58.7146 35.2457C58.7146 36.1356 58.8962 36.8135 59.223 37.2796C59.5499 37.7457 60.0948 37.9576 60.7485 37.9576C61.4386 37.9576 61.9108 37.7457 62.274 37.2796C62.6372 36.8135 62.7825 36.1356 62.7825 35.2457C62.7825 34.3559 62.6009 33.6779 62.274 33.2118C61.9471 32.7457 61.4386 32.5338 60.7485 32.5338C60.0584 32.5338 59.5499 32.7457 59.223 33.2118C58.8962 33.6779 58.7146 34.3559 58.7146 35.2457Z" fill="white"/>
<path d="M70.3736 33.847C70.3736 34.6097 70.1194 35.2029 69.6472 35.5843C69.175 35.9656 68.4849 36.1775 67.6132 36.1775H66.8868V38.8894H65.7609V31.6436H67.7585C68.6302 31.6436 69.284 31.813 69.7198 32.1944C70.1557 32.5757 70.3736 33.1266 70.3736 33.847ZM66.9231 35.2029H67.5406C68.1217 35.2029 68.5576 35.1182 68.8118 34.8639C69.0661 34.6521 69.2113 34.3131 69.2113 33.8893C69.2113 33.4656 69.1024 33.169 68.8481 32.9571C68.5939 32.7453 68.2307 32.6605 67.7222 32.6605H66.9231V35.2029Z" fill="white"/>
<path d="M74.9865 32.5762C74.3327 32.5762 73.8242 32.8305 73.461 33.2966C73.0978 33.7627 72.9162 34.4406 72.9162 35.2881C72.9162 36.1779 73.0978 36.8559 73.461 37.322C73.8242 37.7882 74.3327 38 75.0228 38C75.3133 38 75.6039 37.9576 75.8582 37.9152C76.1124 37.8729 76.403 37.7881 76.7299 37.661V38.678C76.185 38.8898 75.5676 39.017 74.8775 39.017C73.8605 39.017 73.0978 38.678 72.553 38.0424C72.0082 37.4068 71.7539 36.4746 71.7539 35.2881C71.7539 34.5254 71.8992 33.8898 72.1534 33.2966C72.4077 32.7457 72.8072 32.2796 73.2794 31.9829C73.7516 31.6863 74.369 31.5168 75.0228 31.5168C75.7129 31.5168 76.3667 31.6863 76.9841 31.9829L76.5846 32.9576C76.3667 32.8304 76.1124 32.7457 75.8582 32.661C75.6039 32.5762 75.277 32.5762 74.9865 32.5762Z" fill="white"/>
<path d="M83.7761 38.8894H82.4322L79.5992 35.2029V38.8894H78.4733V31.6436H79.5992V35.1605L82.3959 31.6436H83.6308L80.8341 35.1605L83.7761 38.8894Z" fill="white"/>
<path d="M93.9458 35.2457C93.9458 36.4322 93.6552 37.3644 93.1104 38C92.5656 38.6356 91.7665 38.9746 90.7132 38.9746C89.6599 38.9746 88.8609 38.6356 88.3161 38C87.7713 37.3644 87.4807 36.4322 87.4807 35.2457C87.4807 34.0593 87.7713 33.1271 88.3161 32.4915C88.8972 31.8559 89.6963 31.5168 90.7132 31.5168C91.7302 31.5168 92.5293 31.8559 93.1104 32.4915C93.6916 33.1271 93.9458 34.0593 93.9458 35.2457ZM88.643 35.2457C88.643 36.1356 88.8246 36.8135 89.1515 37.2796C89.4783 37.7457 90.0232 37.9576 90.6769 37.9576C91.367 37.9576 91.8392 37.7457 92.2024 37.2796C92.5656 36.8135 92.7109 36.1356 92.7109 35.2457C92.7109 34.3559 92.5293 33.6779 92.2024 33.2118C91.8755 32.7457 91.367 32.5338 90.6769 32.5338C89.9868 32.5338 89.4783 32.7457 89.1515 33.2118C88.8246 33.6779 88.643 34.3559 88.643 35.2457Z" fill="white"/>
<path d="M101.174 38.8894H100.048V35.6267H96.8515V38.8894H95.7256V31.6436H96.8515V34.6097H100.048V31.6436H101.174V38.8894Z" fill="white"/>
<path d="M108.474 38.8894H107.348V32.6605H105.387C105.133 34.7792 104.951 36.2199 104.806 36.9826C104.661 37.7453 104.443 38.2962 104.188 38.5928C103.934 38.8894 103.571 39.0166 103.099 39.0166C102.881 39.0166 102.663 38.9742 102.445 38.8894V37.9148C102.627 37.9995 102.808 38.0419 102.953 38.0419C103.171 38.0419 103.353 37.9148 103.498 37.6182C103.644 37.3216 103.753 36.686 103.934 35.7114C104.079 34.7368 104.261 33.3809 104.479 31.6436H108.511V38.8894H108.474Z" fill="white"/>
<path d="M114.903 38.8898L114.213 36.8558H111.561L110.871 38.8898H109.673L112.251 31.6016H113.486L116.065 38.8898H114.903ZM113.922 35.8813L113.268 33.8897C113.232 33.7626 113.16 33.5507 113.087 33.2541C113.014 32.9575 112.942 32.7456 112.905 32.6185C112.833 33.0422 112.687 33.466 112.542 33.9745L111.925 35.8813H113.922Z" fill="white"/>
<path d="M117.3 31.6438H118.353V35.415C118.353 35.7964 118.353 36.2201 118.317 36.6014C118.281 36.9828 118.281 37.2794 118.281 37.4065H118.317L121.84 31.6014H123.148V38.8473H122.094V35.1184C122.094 34.5251 122.131 33.8472 122.167 33.0421H122.131L118.571 38.8896H117.264V31.6438H117.3ZM120.278 31.0505C119.625 31.0505 119.116 30.9234 118.825 30.6692C118.499 30.4149 118.353 29.9912 118.317 29.3979H119.334C119.37 29.6522 119.407 29.8217 119.479 29.9488C119.552 30.0759 119.661 30.1607 119.77 30.2454C119.915 30.2878 120.097 30.3302 120.351 30.3302C120.678 30.3302 120.896 30.2454 121.041 30.1183C121.186 29.9912 121.295 29.7369 121.332 29.3979H122.349C122.312 29.9488 122.094 30.3725 121.767 30.6692C121.441 30.9658 120.932 31.0505 120.278 31.0505Z" fill="white"/>
<path d="M130.739 38.8894H129.613V35.6267H126.417V38.8894H125.291V31.6436H126.417V34.6097H129.613V31.6436H130.739V38.8894Z" fill="white"/>
<path d="M0.746826 1.32861H11.5836L15.2056 13.3967C15.5533 14.546 15.872 15.4587 15.9589 16.3714H16.0169C16.1038 15.4587 16.4225 14.5122 16.7702 13.3291L20.2473 1.32861H31.3739V25.0253H24.6805V12.0107C24.6805 10.5234 24.8254 8.73173 25.0862 7.00772H24.9413C24.7675 7.85282 24.101 10.1177 23.5795 11.7065L19.1752 25.0253H12.366L8.22249 11.7741C7.64298 9.94867 7.17937 8.12325 6.94757 7.00772H6.83167C7.09245 8.56271 7.12142 10.4219 7.12142 12.0107V25.0253H0.775803V1.32861H0.746826Z" fill="white"/>
<path d="M33.4602 13.5657C33.4602 6.23022 38.6468 0.517334 47.1366 0.517334C53.6271 0.517334 58.5819 3.42445 59.7699 8.25844L51.8017 9.74583C51.1352 7.95421 49.7444 6.50064 46.9628 6.50064C43.138 6.50064 41.1677 9.20497 41.1677 13.4305C41.1677 17.3856 43.1959 20.0561 47.0207 20.0561C50.6716 20.0561 52.613 18.1292 52.8158 16.3376V16.3038H46.1225V11.3346H59.683V24.9915H54.0907L53.8299 21.0364C52.8448 23.0985 50.3529 25.769 44.9924 25.769C37.6906 25.8028 33.4602 20.4955 33.4602 13.5657Z" fill="white"/>
<path d="M61.1027 13.16C61.1027 5.4189 66.4631 0.517334 74.895 0.517334C83.2978 0.517334 88.6583 5.4189 88.6583 13.16C88.6583 20.9012 83.2978 25.8028 74.895 25.8028C66.4631 25.8028 61.1027 20.9012 61.1027 13.16ZM80.9219 13.16C80.9219 9.23876 78.5459 6.66966 74.895 6.66966C71.2441 6.66966 68.8391 9.23876 68.8391 13.16C68.8391 17.0475 71.2441 19.6504 74.895 19.6504C78.5459 19.6504 80.9219 17.0475 80.9219 13.16Z" fill="white"/>
<path d="M102.219 17.2842H97.9597V25.0253H90.6289V1.32861H104.856C111.868 1.32861 113.896 5.28369 113.896 9.10356C113.896 11.7741 112.824 14.8165 109.666 16.27L114.592 25.0253H106.536L102.219 17.2842ZM97.9597 12.1798H103.117C105.464 12.1798 106.189 10.8952 106.189 9.4078C106.189 7.98803 105.435 6.77111 103.146 6.77111H97.9597V12.1798Z" fill="white"/>
<path d="M113.78 20.9349L118.503 16.1347C120.473 18.163 123.661 19.9884 127.167 19.9884C130.209 19.9884 131.629 19.3123 131.629 18.0954C131.629 17.1826 131.107 16.8446 129.398 16.6418L123.342 15.7967C118.184 15.053 115.663 12.8557 115.663 8.25833C115.663 3.45815 119.778 0.551025 126.993 0.551025C131.455 0.551025 135.685 1.66654 138.786 4.16805L134.758 9.17107C133.078 7.48087 129.948 6.26393 126.616 6.26393C124.182 6.26393 122.907 6.83857 122.907 7.8865C122.907 8.83301 123.516 9.20485 125.544 9.44148L130.789 10.05C136.642 10.7599 138.989 12.7205 138.989 17.2503C138.989 22.7603 134.411 25.8365 126.761 25.8365C121.314 25.8027 116.243 23.673 113.78 20.9349Z" fill="white"/>
<path d="M151.709 15.3911L148.348 19.1096V25.0253H141.017V1.32861H148.348V10.8276L157.099 1.32861H165.849L157.591 10.2191L157.07 10.6247L166.139 25.0591H157.794L151.709 15.3911Z" fill="white"/>
<path d="M202.395 15.2557H196.281V24.9236H193.499V1.396H203.351C208.711 1.396 210.218 4.97924 210.218 8.29204C210.218 10.9288 208.972 13.9711 205.408 14.8162L210.913 24.9236H207.668L202.395 15.2557ZM196.31 12.5851H202.945C206.277 12.5851 207.321 10.5231 207.321 8.32584C207.321 6.12857 206.277 4.16792 202.974 4.16792H196.31V12.5851Z" fill="white"/>
<path d="M216.042 1.396V15.4247C216.042 19.6164 218.389 22.7602 222.503 22.7602C226.618 22.7602 228.936 19.6502 228.936 15.4247V1.396H231.747V15.5937C231.747 21.408 228.414 25.5659 222.503 25.5659C216.534 25.5659 213.26 21.4418 213.26 15.5937V1.396H216.042Z" fill="white"/>
<path d="M189.418 0.516846H168.357V25.0876H189.418V0.516846Z" fill="#FF0013"/>
<path d="M189.418 0.516846H178.888V12.8022H189.418V0.516846Z" fill="#FF8E78"/>
<path d="M168.357 25.0876L178.888 25.0876L178.888 12.8023L168.357 12.8023L168.357 25.0876Z" fill="#CC0019"/>
</svg>
