<svg width="181" height="39" viewBox="0 0 181 39" fill="none" xmlns="http://www.w3.org/2000/svg">
<path d="M0.590912 1.19995H9.8828L20.0613 12.7971C20.9125 13.8965 21.6218 14.7831 22.1537 15.8825H22.3311V12.0168V1.19995H30.4171V26.061H21.6572L11.0177 14.4639C10.4148 13.7192 9.24443 12.1942 8.88978 11.3075H8.71245V15.1378V26.061H0.590912V1.19995Z" fill="white"/>
<path d="M32.8136 13.8155C32.8136 6.11959 39.1618 0.125977 49.5531 0.125977C57.4973 0.125977 63.5619 3.17598 65.016 8.2475L55.2631 9.80797C54.4474 7.92831 52.745 6.40331 49.3404 6.40331C44.659 6.40331 42.2473 9.24052 42.2473 13.6737C42.2473 17.8231 44.7299 20.6248 49.4113 20.6248C53.8799 20.6248 56.2561 18.6033 56.5043 16.7237V16.6882H48.3828V11.5103H64.9805V25.8382H58.1357L57.8165 21.6888C56.6107 23.8522 53.5607 26.6539 46.9996 26.6539C38.027 26.6539 32.8136 21.0859 32.8136 13.8155Z" fill="white"/>
<path d="M66.1103 21.5115L71.8911 16.4754C74.3028 18.6033 78.204 20.5184 82.4952 20.5184C86.2191 20.5184 87.9569 19.8091 87.9569 18.5324C87.9569 17.5748 87.3185 17.2202 85.2261 17.0074L77.8138 16.1208C71.501 15.3405 68.4156 13.0353 68.4156 8.21203C68.4156 3.17598 73.4516 0.125977 82.2824 0.125977C87.7441 0.125977 92.922 1.29633 96.7168 3.92075L91.7871 9.16959C89.7302 7.39634 85.8999 6.11959 81.8214 6.11959C78.8423 6.11959 77.2819 6.7225 77.2819 7.82192C77.2819 8.81494 78.0266 9.20506 80.5092 9.45332L86.9284 10.0917C94.0924 10.8365 96.965 12.8934 96.965 17.6458C96.965 23.4266 91.3615 26.6539 81.9987 26.6539C75.3667 26.6185 69.1249 24.3842 66.1103 21.5115Z" fill="white"/>
<path d="M143.833 16.0632H136.184V26.4312H132.704V1.19995H145.029C151.736 1.19995 153.621 5.04264 153.621 8.59531C153.621 11.4229 152.062 14.6856 147.603 15.5919L154.491 26.4312H150.431L143.833 16.0632ZM136.22 13.163H144.522C148.691 13.163 149.996 10.9517 149.996 8.59531C149.996 6.23894 148.691 4.13634 144.558 4.13634H136.22V13.163Z" fill="white"/>
<path d="M160.888 1.19971V16.2442C160.888 20.7394 163.825 24.1108 168.972 24.1108C174.12 24.1108 177.02 20.7757 177.02 16.2442V1.19971H180.537V16.4254C180.537 22.6607 176.368 27.1197 168.972 27.1197C161.504 27.1197 157.408 22.697 157.408 16.4254V1.19971H160.888V1.19971Z" fill="white"/>
<path d="M5.91072 38.4129H4.81129V35.6821H1.69035V38.4129H0.590942V32.3484H1.69035V34.831H4.81129V32.3484H5.91072V38.4129Z" fill="white"/>
<path d="M14.4223 35.4693C14.4223 36.4623 14.1386 37.2426 13.6066 37.7746C13.0392 38.3065 12.2944 38.5903 11.2659 38.5903C10.2374 38.5903 9.45722 38.3065 8.92524 37.7746C8.39327 37.2426 8.10953 36.4623 8.10953 35.4693C8.10953 34.4763 8.39327 33.6961 8.92524 33.1641C9.45722 32.6321 10.2729 32.3484 11.2659 32.3484C12.259 32.3484 13.0392 32.6321 13.6066 33.1641C14.1741 33.6961 14.4223 34.4763 14.4223 35.4693ZM9.2799 35.4693C9.2799 36.2141 9.45721 36.7815 9.7764 37.1717C10.0956 37.5618 10.6276 37.7391 11.2659 37.7391C11.9398 37.7391 12.4008 37.5618 12.7555 37.1717C13.0747 36.7815 13.252 36.2141 13.252 35.4693C13.252 34.7246 13.0747 34.1571 12.7555 33.767C12.4363 33.3769 11.9398 33.1996 11.2659 33.1996C10.5921 33.1996 10.0956 33.3769 9.7764 33.767C9.45721 34.1571 9.2799 34.7246 9.2799 35.4693Z" fill="white"/>
<path d="M15.6282 32.3484H17.6497C18.5718 32.3484 19.2457 32.4548 19.6712 32.703C20.0968 32.9513 20.3096 33.3414 20.3096 33.8734C20.3096 34.228 20.2032 34.5118 19.9904 34.76C19.7776 35.0083 19.4939 35.1501 19.1038 35.2211V35.2565C19.5648 35.3275 19.9195 35.5048 20.1677 35.7176C20.416 35.9304 20.4869 36.285 20.4869 36.6751C20.4869 37.2071 20.2742 37.6327 19.8486 37.9519C19.423 38.2711 18.8201 38.4129 18.0753 38.4129H15.6282V32.3484V32.3484ZM16.7276 34.8664H17.7916C18.2526 34.8664 18.6073 34.7955 18.8201 34.6536C19.0329 34.5118 19.1393 34.299 19.1393 33.9798C19.1393 33.6961 19.0329 33.4833 18.7846 33.3769C18.5364 33.2705 18.1817 33.1996 17.6852 33.1996H16.7276V34.8664V34.8664ZM16.7276 35.6821V37.5972H17.898C18.359 37.5972 18.7137 37.5263 18.9619 37.349C19.2102 37.2071 19.3166 36.9234 19.3166 36.6042C19.3166 36.285 19.2102 36.0368 18.9619 35.8949C18.7137 35.753 18.359 35.6821 17.8625 35.6821H16.7276V35.6821Z" fill="white"/>
<path d="M28.3855 35.4693C28.3855 36.4623 28.1018 37.2426 27.5698 37.7746C27.0024 38.3065 26.2576 38.5903 25.2291 38.5903C24.2006 38.5903 23.4204 38.3065 22.8884 37.7746C22.3564 37.2426 22.0727 36.4623 22.0727 35.4693C22.0727 34.4763 22.3564 33.6961 22.8884 33.1641C23.4204 32.6321 24.2361 32.3484 25.2291 32.3484C26.2221 32.3484 27.0024 32.6321 27.5698 33.1641C28.1018 33.7315 28.3855 34.4763 28.3855 35.4693ZM23.2076 35.4693C23.2076 36.2141 23.3849 36.7815 23.7041 37.1717C24.0233 37.5618 24.5553 37.7391 25.1936 37.7391C25.8675 37.7391 26.3285 37.5618 26.6832 37.1717C27.0024 36.7815 27.1797 36.2141 27.1797 35.4693C27.1797 34.7246 27.0024 34.1571 26.6832 33.767C26.364 33.3769 25.8675 33.1996 25.1936 33.1996C24.5198 33.1996 24.0233 33.3769 23.7041 33.767C23.3849 34.1571 23.2076 34.7246 23.2076 35.4693Z" fill="white"/>
<path d="M32.7478 33.235C32.1094 33.235 31.6129 33.4478 31.2582 33.8379C30.9036 34.228 30.7263 34.7955 30.7263 35.5048C30.7263 36.2496 30.9036 36.817 31.2582 37.2071C31.6129 37.5972 32.1094 37.7746 32.7832 37.7746C33.067 37.7746 33.3507 37.7391 33.5989 37.7036C33.8827 37.6682 34.1309 37.5972 34.4501 37.4908V38.342C33.9181 38.5193 33.3152 38.6257 32.6414 38.6257C31.6484 38.6257 30.9036 38.342 30.3716 37.81C29.8396 37.278 29.5914 36.4978 29.5914 35.5048C29.5914 34.8664 29.7332 34.3344 29.9815 33.8379C30.2298 33.3769 30.6199 32.9868 31.0809 32.7385C31.542 32.4903 32.1449 32.3484 32.7832 32.3484C33.4571 32.3484 34.0955 32.4903 34.6984 32.7385L34.3082 33.5542C34.0954 33.4478 33.8472 33.3769 33.5989 33.3059C33.3507 33.235 33.0315 33.235 32.7478 33.235Z" fill="white"/>
<path d="M36.0713 32.3839H37.0998V35.5403C37.0998 35.8594 37.0998 36.2141 37.0643 36.5333C37.0289 36.8525 37.0289 37.1007 37.0289 37.2071H37.0643L40.5045 32.3484H41.7812V38.4129H40.7527V35.292C40.7527 34.7955 40.7882 34.228 40.8237 33.5542H40.7882L37.3126 38.4484H36.0359V32.3839H36.0713Z" fill="white"/>
<path d="M48.1294 36.6042C48.1294 37.81 47.2428 38.4484 45.505 38.4484H43.5544V32.3484H47.6684V33.1996H44.6539V34.831H45.4696C47.2428 34.831 48.1294 35.3984 48.1294 36.6042ZM44.6539 37.5972H45.4341C45.9661 37.5972 46.3562 37.5263 46.6044 37.349C46.8527 37.2071 46.9591 36.9234 46.9591 36.6042C46.9591 36.285 46.8527 36.0368 46.6044 35.8949C46.3562 35.753 45.9306 35.6821 45.2922 35.6821H44.6184V37.5972H44.6539Z" fill="white"/>
<path d="M50.0345 32.3839H51.063V35.5403C51.063 35.8594 51.063 36.2141 51.0275 36.5333C50.9921 36.8525 50.9921 37.1007 50.9921 37.2071H51.0275L54.4677 32.3484H55.7444V38.4129H54.7159V35.292C54.7159 34.7955 54.7514 34.228 54.7868 33.5542H54.7514L51.2758 38.4484H49.999V32.3839H50.0345Z" fill="white"/>
<path d="M62.0217 34.1926C62.0217 34.8309 61.7734 35.3275 61.3124 35.6467C60.8513 36.0013 60.1775 36.1432 59.3263 36.1432H58.617V38.4129H57.5176V32.3484H59.4682C60.3194 32.3484 60.9577 32.4903 61.3833 32.8094C61.8089 33.1286 62.0217 33.5897 62.0217 34.1926ZM58.6525 35.3275H59.2554C59.8229 35.3275 60.2484 35.2211 60.4967 35.0437C60.745 34.8664 60.8868 34.5827 60.8868 34.228C60.8868 33.8734 60.7804 33.6251 60.5322 33.4478C60.2839 33.2705 59.9293 33.1996 59.4327 33.1996H58.6525V35.3275Z" fill="white"/>
<path d="M67.1186 33.235C66.4802 33.235 65.9837 33.4478 65.629 33.8379C65.2744 34.228 65.097 34.7955 65.097 35.5048C65.097 36.2496 65.2744 36.817 65.629 37.2071C65.9837 37.5972 66.4802 37.7746 67.154 37.7746C67.4377 37.7746 67.7215 37.7391 67.9697 37.7036C68.2535 37.6682 68.5017 37.5972 68.8209 37.4908V38.342C68.2889 38.5193 67.686 38.6257 67.0122 38.6257C66.0192 38.6257 65.2744 38.342 64.7424 37.81C64.2104 37.278 63.9622 36.4978 63.9622 35.5048C63.9622 34.8664 64.104 34.3344 64.3523 33.8379C64.6005 33.3414 64.9907 32.9868 65.4517 32.7385C65.9127 32.4903 66.5157 32.3484 67.154 32.3484C67.8279 32.3484 68.4662 32.4903 69.0692 32.7385L68.679 33.5542C68.4663 33.4478 68.218 33.3769 67.9697 33.3059C67.7215 33.235 67.4023 33.235 67.1186 33.235Z" fill="white"/>
<path d="M75.5846 38.4129H74.2724L71.5061 35.3275V38.4129H70.4067V32.3484H71.5061V35.292L74.237 32.3484H75.4428L72.7119 35.292L75.5846 38.4129Z" fill="white"/>
<path d="M85.3122 35.4693C85.3122 36.4623 85.0285 37.2426 84.4965 37.7746C83.9291 38.3065 83.1843 38.5903 82.1558 38.5903C81.1273 38.5903 80.3471 38.3065 79.8151 37.7746C79.2831 37.2426 78.9994 36.4623 78.9994 35.4693C78.9994 34.4763 79.2831 33.6961 79.8151 33.1641C80.3471 32.6321 81.1628 32.3484 82.1558 32.3484C83.1488 32.3484 83.9291 32.6321 84.4965 33.1641C85.0639 33.6961 85.3122 34.4763 85.3122 35.4693ZM80.1697 35.4693C80.1697 36.2141 80.347 36.7815 80.6662 37.1717C80.9854 37.5618 81.5174 37.7391 82.1558 37.7391C82.8296 37.7391 83.2907 37.5618 83.6453 37.1717C83.9645 36.7815 84.1418 36.2141 84.1418 35.4693C84.1418 34.7246 83.9645 34.1571 83.6453 33.767C83.3261 33.3769 82.8296 33.1996 82.1558 33.1996C81.4819 33.1996 80.9854 33.3769 80.6662 33.767C80.3116 34.1571 80.1697 34.7246 80.1697 35.4693Z" fill="white"/>
<path d="M92.9119 38.4129H91.8125V35.6821H88.6915V38.4129H87.5921V32.3484H88.6915V34.831H91.8125V32.3484H92.9119V38.4129Z" fill="white"/>
<path d="M99.9239 38.4129H98.8245V33.1996H96.9093C96.6611 34.9728 96.4838 36.1786 96.3419 36.817C96.2 37.4554 95.9873 37.9164 95.739 38.1647C95.4907 38.4129 95.1361 38.5193 94.675 38.5193C94.4623 38.5193 94.2494 38.4839 94.0367 38.4129V37.5972C94.214 37.6682 94.3913 37.7036 94.5332 37.7036C94.746 37.7036 94.9233 37.5972 95.0652 37.349C95.207 37.1007 95.3134 36.5687 95.4907 35.753C95.6326 34.9373 95.8099 33.8025 96.0227 32.3484H99.9594V38.4129H99.9239Z" fill="white"/>
<path d="M105.588 38.4484L104.914 36.7461H102.325L101.652 38.4484H100.481L102.999 32.3484H104.205L106.723 38.4484H105.588ZM104.631 35.9304L103.992 34.2635C103.957 34.1571 103.886 33.9798 103.815 33.7315C103.744 33.4833 103.673 33.3059 103.638 33.1996C103.567 33.5542 103.425 33.9089 103.283 34.3344L102.68 35.9304H104.631Z" fill="white"/>
<path d="M108.035 32.0799H109.064V35.2363C109.064 35.5554 109.064 35.9101 109.028 36.2293C108.993 36.5485 108.993 36.7967 108.993 36.9031H109.028L112.468 32.0444H113.745V38.1089H112.717V34.988C112.717 34.4915 112.752 33.924 112.788 33.2502H112.752L109.277 38.1444H108V32.0799H108.035ZM110.943 31.5833C110.305 31.5833 109.808 31.4769 109.525 31.2642C109.206 31.0514 109.064 30.6967 109.028 30.2002H110.021C110.057 30.413 110.092 30.5548 110.163 30.6612C110.234 30.7676 110.34 30.8386 110.447 30.9095C110.589 30.945 110.766 30.9804 111.014 30.9804C111.334 30.9804 111.546 30.9095 111.688 30.8031C111.83 30.6967 111.936 30.4839 111.972 30.2002H112.965C112.929 30.6612 112.717 31.0159 112.397 31.2642C112.078 31.4769 111.582 31.5833 110.943 31.5833Z" fill="white"/>
<path d="M121.912 38.4129H120.813V35.6821H117.692V38.4129H116.592V32.3484H117.692V34.831H120.813V32.3484H121.912V38.4129Z" fill="white"/>
<path d="M128.407 1.19971H115.518V14.0888H128.407V1.19971Z" fill="#00B9F2"/>
<path d="M115.518 1.19995H102.629V14.089H115.518V1.19995Z" fill="#0086E6"/>
<path d="M102.63 26.978L115.519 26.978L115.519 14.089L102.63 14.089L102.63 26.978Z" fill="#005FAD"/>
<path d="M115.519 26.978L128.408 26.978L128.408 14.089L115.519 14.089L115.519 26.978Z" fill="#0086E6"/>
</svg>
