<svg width="245" height="39" viewBox="0 0 245 39" fill="none" xmlns="http://www.w3.org/2000/svg">
<path d="M0.163147 1.20117H9.67919L20.1032 13.078C20.9749 14.204 21.7013 15.112 22.2462 16.238H22.4278V12.279V1.20117H30.7089V26.662H21.7377L10.8415 14.7851C10.224 14.0224 9.02542 12.4606 8.66221 11.5526H8.48061V15.4752V26.662H0.163147V1.20117Z" fill="white"/>
<path d="M33.2511 14.3491C33.2511 6.46754 39.7525 0.329346 50.3945 0.329346C58.5303 0.329346 64.7412 3.45293 66.2304 8.64679L56.2421 10.2449C55.4068 8.3199 53.6634 6.75811 50.1766 6.75811C45.3822 6.75811 42.9124 9.66377 42.9124 14.2039C42.9124 18.4534 45.4549 21.3227 50.2492 21.3227C54.8256 21.3227 57.2591 19.2524 57.5134 17.3274V17.2911H49.1959V11.952H66.194V26.6255H59.1841L58.8572 22.376C57.6223 24.5916 54.4987 27.4609 47.7794 27.4609C38.5902 27.4972 33.2511 21.7949 33.2511 14.3491Z" fill="white"/>
<path d="M66.812 22.2674L72.7323 17.1098C75.2021 19.2891 79.1974 21.2504 83.5922 21.2504C87.4059 21.2504 89.1856 20.524 89.1856 19.2164C89.1856 18.2358 88.5318 17.8726 86.3889 17.6546L78.7979 16.7466C72.3328 15.9476 69.1729 13.5867 69.1729 8.6471C69.1729 3.48956 74.3304 0.365967 83.3743 0.365967C88.9677 0.365967 94.2705 1.56455 98.1568 4.25229L93.1082 9.62775C91.0016 7.81171 87.079 6.50417 82.9021 6.50417C79.8512 6.50417 78.253 7.12162 78.253 8.24757C78.253 9.26455 79.0158 9.66408 81.5582 9.91832L88.1323 10.5721C95.4691 11.3348 98.4111 13.4414 98.4111 18.3084C98.4111 24.2287 92.6724 27.5339 83.0837 27.5339C76.2917 27.4975 69.8993 25.2093 66.812 22.2674Z" fill="white"/>
<path d="M99.4273 21.0323C104.222 19.2526 109.742 16.7464 113.266 15.112C116.643 13.4413 117.588 12.0974 117.588 10.245C117.588 8.6106 116.099 7.3757 113.338 7.3757C110.469 7.3757 108.689 8.6106 108.689 11.0078C108.689 11.1894 108.689 11.4073 108.725 11.8068L99.5726 11.0078C99.5363 10.6082 99.5 10.2814 99.5 9.8455C99.5 4.25211 105.674 1.20117 113.592 1.20117C121.438 1.20117 127.067 3.59834 127.067 9.40965C127.067 12.9328 125.542 14.8578 121.728 16.8191C119.222 18.1993 115.735 19.2889 112.249 20.1969H127.431V26.662H99.4273V21.0323V21.0323Z" fill="white"/>
<path d="M154.925 21.8677V26.6257H146.099V21.8677H128.665V16.4559L145.155 1.70972H154.925V16.129H160.446V21.8677H154.925V21.8677ZM146.317 7.59367H146.136C145.664 8.42904 144.828 9.37339 143.375 10.7899L140.215 13.8408C139.053 14.9305 138.472 15.4026 137.31 16.129H146.136V10.7172C146.136 9.11914 146.172 8.24744 146.317 7.59367Z" fill="white"/>
<path d="M5.90157 38.7206H4.5577L1.72469 35.5607V38.7206H0.598755V32.5098H1.72469V35.5244L4.52139 32.5098H5.7563L2.9596 35.5244L5.90157 38.7206Z" fill="white"/>
<path d="M11.6762 34.3984C11.6762 35.0522 11.4219 35.5607 10.9497 35.8876C10.4776 36.2508 9.78746 36.3961 8.91576 36.3961H8.18935V38.7206H7.06342V32.5098H9.06106C9.93275 32.5098 10.5865 32.6551 11.0224 32.9819C11.4582 33.3088 11.6762 33.781 11.6762 34.3984ZM8.22568 35.5607H8.84314C9.42427 35.5607 9.86012 35.4517 10.1144 35.2701C10.3686 35.0885 10.5139 34.798 10.5139 34.4348C10.5139 34.0716 10.4049 33.8173 10.1507 33.6357C9.89643 33.4541 9.53323 33.3815 9.02474 33.3815H8.22568V35.5607Z" fill="white"/>
<path d="M17.67 38.7208L16.9799 36.9774H14.3285L13.6384 38.7208H12.4398L15.0186 32.4736H16.2535L18.8323 38.7208H17.67ZM16.653 36.142L15.9992 34.435C15.9629 34.326 15.8903 34.1444 15.8176 33.8901C15.745 33.6359 15.6724 33.4543 15.636 33.3453C15.5634 33.7085 15.4181 34.0717 15.2728 34.5076L14.6554 36.142H16.653Z" fill="white"/>
<path d="M23.0083 33.3089C22.3545 33.3089 21.846 33.5268 21.4828 33.9263C21.1196 34.3259 20.938 34.907 20.938 35.6334C20.938 36.3962 21.1196 36.9773 21.4828 37.3768C21.846 37.7763 22.3545 37.9579 23.0446 37.9579C23.3351 37.9579 23.6257 37.9216 23.8799 37.8853C24.1705 37.849 24.4248 37.7763 24.7516 37.6674V38.5391C24.2068 38.7207 23.5894 38.8296 22.8993 38.8296C21.8823 38.8296 21.1196 38.5391 20.5748 37.9943C20.0299 37.4495 19.7757 36.6504 19.7757 35.6334C19.7757 34.9796 19.921 34.4348 20.1752 33.9263C20.4295 33.4179 20.829 33.0547 21.3012 32.8004C21.7733 32.5462 22.3908 32.4009 23.0446 32.4009C23.7347 32.4009 24.3884 32.5462 25.0059 32.8004L24.6064 33.6358C24.3884 33.5268 24.1342 33.4542 23.8799 33.3815C23.6257 33.3089 23.2988 33.3089 23.0083 33.3089Z" fill="white"/>
<path d="M31.943 38.7206H30.817V35.9239H27.6208V38.7206H26.4949V32.5098H27.6208V35.0522H30.817V32.5098H31.943V38.7206Z" fill="white"/>
<path d="M40.2249 35.5971C40.2249 36.6141 39.9343 37.4131 39.3895 37.9579C38.8083 38.5028 38.0456 38.7933 36.9923 38.7933C35.939 38.7933 35.1399 38.5028 34.5951 37.9579C34.0503 37.4131 33.7598 36.6141 33.7598 35.5971C33.7598 34.5801 34.0503 33.7811 34.5951 33.2363C35.1399 32.6914 35.9753 32.4009 36.9923 32.4009C38.0093 32.4009 38.8083 32.6914 39.3895 33.2363C39.9343 33.8174 40.2249 34.5801 40.2249 35.5971ZM34.922 35.5971C34.922 36.3598 35.1036 36.941 35.4305 37.3405C35.7574 37.74 36.3022 37.9216 36.956 37.9216C37.6461 37.9216 38.1183 37.74 38.4815 37.3405C38.8083 36.941 38.99 36.3598 38.99 35.5971C38.99 34.8344 38.8083 34.2532 38.4815 33.8537C38.1546 33.4542 37.6461 33.2726 36.956 33.2726C36.2659 33.2726 35.7574 33.4542 35.4305 33.8537C35.1036 34.2532 34.922 34.8344 34.922 35.5971Z" fill="white"/>
<path d="M44.1833 36.2509L42.4762 38.757H41.1687L43.13 36.0329C42.2583 35.7424 41.8225 35.1612 41.8225 34.2895C41.8225 33.7084 42.0404 33.2726 42.4762 32.982C42.9121 32.6914 43.5659 32.5461 44.4012 32.5461H46.4715V38.7207H45.3456V36.2145H44.1833V36.2509ZM45.3456 33.3452H44.4376C43.9654 33.3452 43.6022 33.4178 43.3479 33.5631C43.0937 33.7084 42.9847 33.9626 42.9847 34.2895C42.9847 34.6164 43.0937 34.8707 43.3479 35.0886C43.6022 35.3065 43.9654 35.3792 44.5102 35.3792H45.3819V33.3452H45.3456Z" fill="white"/>
<path d="M53.155 34.3984C53.155 35.0522 52.9008 35.5607 52.4286 35.8876C51.9565 36.2145 51.2663 36.3961 50.3946 36.3961H49.6682V38.7206H48.5423V32.5098H50.5399C51.4116 32.5098 52.0654 32.6551 52.5012 32.9819C52.9371 33.3088 53.155 33.781 53.155 34.3984ZM49.7046 35.5607H50.322C50.9031 35.5607 51.339 35.4517 51.5932 35.2701C51.8475 35.0885 51.9928 34.798 51.9928 34.4348C51.9928 34.0716 51.8838 33.8173 51.6296 33.6357C51.3753 33.4541 51.0121 33.3815 50.5036 33.3815H49.7046V35.5607Z" fill="white"/>
<path d="M57.7679 33.3089C57.1141 33.3089 56.6056 33.5268 56.2424 33.9263C55.8792 34.3259 55.6976 34.907 55.6976 35.6334C55.6976 36.3962 55.8792 36.9773 56.2424 37.3768C56.6056 37.7763 57.1141 37.9579 57.8042 37.9579C58.0948 37.9579 58.3853 37.9216 58.6396 37.8853C58.9301 37.849 59.1844 37.7763 59.5113 37.6674V38.5391C58.9665 38.7207 58.349 38.8296 57.6589 38.8296C56.6419 38.8296 55.8792 38.5391 55.3344 37.9943C54.7896 37.4495 54.5353 36.6504 54.5353 35.6334C54.5353 34.9796 54.6806 34.4348 54.9349 33.9263C55.1891 33.4542 55.5886 33.0547 56.0608 32.8004C56.533 32.5462 57.1504 32.4009 57.8042 32.4009C58.4943 32.4009 59.1481 32.5462 59.7655 32.8004L59.366 33.6358C59.1481 33.5268 58.8938 33.4542 58.6396 33.3815C58.3853 33.3089 58.0584 33.3089 57.7679 33.3089Z" fill="white"/>
<path d="M66.5938 38.7206H65.2499L62.4169 35.5607V38.7206H61.291V32.5098H62.4169V35.5244L65.2136 32.5098H66.4485L63.6518 35.5244L66.5938 38.7206Z" fill="white"/>
<path d="M76.7633 35.5971C76.7633 36.6141 76.4727 37.4131 75.9279 37.9579C75.3468 38.5028 74.5841 38.7933 73.5308 38.7933C72.4775 38.7933 71.6784 38.5028 71.1336 37.9579C70.5888 37.4131 70.2982 36.6141 70.2982 35.5971C70.2982 34.5801 70.5888 33.7811 71.1336 33.2363C71.6784 32.6914 72.5138 32.4009 73.5308 32.4009C74.5478 32.4009 75.3468 32.6914 75.9279 33.2363C76.4727 33.8174 76.7633 34.5801 76.7633 35.5971ZM71.4605 35.5971C71.4605 36.3598 71.6421 36.941 71.969 37.3405C72.2959 37.74 72.8407 37.9216 73.4945 37.9216C74.1846 37.9216 74.6567 37.74 75.0199 37.3405C75.3468 36.941 75.5284 36.3598 75.5284 35.5971C75.5284 34.8344 75.3468 34.2532 75.0199 33.8537C74.693 33.4542 74.1846 33.2726 73.4945 33.2726C72.8044 33.2726 72.2959 33.4542 71.969 33.8537C71.6421 34.2532 71.4605 34.8344 71.4605 35.5971Z" fill="white"/>
<path d="M83.9911 38.7206H82.8651V35.9239H79.6689V38.7206H78.543V32.5098H79.6689V35.0522H82.8651V32.5098H83.9911V38.7206Z" fill="white"/>
<path d="M91.2914 38.7206H90.1654V33.3815H88.2041C87.9499 35.1975 87.7682 36.4324 87.623 37.0862C87.4777 37.74 87.2598 38.2121 87.0055 38.4664C86.7513 38.7206 86.3881 38.8296 85.9159 38.8296C85.698 38.8296 85.48 38.7933 85.2621 38.7206V37.8852C85.4437 37.9579 85.6253 37.9942 85.7706 37.9942C85.9885 37.9942 86.1701 37.8852 86.3154 37.631C86.4607 37.3767 86.5697 36.8319 86.7513 35.9966C86.8966 35.1612 87.0782 33.9989 87.2961 32.5098H91.3277V38.7206H91.2914Z" fill="white"/>
<path d="M97.7198 38.7208L97.0297 36.9774H94.3783L93.6882 38.7208H92.4896L95.0684 32.4736H96.3033L98.882 38.7208H97.7198ZM96.7028 36.142L96.049 34.435C96.0127 34.326 95.9401 34.1444 95.8674 33.8901C95.7948 33.6359 95.7221 33.4543 95.6858 33.3453C95.6132 33.7085 95.4679 34.0717 95.3226 34.5076L94.7052 36.142H96.7028Z" fill="white"/>
<path d="M100.117 32.5097H101.171V35.7423C101.171 36.0691 101.171 36.4324 101.134 36.7592C101.098 37.0861 101.098 37.3404 101.098 37.4493H101.134L104.657 32.4734H105.965V38.7206H104.912V35.5243C104.912 35.0158 104.948 34.4347 104.984 33.7446H104.948L101.389 38.7569H100.081V32.5097H100.117ZM103.096 32.0012C102.442 32.0012 101.933 31.8923 101.643 31.6743C101.316 31.4564 101.171 31.0932 101.134 30.5847H102.151C102.188 30.8026 102.224 30.9479 102.297 31.0569C102.369 31.1658 102.478 31.2385 102.587 31.3111C102.732 31.3475 102.914 31.3838 103.168 31.3838C103.495 31.3838 103.713 31.3111 103.858 31.2022C104.004 31.0932 104.113 30.8753 104.149 30.5847H105.166C105.13 31.0569 104.912 31.4201 104.585 31.6743C104.258 31.9286 103.749 32.0012 103.096 32.0012Z" fill="white"/>
<path d="M113.555 38.7206H112.393V35.9239H109.197V38.7206H108.071V32.5098H109.197V35.0522H112.393V32.5098H113.519V38.7206H113.555Z" fill="white"/>
<path d="M207.361 15.5511H199.528V26.1692H195.964V0.329346H208.587C215.455 0.329346 217.385 4.26473 217.385 7.90311C217.385 10.799 215.789 14.1403 211.222 15.0685L218.276 26.1692H214.118L207.361 15.5511ZM199.565 12.581H208.067C212.336 12.581 213.673 10.3163 213.673 7.90311C213.673 5.4899 212.336 3.33657 208.104 3.33657H199.565V12.581Z" fill="white"/>
<path d="M224.828 0.329346V15.7368C224.828 20.3404 227.835 23.7932 233.107 23.7932C238.379 23.7932 241.349 20.3775 241.349 15.7368V0.329346H244.95V15.9224C244.95 22.3081 240.681 26.8746 233.107 26.8746C225.459 26.8746 221.264 22.3452 221.264 15.9224V0.329346H224.828V0.329346Z" fill="white"/>
<path d="M191.564 0.329346H178.364V13.5293H191.564V0.329346Z" fill="#00B9F2"/>
<path d="M178.363 0.329346H165.163V13.5293H178.363V0.329346Z" fill="#0086E6"/>
<path d="M165.164 26.7292L178.364 26.7292L178.364 13.5293L165.164 13.5293L165.164 26.7292Z" fill="#005FAD"/>
<path d="M178.364 26.7292L191.564 26.7292L191.564 13.5293L178.364 13.5293L178.364 26.7292Z" fill="#0086E6"/>
</svg>
