<svg width="232" height="40" viewBox="0 0 232 40" fill="none" xmlns="http://www.w3.org/2000/svg">
<path d="M0.819659 32.8435H1.87295V36.1712C1.87295 36.5077 1.87296 36.8815 1.83664 37.218C1.80032 37.5545 1.8003 37.8163 1.8003 37.9284H1.83664L5.35975 32.8062H6.66729V39.1997H5.61398V35.9094C5.61398 35.386 5.65031 34.7878 5.68663 34.0774H5.65031L2.09089 39.2371H0.783325V32.8435H0.819659Z" fill="white"/>
<path d="M13.3504 34.7877C13.3504 35.4607 13.0962 35.9842 12.624 36.3207C12.1518 36.6572 11.4617 36.8441 10.59 36.8441H9.86361V39.237H8.73767V32.8435H10.7353C11.607 32.8435 12.2608 32.9931 12.6966 33.3296C13.1688 33.6661 13.3504 34.1521 13.3504 34.7877ZM9.89994 35.9842H10.5174C11.0985 35.9842 11.5344 35.9094 11.7886 35.6851C12.0428 35.4981 12.1881 35.199 12.1881 34.8251C12.1881 34.4512 12.0792 34.1895 11.8249 34.0026C11.5707 33.8156 11.2075 33.7409 10.699 33.7409H9.89994V35.9842Z" fill="white"/>
<path d="M20.3601 39.237H19.0162L16.1832 35.9842V39.237H15.0573V32.8435H16.1832V35.9468L18.9799 32.8435H20.2148L17.4181 35.9468L20.3601 39.237Z" fill="white"/>
<path d="M26.8253 32.8435L24.6461 37.405C24.3918 37.9658 24.1376 38.3771 23.9197 38.6014C23.7018 38.8257 23.4475 39.0501 23.1569 39.1623C22.8664 39.2744 22.5032 39.3492 22.0673 39.3492C21.7041 39.3492 21.3772 39.3118 21.0503 39.1996V38.2649C21.3772 38.3771 21.6678 38.4519 22.031 38.4519C22.3216 38.4519 22.5758 38.3771 22.7574 38.2649C22.939 38.1527 23.1206 37.891 23.3022 37.5545L20.7598 32.8435H21.9947L23.7018 36.059C23.847 36.3581 23.956 36.5824 23.9923 36.6572H24.0286C24.065 36.5824 24.1013 36.4702 24.1739 36.2833L25.7357 32.8435H26.8253V32.8435Z" fill="white"/>
<path d="M30.4211 39.237H29.2952V33.7409H27.2612V32.8435H32.4551V33.7409H30.4211V39.237V39.237Z" fill="white"/>
<path d="M36.7408 33.6659C36.0871 33.6659 35.5786 33.8903 35.2154 34.3015C34.8522 34.7128 34.6705 35.311 34.6705 36.0588C34.6705 36.844 34.8522 37.4422 35.2154 37.8535C35.5786 38.2648 36.0871 38.4517 36.7772 38.4517C37.0677 38.4517 37.3583 38.4143 37.6125 38.3769C37.8668 38.3396 38.1573 38.2648 38.4842 38.1526V39.0499C37.9394 39.2369 37.322 39.3491 36.6319 39.3491C35.6149 39.3491 34.8522 39.0499 34.3073 38.4891C33.7625 37.9283 33.5083 37.1057 33.5083 36.0588C33.5083 35.3858 33.6536 34.825 33.9078 34.3015C34.1621 33.8155 34.5616 33.4042 35.0338 33.1425C35.5059 32.8808 36.1234 32.7312 36.7772 32.7312C37.4673 32.7312 38.121 32.8808 38.7385 33.1425L38.339 34.0024C38.121 33.8903 37.8668 33.8155 37.6125 33.7407C37.3583 33.6659 37.0314 33.6659 36.7408 33.6659Z" fill="white"/>
<path d="M45.5669 39.237H44.223L41.39 35.9842V39.237H40.264V32.8435H41.39V35.9468L44.1867 32.8435H45.4216L42.6249 35.9468L45.5669 39.237Z" fill="white"/>
<path d="M55.7002 36.059C55.7002 37.1059 55.4096 37.9285 54.8648 38.4893C54.32 39.0501 53.5209 39.3492 52.4676 39.3492C51.4143 39.3492 50.6153 39.0501 50.0705 38.4893C49.5257 37.9285 49.2351 37.1059 49.2351 36.059C49.2351 35.0121 49.5257 34.1896 50.0705 33.6287C50.6516 33.0679 51.4507 32.7688 52.4676 32.7688C53.4846 32.7688 54.2837 33.0679 54.8648 33.6287C55.446 34.1896 55.7002 35.0121 55.7002 36.059ZM50.4337 36.059C50.4337 36.8442 50.6153 37.4424 50.9422 37.8537C51.2691 38.265 51.8139 38.4519 52.4676 38.4519C53.1577 38.4519 53.6299 38.265 53.9931 37.8537C54.3563 37.4424 54.5016 36.8442 54.5016 36.059C54.5016 35.2739 54.32 34.6756 53.9931 34.2644C53.6662 33.8531 53.1577 33.6661 52.4676 33.6661C51.7775 33.6661 51.2691 33.8531 50.9422 34.2644C50.6153 34.6756 50.4337 35.2739 50.4337 36.059Z" fill="white"/>
<path d="M62.9281 39.237H61.8021V36.3581H58.6059V39.237H57.48V32.8435H58.6059V35.4607H61.8021V32.8435H62.9281V39.237Z" fill="white"/>
<path d="M70.2648 39.237H69.1388V33.7409H67.1412C66.8869 35.6103 66.7054 36.8815 66.5601 37.5545C66.4148 38.2275 66.1969 38.7136 65.9426 38.9753C65.6884 39.237 65.3252 39.3492 64.853 39.3492C64.6351 39.3492 64.4171 39.3118 64.1992 39.237V38.3771C64.3808 38.4519 64.5624 38.4893 64.7077 38.4893C64.9256 38.4893 65.1072 38.3771 65.2525 38.1154C65.3978 37.8536 65.5068 37.2928 65.6884 36.4329C65.8336 35.5729 66.0152 34.3765 66.2332 32.8435H70.2648V39.237Z" fill="white"/>
<path d="M76.6573 39.2371L75.9672 37.4424H73.3158L72.6257 39.2371H71.4271L74.0059 32.8062H75.2408L77.8196 39.2371H76.6573ZM75.6767 36.5824L75.0229 34.8252C74.9866 34.713 74.9139 34.5261 74.8413 34.2643C74.7686 34.0026 74.696 33.8157 74.6597 33.7035C74.587 34.0774 74.4418 34.4513 74.2965 34.8999L73.679 36.5824H75.6767Z" fill="white"/>
<path d="M79.0545 32.8434H80.1078V36.1711C80.1078 36.5076 80.1078 36.8814 80.0715 37.2179C80.0352 37.5544 80.0352 37.8162 80.0352 37.9283H80.0715L83.5946 32.806H84.9022V39.1996H83.8488V35.9093C83.8488 35.3859 83.8852 34.7877 83.9215 34.0773H83.8852L80.3257 39.237H79.0182V32.8434H79.0545ZM82.0328 32.32C81.379 32.32 80.8705 32.2078 80.58 31.9835C80.2531 31.7592 80.1078 31.3853 80.0715 30.8618H81.0885C81.1248 31.0862 81.1611 31.2357 81.2337 31.3479C81.3064 31.46 81.4153 31.5348 81.5243 31.6096C81.6696 31.647 81.8512 31.6844 82.1055 31.6844C82.4323 31.6844 82.6503 31.6096 82.7955 31.4974C82.9408 31.3853 83.0498 31.1609 83.0861 30.8618H84.1031C84.0668 31.3479 83.8488 31.7218 83.5219 31.9835C83.1951 32.2078 82.6866 32.32 82.0328 32.32Z" fill="white"/>
<path d="M92.4933 39.237H91.3673V36.3581H88.1711V39.237H87.0452V32.8435H88.1711V35.4607H91.3673V32.8435H92.4933V39.237Z" fill="white"/>
<path d="M0.746826 1.70776H9.85337L19.8288 13.4078C20.663 14.517 21.3582 15.4115 21.8795 16.5207H22.0533V12.6207V1.70776H29.9781V26.7896H21.3929L10.9656 15.0895C10.3747 14.3381 9.22771 12.7996 8.88013 11.9051H8.70634V15.7693V26.7896H0.746826V1.70776Z" fill="white"/>
<path d="M32.446 14.6602C32.446 6.89593 38.6677 0.849121 48.8517 0.849121C56.6374 0.849121 62.581 3.9262 64.0061 9.04274L54.4477 10.6171C53.6483 8.72072 51.9799 7.18219 48.6432 7.18219C44.0551 7.18219 41.6916 10.0446 41.6916 14.5171C41.6916 18.7034 44.1247 21.53 48.7127 21.53C53.0922 21.53 55.4209 19.4905 55.6642 17.5942V17.5584H47.6352V12.2987H63.9366V26.7539H57.2283L56.9155 22.5676C55.7337 24.7502 52.7446 27.5768 46.3144 27.5768C37.5207 27.6484 32.446 22.0309 32.446 14.6602Z" fill="white"/>
<path d="M64.5275 22.4601L70.193 17.3794C72.5565 19.5262 76.3799 21.4583 80.5856 21.4583C84.2351 21.4583 85.9382 20.7427 85.9382 19.4546C85.9382 18.4885 85.3126 18.1307 83.2619 17.9161L75.9975 17.0216C69.8106 16.2344 66.7867 13.9087 66.7867 9.0426C66.7867 3.96184 71.7223 0.884766 80.377 0.884766C85.7297 0.884766 90.8043 2.0655 94.5234 4.71322L89.6921 10.0087C87.6761 8.21966 83.9223 6.93158 79.9252 6.93158C77.0055 6.93158 75.4762 7.53984 75.4762 8.64902C75.4762 9.65086 76.2061 10.0445 78.6391 10.2949L84.9303 10.9389C91.9513 11.6903 94.7667 13.7656 94.7667 18.5601C94.7667 24.3922 89.275 27.6482 80.0989 27.6482C73.5992 27.6482 67.4819 25.3583 64.5275 22.4601Z" fill="white"/>
<path d="M95.4969 18.5605L104.291 17.8807C104.256 20.7431 106.307 21.8165 109.157 21.8165C111.937 21.8165 113.78 20.9935 113.78 19.1688C113.78 17.7018 112.737 16.8073 109.435 16.8073H106.724V12.1559H109.4C112.354 12.1559 113.536 11.3329 113.536 9.90173C113.536 8.47053 111.903 7.54026 109.122 7.54026C106.307 7.54026 104.36 8.47053 104.36 11.154L95.636 10.4027C95.636 5.3219 100.502 1.7439 108.983 1.7439C117.255 1.7439 122.434 4.28427 122.434 9.04302C122.434 12.5852 119.584 13.9449 116.421 14.2669C120.731 14.8036 122.886 16.7715 122.886 20.0275C122.886 24.7862 117.29 27.6486 109.087 27.6486C100.745 27.6486 95.6012 24.3926 95.4969 18.5605Z" fill="white"/>
<path d="M151.909 19.9199C151.909 24.7502 146.799 27.6126 138.11 27.6126C129.49 27.6126 124.241 24.9291 124.241 20.5282C124.241 17.7016 126.396 15.6979 130.116 14.9823C126.535 13.6942 124.937 11.7263 124.937 8.72078C124.937 4.42718 130.011 1.67212 138.04 1.67212C146.104 1.67212 151.213 4.2125 151.213 8.18408C151.213 10.5813 149.302 12.2988 146.069 12.9428C150.205 14.3382 151.909 16.4493 151.909 19.9199ZM142.976 19.5621C142.976 18.0951 141.62 17.308 137.936 16.664L135.364 16.1988C133.939 16.8786 133.174 17.9162 133.174 19.2043C133.174 21.1364 134.947 22.2456 138.145 22.2456C141.064 22.2456 142.976 21.208 142.976 19.5621ZM133.765 8.8639C133.765 10.1878 135.121 10.9034 138.284 11.4043L140.578 11.7621C140.682 11.7621 140.821 11.7979 140.925 11.8336C141.933 11.1538 142.42 10.2951 142.42 9.2217C142.42 7.68316 140.856 6.86022 138.075 6.86022C135.468 6.86022 133.765 7.64738 133.765 8.8639Z" fill="white"/>
<path d="M196.537 16.4493H189.203V26.6824H185.867V1.77954H197.684C204.115 1.77954 205.922 5.57222 205.922 9.07866C205.922 11.8695 204.427 15.0897 200.152 15.9842L206.756 26.6824H202.863L196.537 16.4493ZM189.238 13.6227H197.198C201.195 13.6227 202.446 11.4401 202.446 9.11444C202.446 6.78874 201.195 4.7135 197.232 4.7135H189.238V13.6227Z" fill="white"/>
<path d="M212.908 1.77954V16.6282C212.908 21.065 215.723 24.3925 220.659 24.3925C225.594 24.3925 228.375 21.1007 228.375 16.6282V1.77954H231.746V16.8071C231.746 22.9613 227.749 27.3622 220.659 27.3622C213.498 27.3622 209.571 22.9971 209.571 16.8071V1.77954H212.908Z" fill="white"/>
<path d="M180.752 0.849121H155.488V26.8561H180.752V0.849121Z" fill="#0086E6"/>
<path d="M180.753 0.849121H168.121V13.8526H180.753V0.849121Z" fill="#00B9F2"/>
<path d="M155.489 26.8562L168.121 26.8562L168.121 13.8527L155.489 13.8527L155.489 26.8562Z" fill="#005FAD"/>
</svg>
