<svg width="242" height="39" viewBox="0 0 242 39" fill="none" xmlns="http://www.w3.org/2000/svg">
<path d="M0.819519 0.840576H10.3356L20.7596 12.7174C21.6313 13.8434 22.3577 14.7514 22.9025 15.8774H23.0841V11.9184V0.840576H31.3653V26.3014H22.3941L11.4978 14.4245C10.8804 13.6618 9.68179 12.1 9.31859 11.192H9.13698V15.1509V26.3377H0.819519V0.840576Z" fill="white"/>
<path d="M33.9072 14.0252C33.9072 6.14359 40.4086 0.00537109 51.0506 0.00537109C59.1864 0.00537109 65.3973 3.12896 66.8864 8.32283L56.8982 9.92094C56.0628 7.99594 54.3194 6.43415 50.8327 6.43415C46.0383 6.43415 43.5685 9.3398 43.5685 13.8799C43.5685 18.1294 46.111 20.9987 50.9053 20.9987C55.4817 20.9987 57.9152 18.9285 58.1695 17.0035V16.9672H49.852V11.628H66.8501V26.3016H59.8402L59.5133 22.0521C58.2784 24.2676 55.1548 27.137 48.4355 27.137C39.2463 27.1733 33.9072 21.4709 33.9072 14.0252Z" fill="white"/>
<path d="M67.4682 21.9432L73.3885 16.7856C75.8583 18.9649 79.8536 20.9262 84.2484 20.9262C88.0621 20.9262 89.8418 20.1998 89.8418 18.8922C89.8418 17.9115 89.188 17.5483 87.0451 17.3304L79.4541 16.4224C72.989 15.6233 69.8291 13.2625 69.8291 8.32288C69.8291 3.16534 74.9866 0.041748 84.0305 0.041748C89.6239 0.041748 94.9267 1.24034 98.813 3.92807L93.7644 9.30354C91.6578 7.4875 87.7352 6.17995 83.5583 6.17995C80.5074 6.17995 78.9092 6.79741 78.9092 7.92335C78.9092 8.94033 79.672 9.33986 82.2144 9.59411L88.7885 10.2479C96.1253 11.0106 99.0673 13.1172 99.0673 17.9842C99.0673 23.9045 93.3286 27.2097 83.7399 27.2097C76.9479 27.1733 70.5555 24.8851 67.4682 21.9432Z" fill="white"/>
<path d="M99.9748 19.1101L108.728 18.2021C109.055 20.0544 110.98 21.253 113.631 21.253C116.646 21.253 118.353 19.9455 118.353 17.6209C118.353 15.4417 116.682 14.2431 113.631 14.2431C111.271 14.2431 109.6 15.2238 108.873 16.7129L100.992 16.0228L102.59 0.804443H125.508V6.87001H109.6L109.055 11.5191C110.435 9.81199 113.232 8.83133 116.719 8.83133C123.511 8.83133 127.651 12.1365 127.651 17.5846C127.651 23.5049 122.167 27.2096 113.486 27.2096C105.895 27.1733 100.592 24.0134 99.9748 19.1101Z" fill="white"/>
<path d="M128.741 19.1101L137.495 18.2021C137.821 20.0544 139.746 21.253 142.398 21.253C145.412 21.253 147.12 19.9455 147.12 17.6209C147.12 15.4417 145.449 14.2431 142.398 14.2431C140.037 14.2431 138.366 15.2238 137.64 16.7129L129.758 16.0228L131.356 0.804443H154.275V6.87001H138.366L137.821 11.4464C139.202 9.73934 141.998 8.75868 145.485 8.75868C152.277 8.75868 156.418 12.0639 156.418 17.512C156.418 23.4323 150.933 27.137 142.253 27.137C134.662 27.1733 129.359 24.0134 128.741 19.1101Z" fill="white"/>
<path d="M7.3938 35.2727C7.3938 36.2896 7.10324 37.0887 6.55843 37.6335C5.9773 38.1783 5.21457 38.4689 4.16127 38.4689C3.10797 38.4689 2.3089 38.1783 1.76408 37.6335C1.21927 37.0887 0.928711 36.2896 0.928711 35.2727C0.928711 34.2557 1.21927 33.4566 1.76408 32.9118C2.3089 32.367 3.14429 32.0764 4.16127 32.0764C5.17825 32.0764 5.9773 32.367 6.55843 32.9118C7.13956 33.4566 7.3938 34.2557 7.3938 35.2727ZM2.09098 35.2727C2.09098 36.0354 2.27259 36.6165 2.59948 37.016C2.92637 37.4156 3.47116 37.5972 4.12493 37.5972C4.81503 37.5972 5.2872 37.4156 5.65041 37.016C5.9773 36.6165 6.15891 36.0354 6.15891 35.2727C6.15891 34.5099 5.9773 33.9288 5.65041 33.5292C5.32352 33.1297 4.81503 32.9481 4.12493 32.9481C3.43484 32.9481 2.92637 33.1297 2.59948 33.5292C2.27259 33.9288 2.09098 34.5099 2.09098 35.2727Z" fill="white"/>
<path d="M12.152 38.3964L10.1544 33.2025H10.118C10.1544 33.9653 10.1907 34.6917 10.1907 35.3818V38.3964H9.17371V32.1855H10.7718L12.6968 37.1252H12.7331L14.6945 32.1855H16.2926V38.3964H15.2029V35.3091C15.2029 34.9822 15.203 34.5827 15.2393 34.1105C15.2756 33.6384 15.2756 33.3115 15.2756 33.2025H15.2393L13.169 38.3964H12.152Z" fill="white"/>
<path d="M21.3408 32.9483C20.6871 32.9483 20.1786 33.1662 19.8154 33.5658C19.4521 33.9653 19.2705 34.5464 19.2705 35.2728C19.2705 36.0356 19.4521 36.6167 19.8154 37.0162C20.1786 37.4158 20.6871 37.5974 21.3771 37.5974C21.6677 37.5974 21.9583 37.561 22.2125 37.5247C22.4668 37.4884 22.7573 37.4158 23.0842 37.3068V38.1785C22.5394 38.3601 21.922 38.4691 21.2319 38.4691C20.2149 38.4691 19.4521 38.1785 18.9073 37.6337C18.3625 37.0889 18.1083 36.2898 18.1083 35.2728C18.1083 34.6191 18.2536 34.0742 18.5078 33.5658C18.7621 33.0936 19.1616 32.694 19.6338 32.4398C20.1059 32.1856 20.7234 32.0403 21.3771 32.0403C22.0672 32.0403 22.721 32.1856 23.3385 32.4398L22.939 33.2752C22.721 33.1662 22.4668 33.0936 22.2125 33.0209C21.9583 32.9483 21.6314 32.9483 21.3408 32.9483Z" fill="white"/>
<path d="M30.1667 38.3964H28.8228L25.9898 35.2365V38.3964H24.8639V32.1855H25.9898V35.2002L28.7865 32.1855H30.0214L27.2247 35.2002L30.1667 38.3964Z" fill="white"/>
<path d="M40.3003 35.2727C40.3003 36.2896 40.0097 37.0887 39.4649 37.6335C38.9201 38.1783 38.121 38.4689 37.0677 38.4689C36.0144 38.4689 35.2154 38.1783 34.6706 37.6335C34.1258 37.0887 33.8352 36.2896 33.8352 35.2727C33.8352 34.2557 34.1258 33.4566 34.6706 32.9118C35.2517 32.367 36.0508 32.0764 37.0677 32.0764C38.0847 32.0764 38.8838 32.367 39.4649 32.9118C40.0461 33.4566 40.3003 34.2557 40.3003 35.2727ZM35.0338 35.2727C35.0338 36.0354 35.2154 36.6165 35.5423 37.016C35.8691 37.4156 36.414 37.5972 37.0677 37.5972C37.7578 37.5972 38.23 37.4156 38.5932 37.016C38.9564 36.6165 39.1017 36.0354 39.1017 35.2727C39.1017 34.5099 38.9201 33.9288 38.5932 33.5292C38.2663 33.1297 37.7578 32.9481 37.0677 32.9481C36.3776 32.9481 35.8691 33.1297 35.5423 33.5292C35.2154 33.9288 35.0338 34.5099 35.0338 35.2727Z" fill="white"/>
<path d="M47.5651 38.3964H46.4391V35.5997H43.2429V38.3964H42.1169V32.1855H43.2429V34.728H46.4391V32.1855H47.5651V38.3964Z" fill="white"/>
<path d="M54.8651 38.3964H53.7391V33.0572H51.7778C51.5235 34.8733 51.3419 36.1082 51.1967 36.762C51.0514 37.4157 50.8335 37.8879 50.5792 38.1421C50.325 38.3964 49.9618 38.5053 49.4896 38.5053C49.2717 38.5053 49.0537 38.469 48.8358 38.3964V37.561C49.0174 37.6337 49.199 37.67 49.3443 37.67C49.5622 37.67 49.7438 37.561 49.8891 37.3068C50.0344 37.0525 50.1434 36.5077 50.325 35.6723C50.4702 34.837 50.6518 33.6747 50.8698 32.1855H54.9014V38.3964H54.8651Z" fill="white"/>
<path d="M61.2574 38.3963L60.5673 36.6529H57.9159L57.2258 38.3963H56.0272L58.606 32.1492H59.8409L62.4197 38.3963H61.2574ZM60.2768 35.7812L59.623 34.0742C59.5867 33.9652 59.514 33.7836 59.4414 33.5294C59.3687 33.2751 59.2961 33.0935 59.2598 32.9845C59.1871 33.3477 59.0419 33.711 58.8966 34.1468L58.2791 35.7812H60.2768Z" fill="white"/>
<path d="M63.6907 32.1855H64.744V35.418C64.744 35.7449 64.7441 36.1081 64.7077 36.435C64.6714 36.7619 64.6714 37.0162 64.6714 37.1251H64.7077L68.2308 32.1492H69.5384V38.3964H68.4851V35.2001C68.4851 34.6916 68.5214 34.1105 68.5577 33.4204H68.5214L64.962 38.4327H63.6544V32.1855H63.6907ZM66.6327 31.677C65.979 31.677 65.4705 31.568 65.1799 31.3501C64.853 31.1322 64.7077 30.769 64.6714 30.2605H65.6884C65.7247 30.4784 65.761 30.6237 65.8337 30.7327C65.9063 30.8416 66.0153 30.9143 66.1242 30.9869C66.2695 31.0232 66.4511 31.0596 66.7054 31.0596C67.0323 31.0596 67.2502 30.9869 67.3955 30.878C67.5407 30.769 67.6497 30.5511 67.686 30.2605H68.703C68.6667 30.7327 68.4488 31.0959 68.1219 31.3501C67.795 31.6044 67.2865 31.677 66.6327 31.677Z" fill="white"/>
<path d="M77.0937 38.3964H75.9678V35.5997H72.7716V38.3964H71.6456V32.1855H72.7716V34.728H75.9678V32.1855H77.0937V38.3964Z" fill="white"/>
<path d="M203.617 15.2272H195.784V25.8453H192.219V0.00537109H204.842C211.711 0.00537109 213.641 3.94076 213.641 7.57913C213.641 10.475 212.045 13.8164 207.478 14.7445L214.532 25.8453H210.374L203.617 15.2272ZM195.821 12.257H204.323C208.592 12.257 209.929 9.99234 209.929 7.57913C209.929 5.16593 208.592 3.0126 204.36 3.0126H195.821V12.257Z" fill="white"/>
<path d="M221.084 0.00537109V15.4128C221.084 20.0164 224.091 23.4692 229.363 23.4692C234.635 23.4692 237.605 20.0536 237.605 15.4128V0.00537109H241.206V15.5984C241.206 21.9841 236.937 26.5507 229.363 26.5507C221.715 26.5507 217.519 22.0213 217.519 15.5984V0.00537109H221.084V0.00537109Z" fill="white"/>
<path d="M187.82 0.00537109H174.62V13.2054H187.82V0.00537109Z" fill="#00B9F2"/>
<path d="M174.619 0.00537109H161.419V13.2054H174.619V0.00537109Z" fill="#0086E6"/>
<path d="M161.42 26.4053L174.62 26.4053L174.62 13.2053L161.42 13.2053L161.42 26.4053Z" fill="#005FAD"/>
<path d="M174.62 26.4053L187.82 26.4053L187.82 13.2053L174.62 13.2053L174.62 26.4053Z" fill="#0086E6"/>
</svg>
