<svg width="150" height="40" viewBox="0 0 150 40" fill="none" xmlns="http://www.w3.org/2000/svg">
<path d="M0.824341 0.602539H10.1642L20.3952 12.2595C21.2507 13.3646 21.9637 14.2558 22.4984 15.3609H22.6767V11.4752V0.602539H30.8044V25.5919H21.9994L11.3049 13.9349C10.6989 13.1863 9.5225 11.6535 9.16602 10.7623H8.98778V14.6123V25.5919H0.824341V0.602539Z" fill="white"/>
<path d="M35.0818 0.602539H44.4216L54.6526 12.2595C55.5082 13.3646 56.2212 14.2558 56.7559 15.3609H56.9341V11.4752V0.602539H65.0619V25.5919H56.2568L45.5624 13.9349C44.9563 13.1863 43.7799 11.6535 43.4235 10.7623H43.2452V14.6123V25.5919H35.0818V0.602539Z" fill="white"/>
<path d="M6.24249 37.4628H5.13738V34.7179H2.00035V37.4628H0.895264V31.3669H2.00035V33.8623H5.13738V31.3669H6.24249V37.4628Z" fill="white"/>
<path d="M8.02515 31.367H9.05893V34.5396C9.05893 34.8605 9.05894 35.2169 9.02329 35.5378C8.98764 35.8586 8.98765 36.1082 8.98765 36.2151H9.02329L12.4812 31.3313H13.7645V37.4271H12.7663V34.2901C12.7663 33.791 12.802 33.2207 12.8376 32.5433H12.802L9.30847 37.4628H8.02515V31.367Z" fill="white"/>
<path d="M17.2581 34.2901L14.7627 31.3313H15.9391L18.3632 34.2901V31.3313H19.4326V34.2901L21.8567 31.3313H23.0331L20.5377 34.2901L23.14 37.4628H21.928L19.4326 34.3614V37.4628H18.3632V34.3614L15.8678 37.4628H14.6201L17.2581 34.2901Z" fill="white"/>
<path d="M29.4138 37.4628H28.3086V34.7179H25.1716V37.4628H24.0665V31.3669H25.1716V33.8623H28.3086V31.3669H29.4138V37.4628Z" fill="white"/>
<path d="M31.1964 31.367H32.2302V34.5396C32.2302 34.8605 32.2302 35.2169 32.1946 35.5378C32.1589 35.8586 32.1589 36.1082 32.1589 36.2151H32.1946L35.6524 31.3313H36.9358V37.4271H35.9376V34.2901C35.9376 33.791 35.9733 33.2207 36.0089 32.5433H35.9733L32.4797 37.4628H31.1964V31.367Z" fill="white"/>
<path d="M38.7533 31.3669H39.7871V34.5396C39.7871 34.8604 39.7871 35.2169 39.7515 35.5377C39.7158 35.8586 39.7158 36.1081 39.7158 36.215H39.7515L43.2093 31.3312H44.4927V37.4271H43.4589V34.29C43.4589 33.791 43.4945 33.2206 43.5302 32.5433H43.4945L40.001 37.4627H38.7177V31.3669H38.7533ZM41.6764 30.8678C41.0348 30.8678 40.5357 30.7609 40.2505 30.547C39.9653 30.3331 39.7871 29.9766 39.7515 29.4775H40.7496C40.7852 29.6914 40.8209 29.834 40.8922 29.941C40.9635 30.0479 41.0704 30.1192 41.1774 30.1905C41.32 30.2261 41.4982 30.2618 41.7477 30.2618C42.0686 30.2618 42.2825 30.1905 42.4251 30.0836C42.5677 29.9766 42.6746 29.7627 42.7102 29.4775H43.7084C43.6727 29.941 43.4589 30.2974 43.138 30.547C42.7815 30.7609 42.3181 30.8678 41.6764 30.8678Z" fill="white"/>
<path d="M54.118 37.4628H53.0129V34.7179H49.8758V37.4628H48.7708V31.3669H49.8758V33.8623H53.0129V31.3669H54.118V37.4628Z" fill="white"/>
<path d="M61.9247 34.3971C61.9247 35.3952 61.6395 36.1795 61.1048 36.7142C60.5344 37.2489 59.7858 37.5341 58.752 37.5341C57.7182 37.5341 56.934 37.2489 56.3993 36.7142C55.8645 36.1795 55.5793 35.3952 55.5793 34.3971C55.5793 33.3989 55.8645 32.6147 56.3993 32.0799C56.9696 31.5452 57.7539 31.26 58.752 31.26C59.7502 31.26 60.5344 31.5452 61.1048 32.0799C61.6752 32.6503 61.9247 33.3989 61.9247 34.3971ZM56.7558 34.3971C56.7558 35.1457 56.934 35.716 57.2548 36.1082C57.5756 36.5003 58.1104 36.6785 58.752 36.6785C59.4294 36.6785 59.8928 36.5003 60.2493 36.1082C60.5701 35.716 60.7483 35.1457 60.7483 34.3971C60.7483 33.6485 60.5701 33.0781 60.2493 32.6859C59.9284 32.2938 59.4294 32.1156 58.752 32.1156C58.0747 32.1156 57.5756 32.2938 57.2548 32.6859C56.934 33.0781 56.7558 33.6485 56.7558 34.3971Z" fill="white"/>
<path d="M63.386 31.3669H65.4179C66.3448 31.3669 67.0221 31.4739 67.4499 31.7234C67.8777 31.973 68.0915 32.3651 68.0915 32.8998C68.0915 33.2563 67.9846 33.5415 67.7707 33.791C67.5568 34.0405 67.2717 34.1831 66.8795 34.2544V34.2901C67.3429 34.3614 67.6994 34.5396 67.949 34.7535C68.1985 34.9674 68.2698 35.3239 68.2698 35.716C68.2698 36.2507 68.0559 36.6785 67.6281 36.9993C67.2003 37.3202 66.5943 37.4628 65.8457 37.4628H63.386V31.3669V31.3669ZM64.4911 33.898H65.5605C66.0239 33.898 66.3804 33.8267 66.5943 33.6841C66.8082 33.5415 66.9152 33.3276 66.9152 33.0067C66.9152 32.7216 66.8082 32.5077 66.5587 32.4007C66.3448 32.2581 65.9527 32.2225 65.4536 32.2225H64.4911V33.898V33.898ZM64.4911 34.6822V36.6072H65.6675C66.1309 36.6072 66.4874 36.5359 66.7369 36.3577C66.9865 36.2151 67.0934 35.9299 67.0934 35.6091C67.0934 35.2882 66.9865 35.0387 66.7369 34.8961C66.4874 34.7535 66.1309 34.6822 65.6318 34.6822H64.4911V34.6822Z" fill="white"/>
<path d="M73.7247 31.3669V32.2225H70.8015V37.4628H69.6964V31.3669H73.7247Z" fill="white"/>
<path d="M80.8543 34.3971C80.8543 35.3952 80.5691 36.1795 80.0344 36.7142C79.4997 37.2489 78.7154 37.5341 77.6816 37.5341C76.6478 37.5341 75.8636 37.2489 75.3288 36.7142C74.7941 36.1795 74.5089 35.3952 74.5089 34.3971C74.5089 33.3989 74.7941 32.6147 75.3288 32.0799C75.8992 31.5452 76.6835 31.26 77.6816 31.26C78.6798 31.26 79.464 31.5452 80.0344 32.0799C80.5691 32.6503 80.8543 33.3989 80.8543 34.3971ZM75.6497 34.3971C75.6497 35.1457 75.8279 35.716 76.1488 36.1082C76.4696 36.5003 77.0043 36.6785 77.646 36.6785C78.3233 36.6785 78.7867 36.5003 79.1432 36.1082C79.4997 35.716 79.6423 35.1457 79.6423 34.3971C79.6423 33.6485 79.464 33.0781 79.1432 32.6859C78.8223 32.2938 78.3233 32.1156 77.646 32.1156C76.9687 32.1156 76.4696 32.2938 76.1488 32.6859C75.8279 33.0781 75.6497 33.6485 75.6497 34.3971Z" fill="white"/>
<path d="M86.807 33.2206C86.807 33.8623 86.5574 34.3614 86.094 34.6822C85.6306 35.0387 84.9533 35.1813 84.0977 35.1813H83.3847V37.4628H82.2797V31.3669H84.2403C85.0959 31.3669 85.7375 31.5095 86.1653 31.8304C86.5931 32.1512 86.807 32.6146 86.807 33.2206ZM83.4204 34.3257H84.0264C84.5968 34.3257 85.0246 34.2188 85.2741 34.0406C85.5237 33.8623 85.6662 33.5771 85.6662 33.2206C85.6662 32.8641 85.5593 32.6146 85.3098 32.4364C85.0602 32.2581 84.7037 32.1868 84.2047 32.1868H83.4204V34.3257Z" fill="white"/>
<path d="M94.1869 34.3971C94.1869 35.3952 93.9017 36.1795 93.367 36.7142C92.7966 37.2489 92.048 37.5341 91.0142 37.5341C89.9805 37.5341 89.1962 37.2489 88.6615 36.7142C88.1268 36.1795 87.8416 35.3952 87.8416 34.3971C87.8416 33.3989 88.1268 32.6147 88.6615 32.0799C89.2318 31.5452 90.0161 31.26 91.0142 31.26C92.0124 31.26 92.7966 31.5452 93.367 32.0799C93.9017 32.6503 94.1869 33.3989 94.1869 34.3971ZM89.018 34.3971C89.018 35.1457 89.1962 35.716 89.517 36.1082C89.8379 36.5003 90.3726 36.6785 91.0142 36.6785C91.6916 36.6785 92.155 36.5003 92.5115 36.1082C92.8323 35.716 93.0105 35.1457 93.0105 34.3971C93.0105 33.6485 92.8323 33.0781 92.5115 32.6859C92.1906 32.2938 91.6916 32.1156 91.0142 32.1156C90.3369 32.1156 89.8379 32.2938 89.517 32.6859C89.1606 33.0781 89.018 33.6485 89.018 34.3971Z" fill="white"/>
<path d="M94.7928 36.6072H95.3276C95.791 35.8586 96.1475 35.0387 96.4683 34.1118C96.7892 33.185 96.9674 32.2581 97.0387 31.3313H100.532V36.5716H101.423V39.1026H100.354V37.4271H95.8623V39.1026H94.7928V36.6072ZM97.9655 32.2225C97.8942 32.8642 97.716 33.5771 97.4308 34.4327C97.1456 35.2526 96.8248 36.0012 96.4683 36.6072H99.4271V32.2225H97.9655V32.2225Z" fill="white"/>
<path d="M111.048 34.3971C111.048 35.3952 110.763 36.1795 110.228 36.7142C109.693 37.2489 108.909 37.5341 107.875 37.5341C106.841 37.5341 106.057 37.2489 105.522 36.7142C104.988 36.1795 104.702 35.3952 104.702 34.3971C104.702 33.3989 104.988 32.6147 105.522 32.0799C106.093 31.5452 106.877 31.26 107.875 31.26C108.873 31.26 109.657 31.5452 110.228 32.0799C110.763 32.6503 111.048 33.3989 111.048 34.3971ZM105.843 34.3971C105.843 35.1457 106.021 35.716 106.342 36.1082C106.663 36.5003 107.198 36.6785 107.839 36.6785C108.517 36.6785 108.98 36.5003 109.337 36.1082C109.693 35.716 109.836 35.1457 109.836 34.3971C109.836 33.6485 109.657 33.0781 109.337 32.6859C109.016 32.2938 108.517 32.1156 107.839 32.1156C107.162 32.1156 106.663 32.2938 106.342 32.6859C106.021 33.0781 105.843 33.6485 105.843 34.3971Z" fill="white"/>
<path d="M117.857 37.4628H116.752V34.7179H113.615V37.4628H112.51V31.3669H113.615V33.8623H116.752V31.3669H117.857V37.4628Z" fill="white"/>
<path d="M124.737 37.4628H123.632V32.2225H121.707C121.457 34.0049 121.279 35.2169 121.137 35.8586C120.994 36.5003 120.78 36.9637 120.531 37.2132C120.281 37.4628 119.925 37.5697 119.461 37.5697C119.247 37.5697 119.033 37.5341 118.819 37.4628V36.6429C118.998 36.7142 119.176 36.7498 119.319 36.7498C119.532 36.7498 119.711 36.6429 119.853 36.3933C119.996 36.1438 120.103 35.6091 120.281 34.7892C120.424 33.9692 120.602 32.8285 120.816 31.3669H124.773V37.4628H124.737Z" fill="white"/>
<path d="M130.761 37.4628L130.084 35.7517H127.482L126.804 37.4628H125.628L128.159 31.3313H129.371L131.902 37.4628H130.761ZM129.763 34.8961L129.122 33.2206C129.086 33.1137 129.015 32.9355 128.943 32.6859C128.872 32.4364 128.801 32.2581 128.765 32.1512C128.694 32.5077 128.551 32.8642 128.409 33.2919L127.803 34.8961H129.763Z" fill="white"/>
<path d="M132.83 31.3669H133.863V34.5396C133.863 34.8604 133.863 35.2169 133.828 35.5377C133.792 35.8586 133.792 36.1081 133.792 36.215H133.828L137.286 31.3312H138.569V37.4271H137.535V34.29C137.535 33.791 137.571 33.2206 137.606 32.5433H137.571L134.077 37.4627H132.794V31.3669H132.83ZM135.753 30.8678C135.111 30.8678 134.612 30.7609 134.327 30.547C134.006 30.3331 133.863 29.9766 133.828 29.4775H134.826C134.861 29.6914 134.897 29.834 134.968 29.941C135.04 30.0479 135.147 30.1192 135.254 30.1905C135.396 30.2261 135.574 30.2618 135.824 30.2618C136.145 30.2618 136.359 30.1905 136.501 30.0836C136.644 29.9766 136.751 29.7627 136.786 29.4775H137.785C137.749 29.941 137.535 30.2974 137.214 30.547C136.858 30.7609 136.394 30.8678 135.753 30.8678Z" fill="white"/>
<path d="M145.733 37.4628H144.628V34.7179H141.491V37.4628H140.386V31.3669H141.491V33.8623H144.628V31.3669H145.733V37.4628Z" fill="white"/>
<path d="M112.322 15.8243H104.489V26.4424H100.924V0.602539H113.547C120.416 0.602539 122.346 4.53793 122.346 8.1763C122.346 11.0722 120.75 14.4135 116.183 15.3417L123.237 26.4424H119.079L112.322 15.8243ZM104.526 12.8542H113.028C117.297 12.8542 118.634 10.5895 118.634 8.1763C118.634 5.76309 117.297 3.60977 113.065 3.60977H104.526V12.8542Z" fill="white"/>
<path d="M129.788 0.602539V16.01C129.788 20.6136 132.796 24.0664 138.068 24.0664C143.34 24.0664 146.31 20.6507 146.31 16.01V0.602539H149.911V16.1956C149.911 22.5813 145.641 27.1478 138.068 27.1478C130.42 27.1478 126.224 22.6184 126.224 16.1956V0.602539H129.788V0.602539Z" fill="white"/>
<path d="M96.5244 0.602539H83.3244V13.8025H96.5244V0.602539Z" fill="#00B9F2"/>
<path d="M83.3244 0.602539H70.1244V13.8025H83.3244V0.602539Z" fill="#0086E6"/>
<path d="M70.1248 27.0024L83.3248 27.0024L83.3248 13.8025L70.1248 13.8025L70.1248 27.0024Z" fill="#005FAD"/>
<path d="M83.3248 27.0024L96.5248 27.0024L96.5248 13.8025L83.3248 13.8025L83.3248 27.0024Z" fill="#0086E6"/>
</svg>
