<svg width="209" height="40" viewBox="0 0 209 40" fill="none" xmlns="http://www.w3.org/2000/svg">
<path d="M10.2852 0.570557V13.9731C10.2852 17.8343 12.3643 20.2475 16.5967 20.2475C20.5692 20.2475 22.871 17.7972 22.871 13.9731V0.570557H32.264V15.1241C32.264 22.6236 26.7322 27.4871 16.5967 27.4871C6.4612 27.4871 0.892273 22.5865 0.892273 15.0127V0.570557H10.2852Z" fill="white"/>
<path d="M45.4808 7.06765V10.9659H62.6702V17.2774H45.4808V26.6332H36.0878V0.607666H63.3014V7.10477H45.4808V7.06765Z" fill="white"/>
<path d="M85.7634 21.6583H73.5489L71.544 26.5961H61.4457L73.5489 0.570557H85.7263L97.8295 26.5961H87.7683L85.7634 21.6583ZM83.4987 16.0151L81.6795 11.5228C80.6029 9.07248 80.046 7.58744 79.7489 5.91676H79.6376C79.3035 7.58744 78.7094 9.07248 77.707 11.5228L75.8878 16.0151H83.4987Z" fill="white"/>
<path d="M124.597 20.0619V26.6332H99.1288V20.0619H107.668V10.6318C106.183 12.0797 103.547 12.4881 101.468 12.4881H99.3516V5.1371H100.577C104.549 5.1371 107.705 3.6149 109.004 0.607666H116.838V20.0619H124.597Z" fill="white"/>
<path d="M6.49853 32.6106L4.27095 37.14C4.01106 37.6969 3.75118 38.1053 3.52842 38.328C3.30566 38.5879 3.04579 38.7735 2.74878 38.8849C2.45176 38.9963 2.0805 39.0705 1.63499 39.0705C1.26372 39.0705 0.929567 39.0334 0.59543 38.9221V37.9939C0.929567 38.1053 1.22656 38.1795 1.59782 38.1795C1.89483 38.1795 2.15472 38.1053 2.34035 37.9939C2.52598 37.8825 2.71161 37.6226 2.89724 37.2885L0.298401 32.6106H1.56071L3.30567 35.8034C3.45418 36.1005 3.56553 36.3232 3.60265 36.3975H3.63977C3.6769 36.3232 3.71403 36.2118 3.78829 36.0262L5.38474 32.6106H6.49853V32.6106Z" fill="white"/>
<path d="M10.3594 39.0332V38.068H10.2109C9.61686 38.068 9.13423 37.9566 8.68871 37.7709C8.2432 37.5853 7.90904 37.2883 7.64916 36.9171C7.38927 36.5458 7.27789 36.1003 7.27789 35.6548C7.27789 35.2092 7.38928 34.8008 7.61204 34.4296C7.8348 34.0583 8.16893 33.7985 8.57732 33.5757C8.9857 33.3529 9.50547 33.2787 10.0624 33.2787H10.3594V32.499H11.436V33.2787H11.7331C12.2899 33.2787 12.8097 33.3901 13.2181 33.5757C13.6265 33.7613 13.9606 34.0583 14.1834 34.4296C14.4061 34.8008 14.5175 35.2092 14.5175 35.6548C14.5175 36.1374 14.4062 36.5458 14.1463 36.9171C13.8864 37.2883 13.5522 37.5853 13.1067 37.7709C12.6612 37.9566 12.1786 38.068 11.5845 38.068H11.436V39.0332H10.3594ZM10.3594 34.1326H10.1366C9.61683 34.1326 9.17135 34.2811 8.87434 34.541C8.57733 34.8009 8.4288 35.1721 8.4288 35.6548C8.4288 36.1374 8.57732 36.5458 8.91146 36.8057C9.2456 37.0656 9.6911 37.214 10.2851 37.214H10.3594V34.1326ZM11.436 37.2512H11.5474C12.1414 37.2512 12.5869 37.1027 12.9211 36.8428C13.2552 36.5458 13.4037 36.1745 13.4037 35.6919C13.4037 35.2092 13.2553 34.8751 12.9582 34.5781C12.6612 34.2811 12.2528 34.1697 11.6959 34.1697H11.4732V37.2512H11.436Z" fill="white"/>
<path d="M20.6435 38.959L19.9381 37.1769H17.2279L16.5225 38.959H15.2973L17.9333 32.5732H19.1956L21.8315 38.959H20.6435ZM19.6039 36.2859L18.9357 34.541C18.8986 34.4296 18.8243 34.2439 18.7501 33.9841C18.6758 33.7242 18.6016 33.5385 18.5644 33.4272C18.4902 33.7984 18.3417 34.1697 18.1932 34.6152L17.562 36.2859H19.6039Z" fill="white"/>
<path d="M32.2272 35.7662C32.2272 36.8057 31.9302 37.6225 31.3733 38.1794C30.7793 38.7363 29.9996 39.0332 28.923 39.0332C27.8463 39.0332 27.0295 38.7363 26.4726 38.1794C25.9157 37.6225 25.6187 36.8057 25.6187 35.7662C25.6187 34.7266 25.9157 33.9098 26.4726 33.3529C27.0295 32.7961 27.8834 32.499 28.923 32.499C29.9625 32.499 30.7793 32.7961 31.3733 33.3529C31.9673 33.947 32.2272 34.7266 32.2272 35.7662ZM26.8439 35.7662C26.8439 36.5458 27.0295 37.1398 27.3636 37.5482C27.6978 37.9566 28.2547 38.1422 28.923 38.1422C29.6284 38.1422 30.111 37.9566 30.4823 37.5482C30.8164 37.1398 31.002 36.5458 31.002 35.7662C31.002 34.9865 30.8164 34.3925 30.4823 33.9841C30.1481 33.5757 29.6284 33.3901 28.923 33.3901C28.2176 33.3901 27.6978 33.5757 27.3636 33.9841C27.0295 34.3925 26.8439 34.9865 26.8439 35.7662Z" fill="white"/>
<path d="M39.6523 38.9592H38.5014V36.1004H35.2343V38.9592H34.0833V32.6106H35.2343V35.2094H38.5014V32.6106H39.6523V38.9592Z" fill="white"/>
<path d="M47.1148 38.9592H45.9638V33.5016H43.959C43.6991 35.3579 43.5135 36.6202 43.365 37.2885C43.2165 37.9568 42.9937 38.4394 42.7338 38.6993C42.4739 38.9592 42.1027 39.0705 41.62 39.0705C41.3973 39.0705 41.1745 39.0334 40.9518 38.9592V38.1053C41.1374 38.1795 41.323 38.2167 41.4715 38.2167C41.6943 38.2167 41.8799 38.1053 42.0284 37.8454C42.1769 37.5855 42.2883 37.0286 42.474 36.1747C42.6225 35.3208 42.8081 34.1328 43.0309 32.6106H47.1519V38.9592H47.1148Z" fill="white"/>
<path d="M53.6491 38.959L52.9437 37.1769H50.2335L49.5281 38.959H48.3029L50.9389 32.5732H52.2012L54.8371 38.959H53.6491ZM52.6467 36.2859L51.9784 34.541C51.9413 34.4296 51.8671 34.2439 51.7928 33.9841C51.7186 33.7242 51.6443 33.5385 51.6072 33.4272C51.5329 33.7984 51.3844 34.1697 51.2359 34.6152L50.6047 36.2859H52.6467Z" fill="white"/>
<path d="M56.1364 32.6105H57.2131V35.9147C57.2131 36.2489 57.2131 36.6202 57.176 36.9543C57.1389 37.2884 57.1389 37.5483 57.1389 37.6597H57.176L60.7772 32.5734H62.1138V38.922H61.0371V35.6549C61.0371 35.1351 61.0742 34.5411 61.1114 33.8357H61.0742L57.4358 38.9591H56.0993V32.6105H56.1364ZM59.1436 32.0908C58.4754 32.0908 57.9556 31.9794 57.6586 31.7566C57.3245 31.5339 57.176 31.1626 57.1389 30.6428H58.1784C58.2155 30.8656 58.2526 31.0141 58.3269 31.1255C58.4011 31.2369 58.5125 31.3111 58.6239 31.3853C58.7724 31.4225 58.958 31.4596 59.2179 31.4596C59.5521 31.4596 59.7748 31.3853 59.9233 31.274C60.0718 31.1626 60.1832 30.9398 60.2203 30.6428H61.2599C61.2227 31.1255 61 31.4967 60.6659 31.7566C60.3317 32.0165 59.8119 32.0908 59.1436 32.0908Z" fill="white"/>
<path d="M69.8363 38.9592H68.6854V36.1004H65.4183V38.9592H64.2674V32.6106H65.4183V35.2094H68.6854V32.6106H69.8363V38.9592Z" fill="white"/>
<path d="M171.196 15.7923H163.363V26.4105H159.798V0.570557H172.421C179.29 0.570557 181.22 4.50594 181.22 8.14432C181.22 11.0402 179.624 14.3815 175.057 15.3097L182.111 26.4105H177.953L171.196 15.7923ZM163.4 12.8222H171.902C176.171 12.8222 177.508 10.5575 177.508 8.14432C177.508 5.73111 176.171 3.57779 171.939 3.57779H163.4V12.8222Z" fill="white"/>
<path d="M188.663 0.570557V15.978C188.663 20.5816 191.67 24.0344 196.942 24.0344C202.214 24.0344 205.184 20.6188 205.184 15.978V0.570557H208.785V16.1636C208.785 22.5493 204.515 27.1159 196.942 27.1159C189.294 27.1159 185.098 22.5865 185.098 16.1636V0.570557H188.663V0.570557Z" fill="white"/>
<path d="M155.398 0.570557H142.198V13.7705H155.398V0.570557Z" fill="#FF8E78"/>
<path d="M142.198 0.570557H128.998V13.7705H142.198V0.570557Z" fill="#FF0013"/>
<path d="M128.999 26.9705L142.199 26.9705L142.199 13.7705L128.999 13.7705L128.999 26.9705Z" fill="#CC0019"/>
<path d="M142.199 26.9705L155.399 26.9705L155.399 13.7705L142.199 13.7705L142.199 26.9705Z" fill="#FF0013"/>
</svg>
