<svg width="141" height="39" viewBox="0 0 141 39" fill="none" xmlns="http://www.w3.org/2000/svg">
<path d="M0.97229 1.0625H10.6765L17.0536 16.0347C17.4695 17.0051 17.6774 17.7676 17.8507 18.634H17.9893C18.1626 17.7676 18.3706 17.0051 18.7865 16.0347L25.1635 1.0625H34.8677L23.2227 25.3577H12.6173L0.97229 1.0625Z" fill="white"/>
<path d="M58.6434 19.2579V25.3923H34.868V19.2579H42.8393V10.4548C41.453 11.8065 38.9923 12.1877 37.0515 12.1877H35.076V5.32542H36.2197C39.9281 5.32542 42.874 3.90446 44.0871 1.09717H51.3999V19.2579H58.6434Z" fill="white"/>
<path d="M3.05157 30.9719H5.02706C5.92817 30.9719 6.58669 31.0759 7.00259 31.3185C7.41848 31.5611 7.62641 31.9424 7.62641 32.4622C7.62641 32.8088 7.52242 33.0861 7.31448 33.3287C7.10653 33.5713 6.82927 33.7098 6.44803 33.7792V33.8139C6.89858 33.8832 7.24516 34.0565 7.48777 34.2644C7.73037 34.4724 7.7997 34.8189 7.7997 35.2002C7.7997 35.72 7.59177 36.136 7.17588 36.4479C6.75998 36.7598 6.1708 36.8984 5.44298 36.8984H3.05157V30.9719ZM4.12596 33.4326H5.1657C5.61625 33.4326 5.96284 33.3633 6.17079 33.2247C6.37874 33.0861 6.48272 32.8781 6.48272 32.5661C6.48272 32.2889 6.37875 32.0809 6.13614 31.977C5.89353 31.873 5.54692 31.8037 5.06171 31.8037H4.12596V33.4326V33.4326ZM4.12596 34.1951V36.0666H5.26969C5.72024 36.0666 6.06682 35.9973 6.30943 35.824C6.55204 35.6854 6.65601 35.4081 6.65601 35.0962C6.65601 34.7843 6.55204 34.5417 6.30943 34.403C6.06682 34.2644 5.72021 34.1951 5.235 34.1951H4.12596V34.1951Z" fill="white"/>
<path d="M15.286 33.9178C15.286 34.8883 15.0088 35.6507 14.4889 36.1706C13.9691 36.6905 13.2066 36.9677 12.2015 36.9677C11.1964 36.9677 10.4339 36.6905 9.91405 36.1706C9.39418 35.6507 9.11694 34.8883 9.11694 33.9178C9.11694 32.9474 9.39418 32.1849 9.91405 31.6651C10.4686 31.1452 11.2311 30.8679 12.2015 30.8679C13.1719 30.8679 13.9344 31.1452 14.4889 31.6651C15.0435 32.1849 15.286 32.9474 15.286 33.9178ZM10.2606 33.9178C10.2606 34.6456 10.4339 35.2002 10.7458 35.5814C11.0578 35.9627 11.5777 36.1359 12.2015 36.1359C12.86 36.1359 13.3105 35.9627 13.6571 35.5814C14.0037 35.2002 14.1423 34.6456 14.1423 33.9178C14.1423 33.19 13.969 32.6355 13.6571 32.2542C13.3452 31.873 12.86 31.6997 12.2015 31.6997C11.543 31.6997 11.0578 31.873 10.7458 32.2542C10.4339 32.6355 10.2606 33.19 10.2606 33.9178Z" fill="white"/>
<path d="M21.9399 36.8984H20.8656V31.8037H18.994C18.7514 33.5366 18.5781 34.7149 18.4395 35.3388C18.3009 35.9626 18.0929 36.4132 17.8503 36.6558C17.6077 36.8984 17.2611 37.0024 16.8106 37.0024C16.6026 37.0024 16.3947 36.9677 16.1867 36.8984V36.1013C16.36 36.1706 16.5333 36.2052 16.6719 36.2052C16.8799 36.2052 17.0532 36.1012 17.1918 35.8586C17.3304 35.616 17.4344 35.0962 17.6077 34.299C17.7463 33.5019 17.9196 32.3929 18.1276 30.9719H21.9746V36.8984H21.9399Z" fill="white"/>
<path d="M27.9013 30.9719V31.8037H25.0594V36.8984H23.985V30.9719H27.9013Z" fill="white"/>
<path d="M35.1105 33.9178C35.1105 34.8883 34.8332 35.6507 34.3134 36.1706C33.7935 36.6905 33.031 36.9677 32.0259 36.9677C31.0209 36.9677 30.2584 36.6905 29.7385 36.1706C29.2187 35.6507 28.9414 34.8883 28.9414 33.9178C28.9414 32.9474 29.2187 32.1849 29.7385 31.6651C30.2931 31.1452 31.0555 30.8679 32.0259 30.8679C32.9964 30.8679 33.7588 31.1452 34.3134 31.6651C34.8679 32.1849 35.1105 32.9474 35.1105 33.9178ZM30.0851 33.9178C30.0851 34.6456 30.2584 35.2002 30.5703 35.5814C30.8822 35.9627 31.4021 36.1359 32.0259 36.1359C32.6844 36.1359 33.135 35.9627 33.4816 35.5814C33.8281 35.2002 33.9668 34.6456 33.9668 33.9178C33.9668 33.19 33.7935 32.6355 33.4816 32.2542C33.1696 31.873 32.6844 31.6997 32.0259 31.6997C31.3674 31.6997 30.8822 31.873 30.5703 32.2542C30.2584 32.6355 30.0851 33.19 30.0851 33.9178Z" fill="white"/>
<path d="M40.7249 30.9719V31.8037H37.883V36.8984H36.8086V30.9719H40.7249Z" fill="white"/>
<path d="M46.4431 32.7741C46.4431 33.398 46.2005 33.8832 45.7499 34.1951C45.2994 34.507 44.6409 34.6803 43.8091 34.6803H43.1159V36.8984H42.0415V30.9719H43.9477C44.7795 30.9719 45.4034 31.1106 45.8193 31.4225C46.2352 31.7344 46.4431 32.1503 46.4431 32.7741ZM43.1506 33.8485H43.7398C44.2943 33.8485 44.7102 33.7446 44.9528 33.5713C45.1954 33.398 45.334 33.1207 45.334 32.7741C45.334 32.4275 45.2301 32.185 44.9875 32.0117C44.7449 31.8384 44.3983 31.7691 43.9131 31.7691H43.1506V33.8485Z" fill="white"/>
<path d="M52.1622 36.8984L51.5037 35.2349H48.9737L48.3151 36.8984H47.1714L49.6322 30.9373H50.8105L53.2712 36.8984H52.1622ZM51.1918 34.403L50.5679 32.7741C50.5333 32.6702 50.4639 32.4969 50.3946 32.2543C50.3253 32.0117 50.256 31.8384 50.2213 31.7344C50.152 32.081 50.0134 32.4275 49.8748 32.8434L49.2856 34.403H51.1918Z" fill="white"/>
<path d="M53.6173 36.0666H54.1372C54.5877 35.3388 54.9343 34.5417 55.2462 33.6406C55.5581 32.7395 55.7314 31.8384 55.8007 30.9373H59.1972V36.032H60.0637V38.4927H59.0239V36.8638H54.657V38.4927H53.6173V36.0666ZM56.7018 31.8037C56.6325 32.4275 56.4592 33.1207 56.182 33.9525C55.9047 34.7843 55.5928 35.4775 55.2462 36.0666H58.1228V31.8037H56.7018V31.8037Z" fill="white"/>
<path d="M69.9416 33.9178C69.9416 34.8883 69.6643 35.6507 69.1445 36.1706C68.5899 36.6905 67.8621 36.9677 66.8571 36.9677C65.852 36.9677 65.0895 36.6905 64.5696 36.1706C64.0498 35.6507 63.7725 34.8883 63.7725 33.9178C63.7725 32.9474 64.0498 32.1849 64.5696 31.6651C65.0895 31.1452 65.8866 30.8679 66.8571 30.8679C67.8275 30.8679 68.5899 31.1452 69.1445 31.6651C69.699 32.1849 69.9416 32.9474 69.9416 33.9178ZM64.9162 33.9178C64.9162 34.6456 65.0895 35.2002 65.4014 35.5814C65.7134 35.9627 66.2332 36.1359 66.8571 36.1359C67.5156 36.1359 67.9661 35.9627 68.3127 35.5814C68.6246 35.2002 68.7979 34.6456 68.7979 33.9178C68.7979 33.19 68.6246 32.6355 68.3127 32.2542C68.0008 31.873 67.5156 31.6997 66.8571 31.6997C66.1986 31.6997 65.7134 31.873 65.4014 32.2542C65.0895 32.6355 64.9162 33.19 64.9162 33.9178Z" fill="white"/>
<path d="M76.8734 36.8984H75.799V34.2297H72.7491V36.8984H71.6747V30.9719H72.7491V33.398H75.799V30.9719H76.8734V36.8984Z" fill="white"/>
<path d="M83.8396 36.8984H82.7652V31.8037H80.8936C80.651 33.5366 80.4777 34.7149 80.3391 35.3388C80.2005 35.9626 79.9925 36.4132 79.7499 36.6558C79.5073 36.8984 79.1607 37.0024 78.7102 37.0024C78.5022 37.0024 78.2943 36.9677 78.0863 36.8984V36.1013C78.2596 36.1706 78.4329 36.2052 78.5716 36.2052C78.7795 36.2052 78.9528 36.1012 79.0914 35.8586C79.2301 35.616 79.334 35.0962 79.5073 34.299C79.6806 33.5019 79.8192 32.3929 80.0272 30.9719H83.8742V36.8984H83.8396Z" fill="white"/>
<path d="M89.9392 36.8984L89.2807 35.2349H86.7507L86.0922 36.8984H84.9485L87.4092 30.9373H88.5875L91.0483 36.8984H89.9392ZM89.0035 34.403L88.3796 32.7741C88.3449 32.6702 88.2756 32.4969 88.2063 32.2543C88.137 32.0117 88.0677 31.8384 88.033 31.7344C87.9637 32.081 87.8251 32.4275 87.6864 32.8434L87.0973 34.403H89.0035Z" fill="white"/>
<path d="M92.2615 30.9721H93.2665V34.0567C93.2665 34.3686 93.2665 34.7152 93.2318 35.0271C93.1972 35.339 93.1972 35.5816 93.1972 35.6856H93.2318L96.5937 30.9374H97.8414V36.864H96.8363V33.8141C96.8363 33.3289 96.8709 32.7744 96.9056 32.1159H96.8709L93.4745 36.8986H92.2268V30.9721H92.2615ZM95.0687 30.4869C94.4449 30.4869 93.9597 30.3829 93.6824 30.175C93.3705 29.967 93.2319 29.6205 93.1972 29.1353H94.1676C94.2023 29.3432 94.2369 29.4818 94.3062 29.5858C94.3756 29.6898 94.4795 29.7591 94.5835 29.8284C94.7221 29.8631 94.8954 29.8977 95.138 29.8977C95.45 29.8977 95.6579 29.8284 95.7965 29.7244C95.9352 29.6204 96.0392 29.4125 96.0738 29.1353H97.0442C97.0096 29.5858 96.8016 29.9324 96.4897 30.175C96.1778 30.3829 95.6926 30.4869 95.0687 30.4869Z" fill="white"/>
<path d="M105.05 36.8984H103.976V34.2297H100.926V36.8984H99.8514V30.9719H100.926V33.398H103.976V30.9719H105.05V36.8984Z" fill="white"/>
<path d="M104.026 14.7919H96.4097V25.1151H92.9446V-0.00708008H105.217C111.894 -0.00708008 113.771 3.81899 113.771 7.35631C113.771 10.1717 112.219 13.4203 107.78 14.3226L114.638 25.1151H110.595L104.026 14.7919ZM96.4458 11.9043H104.712C108.862 11.9043 110.162 9.70248 110.162 7.35631C110.162 5.01013 108.862 2.91662 104.748 2.91662H96.4458V11.9043Z" fill="white"/>
<path d="M121.007 -0.00708008V14.9724C121.007 19.4481 123.931 22.805 129.056 22.805C134.182 22.805 137.069 19.4842 137.069 14.9724V-0.00708008H140.57V15.1528C140.57 21.3612 136.42 25.8009 129.056 25.8009C121.621 25.8009 117.542 21.3973 117.542 15.1528V-0.00708008H121.007V-0.00708008Z" fill="white"/>
<path d="M88.6668 -0.00708008H75.8335V12.8263H88.6668V-0.00708008Z" fill="#FF8E78"/>
<path d="M75.8334 -0.00708008H63.0001V12.8263H75.8334V-0.00708008Z" fill="#FF0013"/>
<path d="M63.0005 25.6597L75.8339 25.6597L75.8339 12.8263L63.0005 12.8263L63.0005 25.6597Z" fill="#CC0019"/>
<path d="M75.8339 25.6597L88.6672 25.6597L88.6672 12.8263L75.8339 12.8263L75.8339 25.6597Z" fill="#FF0013"/>
</svg>
