<svg width="156" height="40" viewBox="0 0 156 40" fill="none" xmlns="http://www.w3.org/2000/svg">
<path fill-rule="evenodd" clip-rule="evenodd" d="M99.6706 38.0971C98.2075 36.6503 98.2075 34.3029 99.6706 32.8562C101.133 31.4095 103.508 31.4095 104.971 32.8562C106.427 34.3029 106.427 36.6503 104.971 38.0971C103.508 39.5438 101.133 39.5438 99.6706 38.0971ZM13.9786 38.4517L2.71129 24.8284C-1.49154 18.5521 -0.795848 10.1271 4.7123 4.6735C7.87519 1.5602 11.9992 0 16.1375 0V39.6148C15.37 39.6078 14.5882 39.2319 13.9786 38.4517ZM80.8725 38.8064C79.1226 38.4589 77.473 37.9341 75.9382 37.232L76.4905 31.1969C77.0929 31.4876 77.7957 31.7642 78.6062 32.0195C79.4166 32.2748 80.2773 32.5017 81.181 32.6932C82.0775 32.8918 82.9668 33.0407 83.8346 33.1542C84.7025 33.2606 85.4914 33.3173 86.2014 33.3244C86.8612 33.3244 87.4493 33.2819 87.9657 33.1897C88.4893 33.1046 88.9053 32.9415 89.2065 32.7074C89.5149 32.4734 89.6655 32.14 89.6727 31.7074C89.6727 31.2395 89.5365 30.8636 89.2496 30.587C88.9699 30.3175 88.5323 30.0906 87.9442 29.9274C87.3633 29.7572 86.6174 29.6012 85.7209 29.4452C84.1286 29.2041 82.7302 28.9062 81.5181 28.5587C80.3059 28.2041 79.2875 27.7574 78.4628 27.2184C77.6379 26.6723 77.0212 25.9914 76.598 25.1759C76.182 24.3533 75.9669 23.3604 75.9669 22.1832C75.9812 20.8925 76.2825 19.7578 76.8706 18.7862C77.4587 17.8076 78.2619 16.9849 79.2875 16.3253C80.3132 15.6658 81.475 15.1623 82.7875 14.829C84.0928 14.4956 85.477 14.3255 86.9258 14.3255C88.5682 14.3255 90.1748 14.4673 91.7454 14.7651C93.3161 15.0559 94.7936 15.5027 96.1921 16.1055L95.5323 22.1761C93.9042 21.5449 92.3623 21.0698 90.9134 20.7577C89.4719 20.4457 88.1307 20.2896 86.8971 20.2896C86.3162 20.2896 85.807 20.3322 85.3694 20.4244C84.932 20.5095 84.5949 20.6726 84.351 20.9067C84.1071 21.1407 83.9852 21.474 83.9781 21.9066C83.9709 22.24 84.0713 22.5236 84.2793 22.7363C84.4873 22.9562 84.8674 23.1405 85.4053 23.3037C85.9433 23.4597 86.7107 23.6228 87.6932 23.793C89.852 24.1193 91.6737 24.5873 93.1584 25.183C94.6501 25.7787 95.7833 26.573 96.5579 27.5729C97.3253 28.5658 97.7197 29.8352 97.7197 31.367C97.7126 32.6932 97.4185 33.8563 96.8376 34.8491C96.2494 35.849 95.4391 36.6718 94.3991 37.3383C93.3519 37.9979 92.1327 38.4943 90.7413 38.8276C89.3499 39.161 87.8366 39.3241 86.2085 39.3241C84.4012 39.3241 82.6297 39.1539 80.8725 38.8064ZM58.4025 38.3595C56.76 37.7426 55.3328 36.8774 54.1279 35.764C52.9158 34.6435 51.9835 33.3315 51.3164 31.8209C50.6495 30.3033 50.3124 28.6509 50.3052 26.8425C50.3124 25.2752 50.5562 23.8356 51.0439 22.5306C51.5316 21.2258 52.213 20.0627 53.0807 19.0486C53.9558 18.0345 54.9742 17.1764 56.1433 16.4743C57.3123 15.7721 58.5889 15.2403 59.9588 14.8786C61.3286 14.5169 62.7631 14.3326 64.2477 14.3255C65.7825 14.3255 67.3245 14.5312 68.8808 14.9495C70.4372 15.3608 71.9577 15.992 73.4352 16.8288L70.5233 22.6228C69.4905 21.9775 68.4434 21.4881 67.3747 21.162C66.3133 20.8357 65.2805 20.6726 64.2836 20.6726C63.093 20.6798 62.0172 20.9137 61.0705 21.3747C60.1238 21.8428 59.3707 22.5378 58.8184 23.4597C58.2662 24.3745 57.9793 25.5163 57.9722 26.878C57.9793 28.1545 58.2375 29.2537 58.7467 30.1756C59.256 31.0975 59.9731 31.8068 60.8983 32.3032C61.8164 32.7997 62.8994 33.0549 64.1473 33.0549C64.7283 33.0549 65.2159 33.0336 65.6104 32.984C66.0049 32.9272 66.3491 32.8563 66.6431 32.7642C66.9372 32.672 67.2313 32.5656 67.511 32.438V30.3103H65.6391V25.4667H74.4464V36.0406C73.4781 36.6788 72.4239 37.2462 71.2763 37.7355C70.1288 38.2248 68.9239 38.6007 67.6616 38.8773C66.3993 39.1538 65.1156 39.2886 63.8031 39.2957C61.8379 39.2886 60.0377 38.9766 58.4025 38.3595ZM137.654 37.9482C135.904 37.0688 134.563 35.8207 133.609 34.1967C132.662 32.5798 132.182 30.6437 132.167 28.4097V14.7864H139.762V28.5091C139.77 30.0408 140.129 31.204 140.831 32.0053C141.541 32.7996 142.545 33.2038 143.858 33.2038C145.17 33.2038 146.239 32.7997 146.97 31.9982C147.702 31.204 148.075 30.0408 148.082 28.5091V14.7864H155.577V28.4027C155.57 30.6437 155.089 32.5726 154.15 34.1967C153.211 35.8136 151.862 37.0688 150.119 37.9412C148.369 38.8206 146.282 39.2674 143.858 39.2815C141.463 39.2674 139.396 38.8276 137.654 37.9482ZM23.2808 38.8276V14.8148H30.2162L40.3432 27.2325V14.8077H47.9384V38.8206L41.2182 38.8276L30.8402 26.0978V38.8276H23.2808ZM108.334 38.8064V14.7935H119.429C121.746 14.8006 123.747 15.1481 125.412 15.836C127.082 16.5239 128.366 17.5168 129.27 18.8003C130.167 20.091 130.626 21.6301 130.633 23.4313C130.618 25.2752 130.159 26.8354 129.241 28.1119C128.323 29.3885 127.018 30.3601 125.325 31.0196L131.293 38.8064H122.966L117.665 32.0124H115.894V38.8064H108.334ZM115.894 26.4525H119.221C120.413 26.4525 121.352 26.2113 122.033 25.7362C122.708 25.2539 123.059 24.5306 123.066 23.5732C123.059 22.6583 122.708 21.9633 122.026 21.4881C121.352 21.0059 120.413 20.7648 119.221 20.7648H115.894V26.4525ZM60.4751 10.3257V7.73716H61.3071C61.4004 7.67333 61.5008 7.58824 61.6012 7.47477C61.7016 7.3542 61.7949 7.19109 61.8881 6.96416C61.9742 6.73721 62.053 6.43936 62.1176 6.0564C62.1822 5.67345 62.2181 5.18411 62.2395 4.59549L62.3757 0.120561H68.3932V7.73006H69.4618V10.3257H68.2066V8.84348H61.7375V10.3257H60.4751ZM53.2314 8.63782C52.6719 8.41798 52.1843 8.11303 51.7683 7.70879C51.3595 7.31165 51.0367 6.8365 50.8072 6.29043C50.5849 5.74436 50.4701 5.14156 50.463 4.48911C50.4701 3.82958 50.5849 3.23386 50.8072 2.6878C51.0367 2.14172 51.3523 1.66657 51.7683 1.26943C52.1843 0.8652 52.6648 0.553161 53.2314 0.333315C53.7908 0.113469 54.4076 0 55.0747 0C55.7416 0 56.3656 0.113469 56.9322 0.333315C57.4917 0.553161 57.9793 0.858109 58.3952 1.26234C58.8113 1.65948 59.1269 2.13463 59.3564 2.68071C59.5858 3.22677 59.7006 3.82958 59.7006 4.48202C59.7006 5.13447 59.5858 5.73727 59.3564 6.28334C59.1269 6.82941 58.8113 7.30456 58.3952 7.7017C57.9864 8.10594 57.4988 8.41798 56.9322 8.63782C56.3728 8.85766 55.7487 8.96404 55.0747 8.97113C54.4076 8.97113 53.7908 8.85766 53.2314 8.63782ZM23.2736 8.85057V0.127653H24.5359V3.94305H29.7141V0.127653H30.9621V8.85057H29.7141V5.04937H24.5359V8.85057H23.2736ZM32.081 8.85057L35.9323 0.127653H37.4816L41.3545 8.85057H40.042L39.2386 7.04216H34.1967L33.3862 8.85057H32.081ZM42.4661 8.85057V0.127653H45.8441C46.6115 0.127653 47.2714 0.248214 47.8165 0.482243C48.3687 0.716273 48.7847 1.04959 49.0787 1.48928C49.3728 1.92897 49.5234 2.46085 49.5234 3.07784C49.5234 3.69483 49.3728 4.2409 49.0716 4.68768C48.7775 5.13447 48.3543 5.47487 47.8021 5.70891C47.2499 5.94293 46.59 6.06349 45.8226 6.07059H43.714V8.85057H42.4661ZM70.6452 8.84348V0.120561H71.9075V3.92886H77.0857V0.120561H78.3336V8.84348H77.0857V5.04228H71.9075V8.84348H70.6452ZM79.4525 8.84348L83.3039 0.120561H84.8531L88.726 8.83639H87.4135L86.6102 7.02798H81.5682L80.7578 8.84348H79.4525ZM89.1062 8.84348L91.8674 5.70182C91.0139 5.56707 90.3541 5.26921 89.895 4.80115C89.436 4.34018 89.1994 3.7232 89.1921 2.95019C89.1994 2.34739 89.3428 1.83678 89.6297 1.41127C89.9165 0.992853 90.3397 0.673721 90.8848 0.453875C91.4298 0.23403 92.0969 0.120561 92.8714 0.120561H96.393V8.84348H95.145V5.77982H93.4165L90.6983 8.84348H89.1062ZM101.8 8.84348V0.113469H109.202V8.83639H107.954V1.20561H103.035V8.83639H101.8V8.84348ZM111.275 8.84348V0.113469H114.646C115.413 0.113469 116.073 0.226938 116.626 0.468059C117.17 0.702089 117.594 1.0354 117.887 1.47509C118.175 1.91479 118.325 2.44667 118.332 3.06366C118.332 3.68774 118.175 4.22671 117.88 4.6735C117.579 5.12028 117.156 5.46069 116.604 5.69472C116.051 5.92875 115.391 6.04931 114.624 6.04931H112.523V8.83639H111.275V8.84348ZM119.673 8.83639V0.106377H126.437V1.20561H120.893V3.79412H125.82V4.90753H120.893V7.72297H126.566V8.8293H119.673V8.83639ZM128.072 8.83639V0.106377H129.219L132.619 5.58834L136.026 0.106377H137.174V8.8293H135.925V2.36157L132.834 7.16982H132.412L129.32 2.34739V8.8293H128.072V8.83639ZM139.239 8.83639V0.106377H140.494V6.67339L145.859 0.106377H146.949V8.8222H145.701V2.19846L140.271 8.8293H139.239V8.83639ZM148.297 8.8293L151.051 5.68763C150.198 5.55998 149.538 5.25503 149.079 4.79406C148.62 4.326 148.383 3.70901 148.383 2.936C148.383 2.33321 148.527 1.82259 148.821 1.40418C149.107 0.978669 149.523 0.659538 150.069 0.439692C150.621 0.219846 151.281 0.113469 152.062 0.106377H155.577V8.8293H154.328V5.76564H152.601L149.882 8.8293H148.297ZM56.7959 7.41803C57.2908 7.13436 57.6781 6.74431 57.9578 6.24788C58.2303 5.74436 58.3737 5.16283 58.381 4.48911C58.3737 3.82248 58.2303 3.23386 57.9506 2.73034C57.6781 2.22683 57.2908 1.83678 56.7959 1.5602C56.3011 1.27653 55.7272 1.13469 55.0747 1.1276C54.4291 1.13469 53.8554 1.27653 53.3605 1.5602C52.8656 1.83678 52.4855 2.23392 52.2058 2.73744C51.9189 3.24095 51.7826 3.82248 51.7755 4.4962C51.7826 5.16283 51.926 5.74436 52.2058 6.24788C52.4855 6.7514 52.8728 7.14145 53.3677 7.41803C53.8554 7.69461 54.4291 7.83645 55.0747 7.84354C55.7272 7.84354 56.3011 7.69461 56.7959 7.41803ZM62.8491 7.74426H67.1309V1.2127H63.6165L63.5018 4.73024C63.4875 5.2834 63.4445 5.75145 63.3799 6.1415C63.3225 6.52446 63.2436 6.84359 63.1504 7.09889C63.0572 7.3542 62.9567 7.56695 62.8491 7.73716V7.74426ZM34.6988 5.92875H38.7295L36.7141 1.39709L34.6988 5.92875ZM82.0703 5.91457H86.101L84.0857 1.38291L82.0703 5.91457ZM43.714 4.97845H45.8083C46.3319 4.97845 46.7766 4.90753 47.1423 4.77279C47.5081 4.63095 47.7878 4.4182 47.9814 4.14162C48.175 3.85794 48.2755 3.51044 48.2755 3.08493C48.2755 2.65943 48.175 2.32612 47.9814 2.05663C47.7878 1.78004 47.5081 1.57438 47.1423 1.43255C46.7766 1.2978 46.339 1.22689 45.8226 1.22689H43.714V4.97845ZM112.523 4.96426H114.61C115.133 4.96426 115.578 4.89335 115.944 4.75151C116.317 4.61677 116.597 4.40402 116.79 4.12743C116.984 3.84376 117.077 3.48917 117.085 3.07075C117.077 2.65943 116.984 2.31192 116.79 2.03535C116.597 1.76586 116.317 1.5602 115.951 1.41836C115.585 1.28362 115.141 1.2127 114.624 1.2127H112.523V4.96426ZM92.9145 4.68059H95.145V1.2127H92.9001C92.1113 1.20561 91.5088 1.35453 91.0856 1.6382C90.6624 1.92897 90.4473 2.36867 90.4473 2.97147C90.4473 3.57427 90.6624 4.00687 91.0856 4.27636C91.5159 4.54584 92.1184 4.68059 92.9145 4.6735V4.68059ZM152.099 4.66641H154.328V1.19852H152.085C151.302 1.19852 150.692 1.34035 150.27 1.62402C149.847 1.91479 149.632 2.36157 149.632 2.95729C149.632 3.55299 149.847 3.99269 150.277 4.26218C150.699 4.53166 151.309 4.66641 152.099 4.65932V4.66641Z" fill="#FFFFC1"/>
</svg>
